<svg width="15" height="12" viewBox="0 0 15 12" fill="none" xmlns="http://www.w3.org/2000/svg">
<path fill-rule="evenodd" clip-rule="evenodd" d="M1.33936 0H13.6606C14.0233 0 14.3373 0.131156 14.6024 0.393332C14.8673 0.655834 15 0.971006 15 1.33934C15 1.78019 14.8631 2.20152 14.5901 2.60318C14.3166 3.00485 13.9763 3.34818 13.569 3.63269C12.2146 4.5727 11.1926 5.28237 10.4986 5.76454C10.1172 6.02936 9.83358 6.22656 9.65156 6.35322C9.62457 6.3722 9.58241 6.40218 9.52639 6.44238C9.46607 6.48555 9.38973 6.54056 9.29575 6.60856C9.11438 6.73974 8.96372 6.84573 8.84373 6.92672C8.72352 7.00755 8.57853 7.09824 8.40838 7.19873C8.23806 7.29925 8.07768 7.37455 7.92706 7.42474C7.77635 7.47491 7.63683 7.50007 7.50853 7.50007H7.5002H7.49187C7.36354 7.50007 7.22405 7.47491 7.07337 7.42474C6.92272 7.37455 6.7622 7.29909 6.59202 7.19873C6.42171 7.09824 6.27652 7.00774 6.1567 6.92672C6.03671 6.84573 5.88605 6.73971 5.70471 6.60856C5.61053 6.54056 5.5342 6.48557 5.47388 6.44224L5.46795 6.438C5.4149 6.40008 5.37474 6.37137 5.34887 6.35322C5.11521 6.18889 4.8322 5.99088 4.50404 5.76223C4.11904 5.49371 3.67103 5.18254 3.15585 4.82553C2.20151 4.16436 1.6295 3.7667 1.43982 3.63269C1.09382 3.39834 0.767323 3.07617 0.460485 2.66601C0.153647 2.25569 0.000159571 1.87483 0.000159571 1.52333C0.000159571 1.08816 0.11582 0.725306 0.347521 0.435162C0.579032 0.145154 0.909509 0 1.33936 0ZM0 3.8002C0.245509 4.0737 0.52751 4.31652 0.845514 4.52853C2.03085 5.33404 2.99635 5.99722 3.7457 6.52038L0 10.2661V3.8002ZM14.5383 11.4546C14.29 11.6744 13.9978 11.7858 13.6606 11.7858H1.33934C1.0022 11.7858 0.709846 11.6744 0.461504 11.4546L4.71206 7.20355C4.81838 7.27989 4.91672 7.35121 5.00539 7.41622C5.32359 7.65056 5.58157 7.83338 5.77975 7.9644C5.97773 8.09572 6.24141 8.22957 6.57074 8.36623C6.90007 8.50307 7.20691 8.57124 7.49158 8.57124H7.49991H7.50825C7.79289 8.57124 8.09973 8.50305 8.42909 8.36623C8.75823 8.22957 9.0219 8.09572 9.22008 7.9644C9.41829 7.83338 9.6764 7.65053 9.99444 7.41622C10.0878 7.34871 10.1866 7.27771 10.2886 7.20469L14.5383 11.4546ZM14.1629 4.52853C13.0228 5.30021 12.0538 5.96454 11.2558 6.52187L15 10.2662V3.8002C14.7599 4.0682 14.481 4.31085 14.1629 4.52853Z" fill="#46C8FF"/>
</svg>
