<svg width="15" height="15" viewBox="0 0 15 15" fill="none" xmlns="http://www.w3.org/2000/svg">
<g clip-path="url(#clip0_327_444)">
<path d="M7.76953 14.9911C8.91659 14.8282 9.92215 13.631 10.5549 11.8629C9.64019 11.6581 8.70676 11.5481 7.76953 11.535V14.9911Z" fill="#46C8FF"/>
<path d="M9.60202 14.7099C9.66982 14.6903 9.73736 14.6705 9.80438 14.6488C9.86093 14.6306 9.91669 14.611 9.97245 14.5915C10.0384 14.5687 10.1041 14.5453 10.1696 14.5204C10.2253 14.4992 10.2806 14.4767 10.336 14.4542C10.3998 14.4273 10.4636 14.4006 10.5267 14.3738C10.5818 14.3496 10.6365 14.3242 10.6912 14.2987C10.7531 14.2695 10.8148 14.2398 10.8759 14.2089C10.9296 14.1815 10.9831 14.1536 11.0368 14.125C11.0969 14.0928 11.1565 14.0599 11.2158 14.0261C11.2695 13.9958 11.3212 13.9653 11.3734 13.9338C11.4316 13.8981 11.4894 13.8624 11.5469 13.8266C11.5983 13.7939 11.6496 13.7607 11.7003 13.7264C11.7568 13.6883 11.8126 13.6486 11.8681 13.609C11.918 13.5732 11.9676 13.5376 12.0163 13.5018C12.0699 13.4604 12.1249 13.4176 12.1787 13.3747C12.2265 13.3366 12.2741 13.2987 12.3211 13.2596C12.3747 13.2151 12.426 13.169 12.478 13.1229C12.5235 13.0825 12.5693 13.0424 12.6138 13.0009C12.665 12.9532 12.7149 12.9037 12.7647 12.8546C12.8079 12.8119 12.8517 12.7699 12.8939 12.7262C12.9018 12.7181 12.9093 12.7093 12.9174 12.7009C12.3327 12.3989 11.7168 12.1619 11.0805 11.9941C10.7496 13.0494 10.1607 14.0057 9.36719 14.7762C9.38892 14.7705 9.41065 14.766 9.43237 14.7603C9.48971 14.7442 9.54599 14.7266 9.60202 14.7099Z" fill="#46C8FF"/>
<path d="M14.9978 7.77423H11.7834C11.7713 9.02927 11.5892 10.2769 11.2422 11.4831C11.9498 11.6721 12.6327 11.9438 13.2767 12.2927C14.3341 11.0183 14.9394 9.42929 14.9978 7.77423Z" fill="#46C8FF"/>
<path d="M7.76953 7.23809H11.251C11.2374 6.02742 11.0598 4.82421 10.7232 3.66119C9.75381 3.88228 8.7637 4.00035 7.76953 4.01344V7.23809Z" fill="#46C8FF"/>
<path d="M7.76953 0.0211792V3.47726C8.70676 3.46404 9.64019 3.35421 10.5549 3.14936C9.92215 1.38133 8.91659 0.184146 7.76953 0.0211792Z" fill="#46C8FF"/>
<path d="M7.76953 10.9989C8.7637 11.0121 9.75381 11.1302 10.7232 11.3513C11.0598 10.1882 11.2374 8.9849 11.251 7.77423H7.76953V10.9989Z" fill="#46C8FF"/>
<path d="M13.2767 2.7196C12.6327 3.06845 11.9498 3.34019 11.2422 3.5292C11.5892 4.73542 11.7713 5.983 11.7834 7.23804H14.9978C14.9392 5.58311 14.334 3.99415 13.2767 2.7196Z" fill="#46C8FF"/>
<path d="M12.9156 2.31293C12.9077 2.30495 12.9003 2.29631 12.8925 2.28806C12.8501 2.24434 12.8061 2.20219 12.763 2.15965C12.7132 2.11056 12.6636 2.06095 12.6123 2.01331C12.5679 1.97194 12.522 1.93281 12.4764 1.89157C12.4245 1.8455 12.3725 1.79903 12.3191 1.75452C12.2727 1.71539 12.2252 1.67795 12.1781 1.64038C12.1244 1.59692 12.0695 1.55373 12.0142 1.51223C11.9658 1.47571 11.9167 1.44037 11.8674 1.40503C11.8113 1.36471 11.755 1.32453 11.698 1.28617C11.6478 1.2524 11.5969 1.21942 11.546 1.18708C11.488 1.14978 11.4302 1.11326 11.3711 1.07792C11.3194 1.04689 11.2672 1.01626 11.2148 0.98655C11.1549 0.952255 11.0948 0.919007 11.0342 0.886545C10.9805 0.859711 10.927 0.830521 10.8733 0.803687C10.8117 0.772534 10.7495 0.742558 10.6857 0.713106C10.6321 0.687581 10.5776 0.662711 10.5224 0.638495C10.4589 0.610352 10.3948 0.584958 10.3307 0.558124C10.2755 0.53561 10.2205 0.513357 10.1648 0.492152C10.0997 0.467281 10.0337 0.443982 9.96777 0.421206C9.912 0.401571 9.85624 0.382067 9.79969 0.363742C9.73267 0.342013 9.66565 0.322247 9.5968 0.302351C9.54104 0.285989 9.48502 0.269365 9.4286 0.254443C9.407 0.248552 9.38501 0.243971 9.36328 0.238342C10.1568 1.0088 10.7456 1.96501 11.0766 3.02043C11.7135 2.85262 12.3303 2.61543 12.9156 2.31293Z" fill="#46C8FF"/>
<path d="M0 7.23804H3.21431C3.22648 5.983 3.40856 4.73542 3.75544 3.5292C3.04794 3.34032 2.36505 3.06858 1.72104 2.7196C0.663648 3.99402 0.0583801 5.58311 0 7.23804Z" fill="#46C8FF"/>
<path d="M7.23067 14.9911V11.535C6.29345 11.5483 5.36002 11.6581 4.44531 11.8629C5.07794 13.631 6.08362 14.8282 7.23067 14.9911Z" fill="#46C8FF"/>
<path d="M7.23147 7.77423H3.75C3.76361 8.9849 3.94111 10.1882 4.27778 11.3513C5.2472 11.13 6.23718 11.012 7.23147 10.9989V7.77423Z" fill="#46C8FF"/>
<path d="M7.23067 0.0211792C6.08362 0.184146 5.07794 1.38133 4.44531 3.14936C5.36002 3.35434 6.29345 3.46417 7.23067 3.47726V0.0211792Z" fill="#46C8FF"/>
<path d="M7.23147 4.01344C6.23731 4.00035 5.2472 3.88228 4.27778 3.66119C3.94111 4.82421 3.76361 6.02742 3.75 7.23809H7.23147V4.01344Z" fill="#46C8FF"/>
<path d="M5.63143 0.238098C5.60971 0.243727 5.58798 0.248308 5.56625 0.253937C5.50944 0.269121 5.45341 0.286007 5.39687 0.302369C5.32959 0.322003 5.26283 0.341769 5.19529 0.363236C5.13835 0.381692 5.08232 0.401327 5.0263 0.420831C4.96072 0.443999 4.89501 0.467037 4.83008 0.491646C4.77406 0.513113 4.71882 0.535366 4.66332 0.558142C4.59957 0.584976 4.5357 0.61181 4.47273 0.638513C4.4175 0.662729 4.36291 0.688123 4.3082 0.713648C4.24628 0.742838 4.18463 0.772551 4.1235 0.803443C4.06983 0.830801 4.01617 0.858813 3.96263 0.887348C3.90255 0.919549 3.84299 0.952535 3.78382 0.986306C3.73016 1.01628 3.6774 1.04704 3.6257 1.07846C3.56745 1.11354 3.50986 1.1498 3.45252 1.18566C3.40095 1.21865 3.34977 1.2519 3.29911 1.28619C3.24256 1.32428 3.1868 1.36394 3.1313 1.40361C3.08143 1.43934 3.03182 1.47495 2.983 1.51094C2.92815 1.55217 2.87579 1.59511 2.82055 1.63791C2.77291 1.676 2.72487 1.71383 2.67827 1.75323C2.6246 1.79748 2.57368 1.84329 2.52198 1.8891C2.47616 1.92994 2.42996 1.96961 2.38519 2.01189C2.33427 2.0594 2.28466 2.10875 2.23492 2.15771C2.19172 2.20038 2.14774 2.24253 2.10533 2.28638C2.09761 2.29449 2.09015 2.30339 2.08203 2.31164C2.66662 2.61375 3.28262 2.85081 3.91891 3.01862C4.24982 1.96385 4.83833 1.00817 5.63143 0.238098Z" fill="#46C8FF"/>
<path d="M2.23634 12.8526C2.28621 12.9017 2.33582 12.9513 2.387 12.9991C2.43151 13.0403 2.47732 13.0795 2.523 13.1207C2.57497 13.1669 2.62694 13.2133 2.68034 13.2578C2.72668 13.2966 2.77393 13.3342 2.82132 13.3719C2.87499 13.4154 2.92852 13.4586 2.98533 13.5003C3.03363 13.5366 3.08272 13.5717 3.13181 13.6076C3.18783 13.6478 3.24438 13.688 3.30145 13.7266C3.35158 13.7604 3.4025 13.7934 3.45342 13.8259C3.51141 13.863 3.56926 13.8995 3.6283 13.9349C3.68 13.966 3.73223 13.9965 3.78459 14.0264C3.84454 14.0607 3.90462 14.0939 3.96523 14.1263C4.01876 14.1531 4.07243 14.1823 4.1261 14.2091C4.18775 14.2403 4.24993 14.2703 4.31367 14.2998C4.36734 14.3251 4.4218 14.35 4.47703 14.3743C4.54052 14.4025 4.60453 14.4279 4.66867 14.4547C4.72391 14.4772 4.77888 14.4995 4.83465 14.5207C4.8997 14.5457 4.96567 14.569 5.03165 14.5917C5.08741 14.6112 5.14317 14.6309 5.19972 14.6491C5.26674 14.6708 5.33376 14.6907 5.40261 14.7105C5.45837 14.7268 5.51439 14.7434 5.57068 14.7585C5.59241 14.7644 5.6144 14.769 5.63613 14.7746C4.84263 14.004 4.25385 13.0478 3.92282 11.9924C3.28653 12.1603 2.67052 12.3974 2.08594 12.6996C2.09379 12.7076 2.10125 12.7162 2.10911 12.7245C2.14929 12.7679 2.19262 12.8101 2.23634 12.8526Z" fill="#46C8FF"/>
<path d="M1.72104 12.2927C2.36505 11.9438 3.04794 11.6721 3.75544 11.4831C3.40856 10.2769 3.22648 9.02927 3.21431 7.77423H0C0.058511 9.42916 0.663648 11.0181 1.72104 12.2927Z" fill="#46C8FF"/>
</g>
<defs>
<clipPath id="clip0_327_444">
<rect width="15" height="15" fill="white"/>
</clipPath>
</defs>
</svg>
