<svg width="507" height="107" viewBox="0 0 507 107" fill="none" xmlns="http://www.w3.org/2000/svg">
<path d="M200.697 58.3212L200.621 12.3885L178.153 51.1898H176.236L153.768 12.5419V58.3212H149.934V4.6436H153.231L177.232 46.1287L201.234 4.6436H204.455L204.531 58.3212H200.697Z" fill="#171717"/>
<path d="M256.449 43.2148H225.316L218.492 58.3212H214.274L238.966 4.6436H242.877L267.568 58.3212H263.351L256.449 43.2148ZM254.993 39.9175L240.883 8.93781L226.85 39.9175H254.993Z" fill="#171717"/>
<path d="M321.022 4.6436V58.3212H317.801L281.224 11.6984V58.3212H277.313V4.6436H280.61L317.111 51.2664V4.6436H321.022Z" fill="#171717"/>
<path d="M372.971 43.2148H341.838L335.013 58.3212H330.795L355.487 4.6436H359.398L384.09 58.3212H379.872L372.971 43.2148ZM371.514 39.9175L357.404 8.93781L343.371 39.9175H371.514Z" fill="#171717"/>
<path d="M407.944 58.7046C404.007 58.7046 400.25 58.04 396.671 56.7109C393.144 55.3306 390.384 53.5669 388.39 51.4198L390.153 48.5059C392.045 50.4996 394.575 52.1355 397.745 53.4135C400.966 54.6405 404.34 55.2539 407.867 55.2539C412.979 55.2539 416.839 54.2826 419.446 52.34C422.053 50.3974 423.357 47.8669 423.357 44.7484C423.357 42.3457 422.667 40.4287 421.286 38.9973C419.906 37.5659 418.194 36.4668 416.149 35.6999C414.104 34.9331 411.343 34.1407 407.867 33.3228C403.931 32.3515 400.761 31.4057 398.358 30.4855C396.007 29.5654 393.988 28.1595 392.301 26.268C390.665 24.3254 389.847 21.7438 389.847 18.5231C389.847 15.9159 390.537 13.5387 391.917 11.3916C393.297 9.19342 395.393 7.45529 398.205 6.17725C401.068 4.89921 404.621 4.26019 408.864 4.26019C411.829 4.26019 414.743 4.69473 417.606 5.56379C420.469 6.43286 422.948 7.60866 425.044 9.09118L423.587 12.2352C421.44 10.7526 419.063 9.62795 416.455 8.86113C413.899 8.09431 411.369 7.7109 408.864 7.7109C403.905 7.7109 400.148 8.70777 397.592 10.7015C395.036 12.6952 393.758 15.2769 393.758 18.4464C393.758 20.8491 394.448 22.7662 395.828 24.1976C397.208 25.629 398.921 26.7281 400.966 27.4949C403.011 28.2618 405.797 29.0797 409.324 29.9488C413.26 30.9201 416.404 31.8658 418.756 32.786C421.108 33.7062 423.101 35.112 424.737 37.0035C426.424 38.8439 427.268 41.3489 427.268 44.5184C427.268 47.1256 426.552 49.5028 425.121 51.6499C423.74 53.797 421.593 55.5095 418.679 56.7876C415.765 58.0656 412.187 58.7046 407.944 58.7046Z" fill="#171717"/>
<path d="M440.562 4.6436H444.473V58.3212H440.562V4.6436Z" fill="#171717"/>
<path d="M479.128 31.8658L467.089 44.2117V58.3212H463.178V4.6436H467.089V39.1506L500.599 4.6436H505.353L481.735 29.0286L506.963 58.3212H502.209L479.128 31.8658Z" fill="#171717"/>
<path d="M156.05 98.1959C154.588 98.1959 153.267 97.8693 152.088 97.2161C150.91 96.5487 149.98 95.6399 149.298 94.4896C148.631 93.3394 148.297 92.0543 148.297 90.6342C148.297 89.2142 148.631 87.929 149.298 86.7788C149.98 85.6286 150.91 84.7268 152.088 84.0736C153.267 83.4062 154.588 83.0725 156.05 83.0725C157.513 83.0725 158.834 83.3991 160.012 84.0523C161.191 84.7055 162.114 85.6073 162.781 86.7575C163.463 87.9077 163.804 89.2 163.804 90.6342C163.804 92.0685 163.463 93.3607 162.781 94.5109C162.114 95.6612 161.191 96.5629 160.012 97.2161C158.834 97.8693 157.513 98.1959 156.05 98.1959ZM156.05 97.1948C157.3 97.1948 158.429 96.9108 159.437 96.3428C160.445 95.7748 161.241 94.9937 161.823 93.9997C162.405 92.9915 162.696 91.8696 162.696 90.6342C162.696 89.3988 162.405 88.284 161.823 87.29C161.241 86.2818 160.445 85.4937 159.437 84.9256C158.429 84.3576 157.3 84.0736 156.05 84.0736C154.801 84.0736 153.665 84.3576 152.642 84.9256C151.634 85.4937 150.839 86.2818 150.257 87.29C149.674 88.284 149.383 89.3988 149.383 90.6342C149.383 91.8696 149.674 92.9915 150.257 93.9997C150.839 94.9937 151.634 95.7748 152.642 96.3428C153.665 96.9108 154.801 97.1948 156.05 97.1948Z" fill="#171717"/>
<path d="M172.08 83.179H182.709V84.1375H173.166V89.5053H178.214C179.961 89.5053 181.289 89.8603 182.198 90.5703C183.107 91.2803 183.561 92.3241 183.561 93.7015C183.561 95.1215 183.078 96.2079 182.112 96.9605C181.147 97.7131 179.748 98.0894 177.916 98.0894H172.08V83.179ZM177.938 97.1735C179.429 97.1735 180.558 96.8895 181.324 96.3215C182.091 95.7393 182.475 94.8801 182.475 93.7441C182.475 91.5146 180.962 90.3999 177.938 90.3999H173.166V97.1735H177.938Z" fill="#171717"/>
<path d="M197.08 83.179C198.954 83.179 200.424 83.6263 201.489 84.5209C202.554 85.4013 203.086 86.6297 203.086 88.2059C203.086 89.768 202.554 90.9963 201.489 91.8909C200.424 92.7714 198.954 93.2116 197.08 93.2116H192.819V98.0894H191.733V83.179H197.08ZM197.08 92.2318C198.67 92.2318 199.884 91.8838 200.722 91.188C201.56 90.4922 201.979 89.4982 201.979 88.2059C201.979 86.9137 201.56 85.9197 200.722 85.2238C199.884 84.5138 198.67 84.1588 197.08 84.1588H192.819V92.2318H197.08Z" fill="#171717"/>
<path d="M220.716 83.179V98.0894H219.63V93.4033H214.88C214.51 93.4033 214.163 93.382 213.836 93.3394L210.534 98.0894H209.363L212.814 93.1477C211.706 92.8353 210.854 92.2744 210.257 91.4649C209.661 90.6413 209.363 89.6118 209.363 88.3763C209.363 86.7291 209.874 85.4511 210.896 84.5422C211.933 83.6334 213.332 83.179 215.093 83.179H220.716ZM210.47 88.355C210.47 89.6757 210.854 90.691 211.621 91.401C212.388 92.1111 213.509 92.4661 214.986 92.4661H219.63V84.1588H215.178C213.673 84.1588 212.508 84.5209 211.685 85.2451C210.875 85.9552 210.47 86.9918 210.47 88.355Z" fill="#171717"/>
<path d="M243.353 97.1096V101.498H242.309V98.0894H228.677L228.655 101.498H227.612L227.633 97.1096H228.442C229.422 97.0244 230.104 96.2008 230.487 94.6387C230.885 93.0767 231.126 90.8898 231.211 88.0781L231.361 83.179H241.052V97.1096H243.353ZM232.213 88.1633C232.127 90.5774 231.936 92.5513 231.637 94.0849C231.353 95.6186 230.864 96.6268 230.168 97.1096H239.966V84.1588H232.34L232.213 88.1633Z" fill="#171717"/>
<path d="M257.073 88.6319C258.834 88.6319 260.169 89.0225 261.078 89.8035C262.001 90.5845 262.462 91.7418 262.462 93.2755C262.462 94.8517 261.972 96.0517 260.993 96.8753C260.027 97.6847 258.628 98.0894 256.796 98.0894H251.088V83.179H252.174V88.6319H257.073ZM256.818 97.1735C258.309 97.1735 259.438 96.8469 260.204 96.1937C260.971 95.5405 261.355 94.5748 261.355 93.2968C261.355 90.7975 259.842 89.5479 256.818 89.5479H252.174V97.1735H256.818ZM265.21 83.179H266.296V98.0894H265.21V83.179Z" fill="#171717"/>
<path d="M285.204 83.179L289.699 89.4627L294.214 83.179H295.514L290.38 90.3573L295.918 98.0894H294.619L289.699 91.2732L284.821 98.0894H283.543L289.038 90.3786L283.926 83.179H285.204Z" fill="#171717"/>
<path d="M312.203 93.8932H303.555L301.659 98.0894H300.488L307.346 83.179H308.433L315.292 98.0894H314.12L312.203 93.8932ZM311.798 92.9773L307.879 84.3718L303.981 92.9773H311.798Z" fill="#171717"/>
<path d="M335.94 97.1096V101.498H334.896V98.0894H321.264L321.242 101.498H320.199L320.22 97.1096H321.029C322.009 97.0244 322.691 96.2008 323.074 94.6387C323.472 93.0767 323.713 90.8898 323.799 88.0781L323.948 83.179H333.639V97.1096H335.94ZM324.8 88.1633C324.714 90.5774 324.523 92.5513 324.225 94.0849C323.941 95.6186 323.451 96.6268 322.755 97.1096H332.553V84.1588H324.927L324.8 88.1633Z" fill="#171717"/>
<path d="M355.411 91.0176H352.131V98.0894H351.066V91.0176H347.786L342.865 98.0894H341.566L346.891 90.4212L341.971 83.179H343.206L347.765 90.0378H351.066V83.179H352.131V90.0378H355.411L359.991 83.179H361.205L356.306 90.4212L361.631 98.0894H360.332L355.411 91.0176Z" fill="#171717"/>
<path d="M377.923 93.8932H369.275L367.379 98.0894H366.208L373.066 83.179H374.153L381.012 98.0894H379.84L377.923 93.8932ZM377.518 92.9773L373.599 84.3718L369.701 92.9773H377.518Z" fill="#171717"/>
<path d="M398.1 83.179H399.186V96.2576L409.346 83.179H410.305V98.0894H409.219V85.0321L399.058 98.0894H398.1V83.179Z" fill="#171717"/>
<path d="M440.957 83.179L434.077 95.9168C433.637 96.7404 433.111 97.351 432.501 97.7486C431.904 98.1462 431.265 98.345 430.584 98.345C430.058 98.345 429.49 98.2172 428.88 97.9616L429.221 97.067C429.703 97.2658 430.158 97.3652 430.584 97.3652C431.592 97.3652 432.43 96.8043 433.097 95.6825L433.608 94.8091L427.495 83.179H428.688L434.205 93.7867L439.828 83.179H440.957Z" fill="#171717"/>
<path d="M462.008 98.0894L461.986 85.3303L455.745 96.1085H455.213L448.972 85.3729V98.0894H447.907V83.179H448.822L455.49 94.7026L462.157 83.179H463.051L463.073 98.0894H462.008Z" fill="#171717"/>
<path d="M478.044 83.179C479.919 83.179 481.388 83.6263 482.453 84.5209C483.518 85.4013 484.051 86.6297 484.051 88.2059C484.051 89.768 483.518 90.9963 482.453 91.8909C481.388 92.7714 479.919 93.2116 478.044 93.2116H473.784V98.0894H472.698V83.179H478.044ZM478.044 92.2318C479.635 92.2318 480.849 91.8838 481.686 91.188C482.524 90.4922 482.943 89.4982 482.943 88.2059C482.943 86.9137 482.524 85.9197 481.686 85.2238C480.849 84.5138 479.635 84.1588 478.044 84.1588H473.784V92.2318H478.044Z" fill="#171717"/>
<path d="M497.775 88.6319C499.536 88.6319 500.87 89.0225 501.779 89.8035C502.702 90.5845 503.164 91.7418 503.164 93.2755C503.164 94.8517 502.674 96.0517 501.694 96.8753C500.728 97.6847 499.33 98.0894 497.498 98.0894H491.789V83.179H492.876V88.6319H497.775ZM497.519 97.1735C499.01 97.1735 500.139 96.8469 500.906 96.1937C501.673 95.5405 502.056 94.5748 502.056 93.2968C502.056 90.7975 500.544 89.5479 497.519 89.5479H492.876V97.1735H497.519ZM505.911 83.179H506.998V98.0894H505.911V83.179Z" fill="#171717"/>
<path fill-rule="evenodd" clip-rule="evenodd" d="M58.0927 0V21.6362L106.503 51.6659V38.7284C106.503 17.3393 89.1639 0 67.7748 0H58.0927ZM58.0927 30.7511L106.503 60.7808V70.2944L106.5 70.2922L58.0927 40.6552V30.7511ZM50.347 40.722V30.8073L0 61.3295V67.7748C0 68.8168 0.0411511 69.8492 0.121917 70.8704L50.347 40.722ZM1.843 79.6139L50.347 50.3218V106.503H38.7284C21.4685 106.503 6.84563 95.2124 1.843 79.6139ZM58.0927 50.2404L106.5 79.8775L106.503 79.8797V106.503H58.0927V50.2404ZM0 0V52.2716L50.347 21.7494V0H0Z" fill="#171717"/>
</svg>
