<svg width="15" height="16" viewBox="0 0 15 16" fill="none" xmlns="http://www.w3.org/2000/svg">
<path d="M14.5288 6.38266L8.56052 0.392592C8.30108 0.132089 8.03604 0 7.77271 0C7.40718 0 6.98043 0.27486 6.98043 1.04925V4.74257C5.15888 4.86708 3.46401 5.64399 2.16888 6.9573C0.770187 8.37571 0 10.256 0 12.2517C0 13.1113 0.143738 13.9555 0.427437 14.7609C0.489464 14.9371 0.655517 15.0549 0.841713 15.0549C1.02802 15.0549 1.19396 14.9371 1.2561 14.7609C2.1286 12.2834 4.39487 10.5564 6.98055 10.3514V14.0056C6.98055 14.78 7.4073 15.0548 7.77271 15.0548H7.77282C8.03604 15.0548 8.30108 14.9228 8.56052 14.6625L14.529 8.67216C14.8327 8.36721 14.9999 7.96072 14.9999 7.52735C14.9999 7.0941 14.8326 6.68749 14.5288 6.38266Z" fill="#FFB800"/>
</svg>
