<svg width="20" height="21" viewBox="0 0 20 21" fill="none" xmlns="http://www.w3.org/2000/svg">
<path fill-rule="evenodd" clip-rule="evenodd" d="M13.75 0.840332H6.25C2.79875 0.840332 0 3.63908 0 7.09033V14.5903C0 18.0416 2.79875 20.8403 6.25 20.8403H13.75C17.2013 20.8403 20 18.0416 20 14.5903V7.09033C20 3.63908 17.2013 0.840332 13.75 0.840332ZM18.125 14.5903C18.125 17.0028 16.1625 18.9653 13.75 18.9653H6.25C3.8375 18.9653 1.875 17.0028 1.875 14.5903V7.09033C1.875 4.67783 3.8375 2.71533 6.25 2.71533H13.75C16.1625 2.71533 18.125 4.67783 18.125 7.09033V14.5903ZM10 5.84033C7.23875 5.84033 5 8.07908 5 10.8403C5 13.6016 7.23875 15.8403 10 15.8403C12.7613 15.8403 15 13.6016 15 10.8403C15 8.07908 12.7613 5.84033 10 5.84033ZM10 13.9653C8.2775 13.9653 6.875 12.5628 6.875 10.8403C6.875 9.11658 8.2775 7.71533 10 7.71533C11.7225 7.71533 13.125 9.11658 13.125 10.8403C13.125 12.5628 11.7225 13.9653 10 13.9653ZM16.0408 5.46491C16.0408 5.83287 15.7425 6.13116 15.3746 6.13116C15.0066 6.13116 14.7083 5.83287 14.7083 5.46491C14.7083 5.09695 15.0066 4.79867 15.3746 4.79867C15.7425 4.79867 16.0408 5.09695 16.0408 5.46491Z" fill="white"/>
</svg>
