<svg width="20" height="19" viewBox="0 0 20 19" fill="none" xmlns="http://www.w3.org/2000/svg">
<path d="M0.353259 9.18997L4.96167 10.91L6.7454 16.6465C6.85953 17.0138 7.3088 17.1497 7.607 16.9058L10.1758 14.8117C10.4451 14.5923 10.8286 14.5814 11.11 14.7856L15.7432 18.1495C16.0622 18.3813 16.5141 18.2065 16.5941 17.8211L19.9882 1.49496C20.0756 1.0739 19.6618 0.722629 19.2609 0.877696L0.347859 8.17377C-0.118874 8.35377 -0.114808 9.01457 0.353259 9.18997ZM6.45793 9.99437L15.4645 4.44723C15.6263 4.34783 15.7929 4.5667 15.6539 4.69563L8.22087 11.605C7.9596 11.8482 7.79107 12.1736 7.74334 12.5269L7.49014 14.4033C7.4566 14.6538 7.10467 14.6787 7.03553 14.4362L6.06173 11.0146C5.9502 10.6243 6.11273 10.2074 6.45793 9.99437Z" fill="white"/>
</svg>
