<svg width="20" height="13" viewBox="0 0 20 13" fill="none" xmlns="http://www.w3.org/2000/svg">
<path d="M19.8939 11.1456C19.8697 11.0934 19.8471 11.0501 19.8262 11.0154C19.4792 10.3905 18.8161 9.62339 17.8372 8.71395L17.8166 8.69313L17.8062 8.68291L17.7957 8.67245H17.7852C17.341 8.24897 17.0597 7.96422 16.9419 7.81844C16.7263 7.54074 16.678 7.25965 16.7959 6.97484C16.8791 6.75965 17.1917 6.3052 17.733 5.61088C18.0178 5.24291 18.2433 4.94799 18.4098 4.7258C19.6109 3.12904 20.1316 2.10868 19.9719 1.66434L19.9098 1.5605C19.8681 1.49799 19.7606 1.4408 19.5872 1.38864C19.4134 1.3366 19.1914 1.32799 18.9206 1.36268L15.9216 1.38339C15.8731 1.36618 15.8037 1.36778 15.7133 1.38864C15.623 1.40951 15.5779 1.41997 15.5779 1.41997L15.5257 1.44605L15.4843 1.47738C15.4495 1.4981 15.4114 1.53453 15.3697 1.58662C15.3282 1.63852 15.2935 1.69943 15.2658 1.76883C14.9393 2.60883 14.5681 3.38981 14.1515 4.11175C13.8946 4.54223 13.6587 4.91531 13.4432 5.2312C13.2281 5.54698 13.0476 5.77963 12.9019 5.92877C12.756 6.07805 12.6244 6.19765 12.5061 6.28799C12.388 6.37837 12.2979 6.41655 12.2355 6.40258C12.173 6.38862 12.1141 6.37476 12.0583 6.3609C11.9612 6.29838 11.883 6.21337 11.8241 6.10577C11.765 5.99818 11.7252 5.86276 11.7043 5.69961C11.6836 5.53636 11.6714 5.39595 11.6679 5.27788C11.6646 5.15997 11.6661 4.99318 11.6732 4.77799C11.6804 4.5627 11.6836 4.41702 11.6836 4.34065C11.6836 4.07681 11.6888 3.79046 11.6991 3.48154C11.7096 3.17262 11.7181 2.92785 11.7252 2.74753C11.7323 2.56703 11.7356 2.37606 11.7356 2.17474C11.7356 1.97341 11.7233 1.81552 11.6991 1.70092C11.6752 1.58647 11.6384 1.47538 11.59 1.36767C11.5413 1.26008 11.4701 1.17685 11.3766 1.11776C11.2829 1.05875 11.1664 1.01192 11.0277 0.977126C10.6598 0.89386 10.1912 0.848816 9.62183 0.841814C8.33067 0.827954 7.50103 0.91133 7.1331 1.09183C6.98732 1.1681 6.8554 1.2723 6.73745 1.40411C6.61245 1.55689 6.59502 1.64027 6.68525 1.65398C7.10184 1.71639 7.39676 1.86567 7.57033 2.10168L7.63288 2.22675C7.68153 2.31698 7.73012 2.47673 7.77873 2.70577C7.82728 2.93482 7.85861 3.18819 7.87239 3.46575C7.90704 3.97261 7.90704 4.40648 7.87239 4.76742C7.83764 5.12849 7.80481 5.40959 7.77348 5.61091C7.74215 5.81224 7.69532 5.97538 7.63288 6.1003C7.57033 6.22526 7.52872 6.30163 7.50785 6.32935C7.48703 6.35707 7.46967 6.37454 7.45588 6.38139C7.36565 6.41597 7.2718 6.43359 7.17468 6.43359C7.0774 6.43359 6.95945 6.38493 6.82064 6.2877C6.68186 6.19046 6.53783 6.0569 6.38855 5.88679C6.23927 5.71665 6.07091 5.47888 5.88341 5.17346C5.69605 4.86804 5.50165 4.50708 5.30032 4.09056L5.13375 3.78849C5.02962 3.59417 4.88738 3.31122 4.70688 2.93989C4.52627 2.56842 4.36663 2.20909 4.22785 1.86198C4.17237 1.7162 4.08904 1.60522 3.97798 1.52885L3.92586 1.49752C3.89121 1.4698 3.83559 1.44036 3.75929 1.409C3.68288 1.37767 3.60315 1.3552 3.51977 1.34138L0.66657 1.36209C0.37501 1.36209 0.177183 1.42814 0.0730178 1.56007L0.0313298 1.62247C0.0105041 1.65723 0 1.71274 0 1.78915C0 1.86552 0.0208258 1.95926 0.0625138 2.07024C0.479029 3.04916 0.93198 3.99325 1.42137 4.90266C1.91075 5.81206 2.33602 6.54461 2.69692 7.09965C3.05789 7.65508 3.42582 8.1793 3.80072 8.67204C4.17562 9.16497 4.42378 9.48086 4.5452 9.61964C4.66676 9.75867 4.76224 9.86261 4.83165 9.93202L5.09203 10.1819C5.25863 10.3485 5.50329 10.5481 5.82611 10.7806C6.149 11.0133 6.50646 11.2423 6.89869 11.4681C7.29099 11.6936 7.74737 11.8775 8.26808 12.0198C8.78873 12.1622 9.29548 12.2194 9.7884 12.1918H10.9859C11.2288 12.1708 11.4128 12.0945 11.5379 11.9627L11.5793 11.9105C11.6072 11.869 11.6333 11.8047 11.6573 11.718C11.6817 11.6313 11.6938 11.5357 11.6938 11.4317C11.6867 11.1332 11.7094 10.8643 11.7613 10.6248C11.8132 10.3854 11.8724 10.2049 11.9386 10.0833C12.0047 9.96186 12.0793 9.85937 12.1624 9.77628C12.2456 9.69302 12.3049 9.64258 12.3397 9.62522C12.3743 9.60775 12.4019 9.59589 12.4227 9.58878C12.5893 9.53327 12.7854 9.58703 13.0112 9.75032C13.2369 9.91346 13.4485 10.1149 13.6465 10.3543C13.8444 10.5939 14.0821 10.8628 14.3597 11.1612C14.6375 11.4598 14.8804 11.6817 15.0886 11.8277L15.2968 11.9527C15.4358 12.036 15.6163 12.1124 15.8385 12.1818C16.0603 12.2512 16.2546 12.2686 16.4215 12.2339L19.0872 12.1923C19.3508 12.1923 19.556 12.1486 19.7015 12.062C19.8473 11.9752 19.9339 11.8797 19.9619 11.7757C19.9897 11.6716 19.9912 11.5535 19.9672 11.4214C19.9425 11.2897 19.9181 11.1977 19.8939 11.1456Z" fill="white"/>
</svg>
