<svg width="20" height="21" viewBox="0 0 20 21" fill="none" xmlns="http://www.w3.org/2000/svg">
<path d="M10.1668 0.840332C4.74443 0.840332 0.333432 5.25133 0.333432 10.6737C0.333432 12.389 0.782098 14.0743 1.6321 15.557L0.0170984 20.4017C-0.0215683 20.518 0.00643174 20.6457 0.0900984 20.735C0.154098 20.8033 0.242765 20.8403 0.333432 20.8403C0.361765 20.8403 0.390098 20.8367 0.418098 20.8293L5.7071 19.4377C7.0811 20.1377 8.6201 20.507 10.1668 20.507C15.5891 20.507 20.0001 16.096 20.0001 10.6737C20.0001 5.25133 15.5891 0.840332 10.1668 0.840332ZM16.3028 15.1387L15.7168 15.725C14.9768 16.465 14.1511 16.8403 13.2634 16.8403C12.0668 16.8403 10.7764 16.157 9.4291 14.8093L6.0311 11.4117C4.96843 10.349 4.31543 9.31667 4.0901 8.343C3.81677 7.16067 4.16177 6.07767 5.11577 5.124L5.7021 4.53767C6.0791 4.16067 6.68876 4.068 7.1611 4.318C8.04843 4.78767 8.96776 6.32633 9.06976 6.50033C9.25376 6.82267 9.3101 7.156 9.23076 7.44167C9.1701 7.66 9.03343 7.838 8.83476 7.959C8.56543 8.18433 8.24977 8.465 8.1941 8.53633C7.85543 9.036 7.8941 9.41967 8.33043 9.85633L10.9844 12.5103C11.4244 12.9507 11.8014 12.987 12.3091 12.643C12.3761 12.5907 12.6564 12.275 12.8818 12.0057C13.0501 11.7273 13.3258 11.575 13.6611 11.575C13.8808 11.575 14.1144 11.6417 14.3368 11.7683C14.5141 11.8727 16.0531 12.792 16.5224 13.679C16.7791 14.1643 16.6911 14.7503 16.3028 15.1387Z" fill="white"/>
</svg>
