<svg width="15" height="15" viewBox="0 0 15 15" fill="none" xmlns="http://www.w3.org/2000/svg">
<path d="M14.6637 11.8375L12.3472 9.52068C11.8858 9.06113 11.1217 9.07509 10.6442 9.55274L9.47715 10.7196C9.40342 10.6789 9.3271 10.6365 9.24686 10.5914C8.50987 10.1831 7.50117 9.62337 6.43972 8.56115C5.37513 7.49669 4.8149 6.48643 4.4053 5.74897C4.36207 5.67084 4.32066 5.59551 4.27976 5.52397L5.06304 4.74186L5.44813 4.3563C5.92634 3.87796 5.93953 3.11407 5.4792 2.65318L3.16268 0.336151C2.70235 -0.124093 1.93791 -0.110131 1.45969 0.368212L0.80682 1.02484L0.824661 1.04255C0.605744 1.32188 0.42281 1.64405 0.286676 1.99148C0.161186 2.32218 0.0830571 2.63776 0.0473322 2.95398C-0.258549 5.4898 0.900248 7.80735 4.04507 10.9522C8.39218 15.299 11.8954 14.9706 12.0465 14.9546C12.3757 14.9153 12.6911 14.8366 13.0117 14.7121C13.3561 14.5776 13.678 14.3949 13.9572 14.1765L13.9715 14.1891L14.6329 13.5415C15.1101 13.0632 15.1238 12.2991 14.6637 11.8375Z" fill="#FF005C"/>
</svg>
