<svg width="82" height="13" viewBox="0 0 82 13" fill="none" xmlns="http://www.w3.org/2000/svg">
<path d="M81.1494 5.24825L81.1495 5.24819C81.2672 5.13346 81.3081 4.96861 81.2571 4.8114L81.7327 4.65711M81.1494 5.24825L77.5508 3.34882M81.1494 5.24825L78.8873 7.45347L78.8871 7.45365C78.6737 7.66194 78.5749 7.96227 78.6256 8.25798M81.1494 5.24825L78.6256 8.25798M81.7327 4.65711L81.2572 4.81173C81.2062 4.65482 81.0764 4.5454 80.913 4.52156C80.913 4.52155 80.913 4.52154 80.9129 4.52154L77.7866 4.06727L77.7864 4.06725C77.4907 4.02419 77.2346 3.83855 77.1022 3.56973M81.7327 4.65711C81.8423 4.99505 81.7526 5.35858 81.4984 5.60627M81.7327 4.65711C81.6228 4.31918 81.3366 4.07795 80.9849 4.02675L81.4984 5.60627M77.1022 3.56973L77.5508 3.34882M77.1022 3.56973L77.1024 3.57007L77.5508 3.34882M77.1022 3.56973L75.7047 0.737324L75.7046 0.737204C75.632 0.58997 75.4875 0.5 75.3226 0.5C75.158 0.5 75.0134 0.589899 74.9408 0.737204L74.9407 0.737341L73.5429 3.56999M77.5508 3.34882L76.153 0.516078C75.9961 0.197795 75.6776 0 75.3226 0C74.9678 0 74.6493 0.197795 74.4923 0.516078L73.0943 3.34908M73.5429 3.56999L73.0943 3.34908M73.5429 3.56999L73.5427 3.57034L73.0943 3.34908M73.5429 3.56999C73.4103 3.8392 73.1537 4.02451 72.8584 4.06751L72.8583 4.06753L69.7318 4.52182L69.7317 4.52184C69.5688 4.54544 69.4388 4.65489 69.3877 4.81199L68.9122 4.65737M73.0943 3.34908C73.0349 3.46982 72.9195 3.55334 72.7864 3.57273L69.6599 4.02701M81.4984 5.60627L79.2363 7.8115C79.1399 7.90561 79.0957 8.04084 79.1184 8.17348M81.4984 5.60627L78.6256 8.25798M69.6599 4.02701L71.5264 8.17348M69.6599 4.02701C69.3085 4.07795 69.0221 4.31944 68.9122 4.65737M69.6599 4.02701L71.4085 7.8115L69.1464 5.60653C68.8923 5.35883 68.8026 4.9953 68.9122 4.65737M68.9122 4.65737L69.3878 4.81166C69.3368 4.96887 69.3777 5.13372 69.4954 5.24845L69.4954 5.24848L71.7575 7.45345L71.7577 7.45365C71.9712 7.66197 72.07 7.96265 72.0192 8.25817M72.0192 8.25817L71.5264 8.17348M72.0192 8.25817L72.0193 8.25794L71.5264 8.17348M72.0192 8.25817L71.4856 11.3715L71.4855 11.3721C71.463 11.5021 71.4957 11.6192 71.5769 11.7154L71.5773 11.716C71.7038 11.8663 71.9298 11.9118 72.1035 11.8205L72.3362 12.2631C71.9515 12.4653 71.4703 12.3654 71.1947 12.0379C71.0173 11.8277 70.9455 11.5611 70.9928 11.287L71.5264 8.17348M79.1184 8.17348L78.6256 8.25801L79.1595 11.3715L79.1597 11.3722C79.1821 11.502 79.1495 11.6193 79.0685 11.7151L79.068 11.7157C78.9834 11.8161 78.8635 11.8709 78.7399 11.8709C78.6732 11.8709 78.608 11.8553 78.5421 11.8207L78.5418 11.8205L75.7455 10.3503L75.7439 10.3495C75.4836 10.2139 75.1635 10.212 74.9001 10.3501L74.8996 10.3504L72.1036 11.8205L79.4504 12.0379C79.628 11.8277 79.6997 11.5606 79.6523 11.287L79.1184 8.17348ZM79.1184 8.17348L78.6256 8.25798" stroke="#FFB800"/>
<path d="M63.9326 5.24825L63.9327 5.24819C64.0504 5.13346 64.0913 4.96861 64.0403 4.8114L64.5159 4.65711M63.9326 5.24825L60.334 3.34882M63.9326 5.24825L61.6705 7.45347L61.6703 7.45365C61.4569 7.66194 61.3581 7.96227 61.4088 8.25798M63.9326 5.24825L61.4088 8.25798M64.5159 4.65711L64.0404 4.81173C63.9894 4.65482 63.8596 4.5454 63.6962 4.52156C63.6962 4.52155 63.6962 4.52154 63.6961 4.52154L60.5698 4.06727L60.5696 4.06725C60.2739 4.02419 60.0178 3.83855 59.8855 3.56973M64.5159 4.65711C64.6255 4.99505 64.5358 5.35858 64.2816 5.60627M64.5159 4.65711C64.406 4.31918 64.1198 4.07795 63.7681 4.02675L64.2816 5.60627M59.8855 3.56973L60.334 3.34882M59.8855 3.56973L59.8856 3.57007L60.334 3.34882M59.8855 3.56973L58.4879 0.737324L58.4878 0.737204C58.4152 0.58997 58.2707 0.5 58.1058 0.5C57.9412 0.5 57.7966 0.589899 57.724 0.737204L57.7239 0.737341L56.3261 3.56999M60.334 3.34882L58.9362 0.516078C58.7793 0.197795 58.4608 0 58.1058 0C57.751 0 57.4325 0.197795 57.2755 0.516078L55.8775 3.34908M56.3261 3.56999L55.8775 3.34908M56.3261 3.56999L56.3259 3.57034L55.8775 3.34908M56.3261 3.56999C56.1935 3.8392 55.9369 4.02451 55.6416 4.06751L55.6415 4.06753L52.515 4.52182L52.5149 4.52184C52.352 4.54544 52.222 4.65489 52.1709 4.81199L51.6954 4.65737M55.8775 3.34908C55.8181 3.46982 55.7027 3.55334 55.5696 3.57273L52.4431 4.02701M64.2816 5.60627L62.0195 7.8115C61.9231 7.90561 61.8789 8.04084 61.9016 8.17348M64.2816 5.60627L61.4088 8.25798M52.4431 4.02701L54.3096 8.17348M52.4431 4.02701C52.0917 4.07795 51.8053 4.31944 51.6954 4.65737M52.4431 4.02701L54.1917 7.8115L51.9296 5.60653C51.6755 5.35883 51.5858 4.9953 51.6954 4.65737M51.6954 4.65737L52.171 4.81166C52.12 4.96887 52.1609 5.13372 52.2786 5.24845L52.2786 5.24848L54.5407 7.45345L54.541 7.45365C54.7544 7.66197 54.8532 7.96265 54.8024 8.25817M54.8024 8.25817L54.3096 8.17348M54.8024 8.25817L54.8025 8.25794L54.3096 8.17348M54.8024 8.25817L54.2688 11.3715L54.2687 11.3721C54.2462 11.5021 54.2789 11.6192 54.3601 11.7154L54.3605 11.716C54.487 11.8663 54.713 11.9118 54.8867 11.8205L55.1194 12.2631C54.7347 12.4653 54.2535 12.3654 53.9779 12.0379C53.8005 11.8277 53.7287 11.5611 53.776 11.287L54.3096 8.17348M61.9016 8.17348L61.4088 8.25801L61.9427 11.3715L61.9429 11.3722C61.9653 11.502 61.9327 11.6193 61.8517 11.7151L61.8512 11.7157C61.7666 11.8161 61.6467 11.8709 61.5231 11.8709C61.4564 11.8709 61.3912 11.8553 61.3253 11.8207L61.325 11.8205L58.5287 10.3503L58.5271 10.3495C58.2668 10.2139 57.9467 10.212 57.6833 10.3501L57.6828 10.3504L54.8868 11.8205L62.2336 12.0379C62.4112 11.8277 62.4829 11.5606 62.4355 11.287L61.9016 8.17348ZM61.9016 8.17348L61.4088 8.25798" stroke="#FFB800"/>
<path d="M47.0658 5.60627C47.32 5.35858 47.4097 4.99505 47.3001 4.65711C47.1902 4.31918 46.904 4.07795 46.5523 4.02675L43.4259 3.57247C43.2927 3.55308 43.1777 3.46956 43.1182 3.34882L41.7204 0.516078C41.5635 0.197795 41.2449 0 40.8899 0C40.5352 0 40.2167 0.197795 40.0597 0.516078L38.6617 3.34908C38.6022 3.46982 38.4869 3.55334 38.3538 3.57273L35.2273 4.02701C34.8759 4.07795 34.5894 4.31944 34.4796 4.65737C34.3699 4.9953 34.4597 5.35883 34.7138 5.60653L36.9759 7.8115C37.0724 7.90561 37.1166 8.0411 37.0938 8.17348L36.5602 11.287C36.5128 11.5611 36.5847 11.8277 36.7621 12.0379C37.0377 12.3654 37.5189 12.4653 37.9036 12.2631L40.6996 10.7929C40.8165 10.7316 40.9636 10.7321 41.0802 10.7929L43.8765 12.2631C44.0125 12.3347 44.1576 12.3709 44.3073 12.3709C44.5806 12.3709 44.8396 12.2494 45.0178 12.0379C45.1954 11.8277 45.267 11.5606 45.2197 11.287L44.6858 8.17348C44.6631 8.04084 44.7073 7.90561 44.8037 7.8115L47.0658 5.60627Z" fill="#FFB800"/>
<path d="M29.849 5.60627C30.1032 5.35858 30.1929 4.99505 30.0833 4.65711C29.9734 4.31918 29.6872 4.07795 29.3355 4.02675L26.2091 3.57247C26.0759 3.55308 25.9609 3.46956 25.9014 3.34882L24.5036 0.516078C24.3467 0.197795 24.0281 0 23.6731 0C23.3184 0 22.9999 0.197795 22.8429 0.516078L21.4449 3.34908C21.3854 3.46982 21.2701 3.55334 21.137 3.57273L18.0105 4.02701C17.6591 4.07795 17.3727 4.31944 17.2628 4.65737C17.1531 4.9953 17.2429 5.35883 17.497 5.60653L19.7591 7.8115C19.8556 7.90561 19.8998 8.0411 19.877 8.17348L19.3434 11.287C19.2961 11.5611 19.3679 11.8277 19.5453 12.0379C19.8209 12.3654 20.3021 12.4653 20.6868 12.2631L23.4829 10.7929C23.5997 10.7316 23.7468 10.7321 23.8634 10.7929L26.6597 12.2631C26.7957 12.3347 26.9408 12.3709 27.0905 12.3709C27.3638 12.3709 27.6229 12.2494 27.801 12.0379C27.9786 11.8277 28.0502 11.5606 28.0029 11.287L27.469 8.17348C27.4463 8.04084 27.4905 7.90561 27.5869 7.8115L29.849 5.60627Z" fill="#FFB800"/>
<path d="M12.6322 5.60627C12.8864 5.35858 12.9761 4.99505 12.8665 4.65711C12.7566 4.31918 12.4704 4.07795 12.1187 4.02675L8.99227 3.57247C8.85911 3.55308 8.74406 3.46956 8.68459 3.34882L7.28683 0.516078C7.12989 0.197795 6.81135 0 6.45635 0C6.10161 0 5.78307 0.197795 5.62613 0.516078L4.22811 3.34908C4.16865 3.46982 4.05333 3.55334 3.92017 3.57273L0.793714 4.02701C0.442336 4.07795 0.155856 4.31944 0.0459693 4.65737C-0.0636585 4.9953 0.0260605 5.35883 0.280221 5.60653L2.54233 7.8115C2.63877 7.90561 2.68298 8.0411 2.66023 8.17348L2.12657 11.287C2.07925 11.5611 2.15113 11.8277 2.3285 12.0379C2.60412 12.3654 3.0853 12.4653 3.47003 12.2631L6.26605 10.7929C6.38292 10.7316 6.53004 10.7321 6.64665 10.7929L9.44293 12.2631C9.57893 12.3347 9.72398 12.3709 9.87369 12.3709C10.147 12.3709 10.4061 12.2494 10.5842 12.0379C10.7618 11.8277 10.8334 11.5606 10.7861 11.287L10.2522 8.17348C10.2295 8.04084 10.2737 7.90561 10.3701 7.8115L12.6322 5.60627Z" fill="#FFB800"/>
</svg>
