<svg width="15" height="15" viewBox="0 0 15 15" fill="none" xmlns="http://www.w3.org/2000/svg">
<path d="M7.49985 0C3.35782 0 0 3.35792 0 7.4998C0 11.6417 3.35782 15 7.4998 15C11.6418 15 14.9999 11.6418 14.9999 7.4998C14.9999 3.35777 11.6418 0 7.49985 0ZM8.01775 8.41691C8.01735 8.43661 8.0144 8.45631 8.01165 8.47606C8.0097 8.49086 8.0088 8.50601 8.00545 8.52056C8.0021 8.53571 7.99635 8.55066 7.99145 8.56581C7.9856 8.58411 7.98015 8.60236 7.9725 8.61961C7.97105 8.62261 7.97055 8.62581 7.96925 8.62881C7.95795 8.65291 7.94485 8.67551 7.9305 8.69691C7.9296 8.69821 7.9284 8.69951 7.9275 8.70081C7.91115 8.72481 7.8925 8.74661 7.8729 8.76706C7.86745 8.77266 7.8619 8.77771 7.85615 8.78301C7.8389 8.79946 7.82075 8.81451 7.80145 8.82826C7.7955 8.83256 7.7898 8.83706 7.78355 8.84121C7.7588 8.85741 7.73285 8.87166 7.70585 8.88336C7.7 8.88596 7.6939 8.88751 7.68795 8.88986C7.66515 8.89866 7.64205 8.90596 7.6182 8.91151C7.60965 8.91356 7.6012 8.91541 7.5925 8.91696C7.5619 8.92256 7.5309 8.92641 7.4995 8.92641C7.49315 8.92641 7.48665 8.92446 7.4803 8.92421C7.4502 8.92306 7.4204 8.92071 7.39175 8.91461C7.3828 8.91266 7.374 8.90876 7.36505 8.90631C7.33835 8.89906 7.31225 8.89101 7.28735 8.87986C7.2845 8.87841 7.2815 8.87816 7.27865 8.87686L4.40288 7.5204C4.14378 7.39825 4.03278 7.0891 4.15493 6.83C4.27708 6.57104 4.58623 6.45989 4.84533 6.58204L6.98115 7.58925V3.11247C6.98115 2.82602 7.2134 2.59377 7.49985 2.59377C7.7863 2.59377 8.01855 2.82602 8.01855 3.11247V8.40756H8.01865C8.01865 8.41066 8.01775 8.41376 8.01775 8.41691Z" fill="#FFB800"/>
</svg>
