<svg width="15" height="15" viewBox="0 0 15 15" fill="none" xmlns="http://www.w3.org/2000/svg">
<g clip-path="url(#clip0_277_28)">
<path d="M10.395 7.86964H10.282C10.1054 6.84456 10.0769 5.79281 9.46474 5.19241C8.865 4.60438 8.08075 4.42244 7.56043 3.94653V3.72376C7.60811 3.70092 7.64134 3.65264 7.64134 3.59637C7.64134 3.5401 7.60811 3.49173 7.56043 3.46894V3.37421C7.57283 3.35997 7.58061 3.34159 7.58061 3.32122C7.58061 3.27649 7.49971 3.04602 7.49971 3.04602C7.49971 3.04602 7.41877 3.27649 7.41877 3.32122C7.41877 3.34159 7.42658 3.36001 7.43902 3.37425V3.46894C7.39135 3.49177 7.35804 3.5401 7.35804 3.59641C7.35804 3.65268 7.39131 3.701 7.43902 3.7238V3.94653C6.91863 4.42244 6.13437 4.60442 5.53471 5.19241C4.92249 5.79281 4.89409 6.84456 4.71743 7.86964H4.60445L4.41016 8.37141H10.5893L10.395 7.86964Z" fill="#15CD80"/>
<path d="M1.17578 8.76282V15H5.65664V11.6602C5.65664 10.8464 7.49801 10.313 7.49801 10.313C7.49801 10.313 9.33954 10.8464 9.33954 11.6602V15H13.8204V8.76282H1.17578Z" fill="#15CD80"/>
<path d="M11.8418 8.35817H13.5181V6.29501H13.6764V5.77924H13.3599V3.77467H13.6764V3.2589H13.1775V1.95151C13.1775 1.71163 13.0078 1.51149 12.7819 1.46447V1.13845C12.8621 1.10019 12.9177 1.01855 12.9177 0.923939C12.9177 0.829329 12.862 0.747692 12.7819 0.70943V0.550943C12.8027 0.527086 12.8158 0.49619 12.8158 0.461939C12.8158 0.38689 12.6799 -6.10352e-05 12.6799 -6.10352e-05C12.6799 -6.10352e-05 12.5441 0.38689 12.5441 0.461939C12.5441 0.496149 12.5572 0.527045 12.5781 0.550943V0.70939C12.4979 0.747651 12.4422 0.829289 12.4422 0.923898C12.4422 1.01851 12.4979 1.10019 12.5781 1.13841V1.46439C12.3522 1.5114 12.1824 1.71151 12.1824 1.95143V3.25878H11.6836V3.77455H12.0001V5.77911H11.6836V6.29489H11.8418V8.35817H11.8418Z" fill="#15CD80"/>
<path d="M1.47855 8.35814H3.15489V6.29498H3.31313V5.77921H2.99665V3.77464H3.31313V3.25888H2.8143V1.95149C2.8143 1.71161 2.64456 1.51146 2.41864 1.46444V1.13843C2.4988 1.10016 2.5545 1.01853 2.5545 0.923917C2.5545 0.829307 2.4988 0.74767 2.41864 0.709408V0.550921C2.43951 0.527064 2.4526 0.496168 2.4526 0.461917C2.4526 0.38695 2.31666 0 2.31666 0C2.31666 0 2.18084 0.38695 2.18084 0.461999C2.18084 0.496209 2.19394 0.527105 2.21481 0.551003V0.709449C2.13464 0.74771 2.07895 0.829348 2.07895 0.923958C2.07895 1.01857 2.13464 1.10025 2.21481 1.13847V1.46444C1.98888 1.51146 1.81914 1.71157 1.81914 1.95149V3.25883H1.32031V3.7746H1.6368V5.77917H1.32031V6.29493H1.47855V8.35814Z" fill="#15CD80"/>
</g>
<defs>
<clipPath id="clip0_277_28">
<rect width="15" height="15" fill="white"/>
</clipPath>
</defs>
</svg>
