<svg width="30" height="30" viewBox="0 0 30 30" fill="none" xmlns="http://www.w3.org/2000/svg">
<g clip-path="url(#clip0_328_679)">
<path d="M24.5437 12.9571C24.5375 12.9571 24.5344 12.9571 24.5281 12.9571C24.2866 9.14085 21.1133 6.12109 17.2374 6.12109C13.6595 6.12109 10.6836 8.69243 10.0533 12.0854C9.97176 12.0822 9.88712 12.0791 9.80559 12.0791C7.14018 12.0791 4.89182 13.8445 4.15805 16.2685C4.04516 16.2591 3.92914 16.2528 3.81311 16.2528C1.709 16.2528 0 17.9587 0 20.0659C0 22.1732 1.70587 23.8791 3.80998 23.8791C3.84133 23.8791 24.5406 23.8791 24.5406 23.8791C27.5573 23.8791 30 21.4332 30 18.4196C30 15.4061 27.5604 12.9571 24.5437 12.9571Z" fill="white"/>
</g>
<defs>
<clipPath id="clip0_328_679">
<rect width="30" height="30" fill="white"/>
</clipPath>
</defs>
</svg>
