<svg width="28" height="30" viewBox="0 0 28 30" fill="none" xmlns="http://www.w3.org/2000/svg">
<path d="M22.1709 2.77459C21.7608 2.77459 21.3741 2.86766 21.0236 3.02587C20.3231 1.62943 18.882 0.668123 17.213 0.668123C16.1275 0.668123 15.1395 1.07716 14.3866 1.74528C13.1206 0.664219 11.4482 0 9.6088 0C5.71468 0 2.55449 2.94953 2.47424 6.61521C1.01422 7.29283 0 8.7673 0 10.482C0 12.4636 1.35361 14.1253 3.18584 14.6034L22.9165 14.7389C25.1996 14.657 27.0269 12.7851 27.0269 10.482C27.0269 8.83753 26.0952 7.41317 24.7315 6.70157C24.8836 6.35606 24.9717 5.97657 24.9717 5.57482C24.9717 4.02838 23.7179 2.77459 22.1709 2.77459Z" fill="white" fill-opacity="0.9"/>
<path d="M6.77739 21.6995C7.27278 20.7416 7.3324 16.3755 7.3324 16.3755C7.3324 16.3755 3.80384 18.9478 3.30844 19.9057C2.81305 20.8636 3.18811 22.0416 4.14603 22.537C5.10396 23.0324 6.28199 22.6574 6.77739 21.6995Z" fill="white" fill-opacity="0.9"/>
<path d="M14.0196 21.6995C14.515 20.7416 14.5746 16.3755 14.5746 16.3755C14.5746 16.3755 11.046 18.9478 10.5506 19.9057C10.0552 20.8636 10.4303 22.0416 11.3882 22.537C12.3461 23.0324 13.5242 22.6574 14.0196 21.6995Z" fill="white" fill-opacity="0.9"/>
<path d="M19.1929 22.537C20.1508 23.0324 21.3288 22.6574 21.8242 21.6995C22.3196 20.7416 22.3792 16.3755 22.3792 16.3755C22.3792 16.3755 18.8507 18.9478 18.3553 19.9057C17.86 20.8637 18.235 22.0416 19.1929 22.537Z" fill="white" fill-opacity="0.9"/>
<path d="M5.82181 29.7812C6.77974 30.2766 7.95777 29.9015 8.45316 28.9436C8.94856 27.9857 9.00817 23.6196 9.00817 23.6196C9.00817 23.6196 5.47968 26.192 4.98422 27.1498C4.48883 28.1077 4.86389 29.2858 5.82181 29.7812Z" fill="white" fill-opacity="0.9"/>
<path d="M13.064 29.7812C14.0219 30.2766 15.1999 29.9015 15.6953 28.9436C16.1907 27.9857 16.2504 23.6196 16.2504 23.6196C16.2504 23.6196 12.7218 26.192 12.2264 27.1498C11.731 28.1077 12.106 29.2858 13.064 29.7812Z" fill="white" fill-opacity="0.9"/>
</svg>
