<svg width="30" height="30" viewBox="0 0 30 30" fill="none" xmlns="http://www.w3.org/2000/svg">
<g clip-path="url(#clip0_328_477)">
<path d="M15 23.7121C10.1885 23.7121 6.288 19.8115 6.288 15C6.288 10.1885 10.1885 6.28788 15 6.28788C19.8118 6.28788 23.7124 10.1885 23.7124 15C23.7124 19.8115 19.8118 23.7121 15 23.7121ZM25.4969 17.5L30 15L25.4969 12.5V17.5ZM4.50313 12.5L0 15L4.50313 17.5V12.5ZM15 30L17.5 25.4969H12.5L15 30ZM15 0L12.5 4.50313H17.5L15 0ZM5.81012 20.6548L4.3935 25.6066L9.3455 24.1904L5.81012 20.6548ZM20.6548 5.80963L24.1901 9.34525L25.6066 4.39362L20.6548 5.80963ZM4.3935 4.3935L5.81 9.34525L9.34538 5.80963L4.3935 4.3935ZM20.6548 24.1904L25.6066 25.6066L24.1901 20.6548L20.6548 24.1904Z" fill="white"/>
</g>
<defs>
<clipPath id="clip0_328_477">
<rect width="30" height="30" fill="white"/>
</clipPath>
</defs>
</svg>
