<svg width="30" height="20" viewBox="0 0 30 20" fill="none" xmlns="http://www.w3.org/2000/svg">
<path d="M2.84954 9.43408L0.484375 11.4532L3.5908 11.3311C3.41665 11.0431 3.26557 10.738 3.1398 10.4157C3.01328 10.0912 2.91727 9.76527 2.84954 9.43408Z" fill="white"/>
<path d="M13.5955 6.32162C13.6327 6.41911 13.6618 6.51512 13.6938 6.60964C13.8396 6.17352 14.0294 5.75749 14.2549 5.3623L13.1445 5.40621C13.3172 5.69498 13.4683 5.99937 13.5955 6.32162Z" fill="white"/>
<path d="M12.6085 4.68665L13.6474 1.75586L11.0195 3.4155C11.3135 3.57848 11.5971 3.76603 11.868 3.98409C12.1381 4.19992 12.3867 4.43658 12.6085 4.68665Z" fill="white"/>
<path d="M10.2023 3.05805L9.63894 0L8.19141 2.75292C8.52631 2.74547 8.86791 2.7678 9.211 2.8199C9.5541 2.87199 9.88528 2.95237 10.2023 3.05805Z" fill="white"/>
<path d="M6.3202 3.14298C6.64245 3.01646 6.97066 2.91897 7.29886 2.85199L5.28125 0.486816L5.40479 3.59473C5.69132 3.42207 5.99795 3.2695 6.3202 3.14298Z" fill="white"/>
<path d="M3.98214 4.8664C4.19945 4.59326 4.43314 4.34767 4.68469 4.12365L1.75391 3.08545L3.41429 5.71333C3.57653 5.42011 3.76631 5.13507 3.98214 4.8664Z" fill="white"/>
<path d="M2.81766 7.5265C2.86976 7.18341 2.95088 6.85222 3.05582 6.53369L0 7.09931L2.75143 8.54535C2.74473 8.21119 2.76631 7.86959 2.81766 7.5265Z" fill="white"/>
<path d="M6.62335 11.3667C7.33707 11.3667 7.30581 11.5327 7.30581 11.3667C7.30581 9.17646 9.08229 7.39998 11.2718 7.39998C11.8196 7.39998 12.339 7.51756 12.8139 7.71851C12.537 5.81178 11.0456 4.22955 9.0421 3.92739C6.58911 3.55527 4.29762 5.24319 3.9255 7.69469C3.70075 9.18762 4.24106 10.621 5.24949 11.596C5.68189 11.4501 6.14257 11.3667 6.62335 11.3667Z" fill="white"/>
<path d="M25.5046 9.69641C25.4145 6.46495 22.7658 3.87354 19.5113 3.87354C16.4398 3.87354 13.9064 6.18438 13.5581 9.16279C13.0349 8.83459 12.418 8.64555 11.7571 8.64555C9.88386 8.64555 8.36637 10.163 8.36637 12.0355C8.36637 12.1777 8.39317 12.0355 7.7829 12.0355C5.77049 12.0355 4.14062 13.6676 4.14062 15.6785C4.14062 17.5116 5.49513 19.0276 7.25673 19.2821C7.39515 19.3082 7.53656 19.3216 7.68168 19.3216H24.8675C24.9285 19.3216 24.9479 19.3156 24.9501 19.3097C25.0275 19.3141 25.1012 19.3216 25.1801 19.3216C27.8414 19.3216 29.9997 17.1633 29.9997 14.5012C29.9997 11.9485 28.0163 9.86535 25.5046 9.69641Z" fill="white"/>
</svg>
