<svg width="16" height="15" viewBox="0 0 16 15" fill="none" xmlns="http://www.w3.org/2000/svg">
<path fill-rule="evenodd" clip-rule="evenodd" d="M11.1318 3.93644C11.1318 6.11048 9.62593 7.87291 7.76859 7.87291C5.91114 7.87291 4.40544 6.11048 4.4054 3.93644C4.4054 0.921632 5.9111 0 7.76859 0C9.626 0 11.1318 0.921632 11.1318 3.93644ZM13.4984 9.8446L15.1952 13.6669C15.3122 13.9303 15.2881 14.2319 15.131 14.4735C14.974 14.7152 14.708 14.8595 14.4198 14.8595H1.11729C0.829034 14.8595 0.563176 14.7152 0.406088 14.4736C0.248927 14.2319 0.224951 13.9304 0.341933 13.6669L2.0387 9.8446C2.11639 9.66962 2.25258 9.52463 2.42235 9.43628L5.05545 8.06549C5.11352 8.03532 5.18384 8.04118 5.23619 8.0807C5.98097 8.64402 6.85659 8.94177 7.76858 8.94177C8.68043 8.94177 9.55612 8.64402 10.3009 8.0807C10.3531 8.04118 10.4234 8.03532 10.4815 8.06549L13.1148 9.43628C13.2845 9.52463 13.4208 9.66969 13.4984 9.8446Z" fill="#FFB800"/>
</svg>
