<svg width="30" height="30" viewBox="0 0 30 30" fill="none" xmlns="http://www.w3.org/2000/svg">
<path d="M21.3052 25.2806H20.9585C20.4163 22.1346 20.329 18.9068 18.4502 17.0643C16.6098 15.2596 14.2028 14.7012 12.6058 13.2405V12.5569C12.7521 12.4869 12.8541 12.3386 12.8541 12.1659C12.8541 11.9931 12.7521 11.8448 12.6058 11.7747V11.4841C12.644 11.4404 12.6679 11.3839 12.6679 11.3214C12.6679 11.1843 12.4196 10.4769 12.4196 10.4769C12.4196 10.4769 12.1712 11.1843 12.1712 11.3214C12.1712 11.384 12.1951 11.4405 12.2333 11.4842V11.7747C12.0869 11.8447 11.9849 11.9931 11.9849 12.1659C11.9849 12.3387 12.087 12.4869 12.2333 12.557V13.2405C10.6364 14.7012 8.22924 15.2596 6.38887 17.0643C4.51001 18.9069 4.42267 22.1347 3.88053 25.2807H3.53364L2.9375 26.8208H21.9014L21.3052 25.2806ZM6.3767 25.2186H5.70333V24.2498H6.3767V25.2186ZM8.5031 25.2186H7.82981V24.2498H8.5031V25.2186ZM10.6296 25.2186H9.9563V24.2498H10.6296V25.2186ZM12.7562 25.2186H12.0828V24.2498H12.7562V25.2186ZM14.8826 25.2186H14.2092V24.2498H14.8826V25.2186ZM17.009 25.2186H16.3357V24.2498H17.009V25.2186ZM19.1355 25.2186H18.4621V24.2498H19.1355V25.2186Z" fill="#FFB800"/>
<path d="M26.4132 19.3495V18.6155L25.6113 17.9159L24.5869 18.8103L23.5621 17.916L22.7619 18.6146V19.3495H21.4579V21.7836H22.4003V27.6156H2.28125V30.0001H22.4004H22.5681H26.7745V21.7837H27.7173V19.3496H26.4132V19.3495ZM25.4673 27.2264H23.7079V24.8413H23.9513V23.9027L24.5876 23.2772L25.224 23.9027V24.8413H25.4674V27.2264H25.4673Z" fill="#FFB800"/>
<path d="M23.558 15.904L22.7578 16.6025V18.12L23.558 17.4214L24.5828 18.3157L25.6071 17.4214L26.4091 18.1211V16.6034L25.6072 15.9039L24.5828 16.7982L23.558 15.904Z" fill="#FFB800"/>
<path d="M22.2109 13.711L22.7639 15.4311V16.1079L23.5641 15.4095L24.5888 16.3036L25.6132 15.4095L26.4151 16.1091V15.4307L26.9681 13.711H26.4151V6.78677L26.9681 5.06709H25.499V3.56734C25.499 3.12891 25.1887 2.763 24.7758 2.67703V2.08003C24.9221 2.01 25.0242 1.86171 25.0242 1.68909C25.0242 1.51629 24.9221 1.368 24.7758 1.29789V1.00723C24.814 0.9636 24.8379 0.907029 24.8379 0.844457C24.8379 0.707314 24.5895 0 24.5895 0C24.5895 0 24.3412 0.7074 24.3412 0.844457C24.3412 0.907114 24.3651 0.9636 24.4033 1.00723V1.29797C24.2569 1.368 24.1549 1.51629 24.1549 1.68909C24.1549 1.8618 24.2569 2.01 24.4033 2.08003V2.67703C23.9903 2.763 23.68 3.12883 23.68 3.56734V5.06709H22.2109L22.7639 6.7872V13.7109H22.2109V13.711ZM24.0915 7.74086H24.2293V7.2096L24.5895 6.85551L24.9496 7.2096V7.74086H25.0873V9.09103H24.0914V7.74086H24.0915ZM24.0915 10.9449H24.2293V10.4139L24.5895 10.0597L24.9496 10.4139V10.9449H25.0873V12.2951H24.0914V10.9449H24.0915Z" fill="#FFB800"/>
</svg>
