<svg width="30" height="26" viewBox="0 0 30 26" fill="none" xmlns="http://www.w3.org/2000/svg">
<path d="M29.7742 8.15859L12.779 0.0397516C12.5815 -0.0557546 12.3427 0.0268016 12.2496 0.22348L8.55078 7.96515H10.5661L13.2808 2.27686L28.0154 9.31518L23.4077 18.9589L20.8136 17.7205V22.8188L22.4089 23.5804C22.608 23.6767 22.8435 23.5901 22.9382 23.3926L29.962 8.68549C30.0575 8.48962 29.9733 8.25247 29.7742 8.15859Z" fill="#FFB800"/>
<path d="M19.234 8.89999H0.398212C0.180491 8.89999 0 9.07725 0 9.29497V25.595C0 25.8135 0.180491 25.9924 0.398212 25.9924H19.2332C19.4525 25.9924 19.6314 25.8135 19.6314 25.595V9.29497C19.6322 9.07725 19.4533 8.89999 19.234 8.89999ZM18.1462 21.3919H16.9524C16.2571 19.6088 15.4016 17.1127 14.1025 17.4462C12.5801 17.8347 11.8201 21.3919 11.8201 21.3919C11.8201 21.3919 11.0407 17.3782 8.8926 15.2293C6.74371 13.0804 4.662 21.3919 4.662 21.3919H1.81786V10.7025H18.1462V21.3919Z" fill="#FFB800"/>
<path d="M4.45332 14.3284C5.18909 14.3284 5.78555 13.732 5.78555 12.9962C5.78555 12.2604 5.18909 11.664 4.45332 11.664C3.71755 11.664 3.12109 12.2604 3.12109 12.9962C3.12109 13.732 3.71755 14.3284 4.45332 14.3284Z" fill="#FFB800"/>
<path d="M13.3927 13.9367C13.6913 13.9367 13.9714 13.9052 14.2207 13.8558C14.5112 13.9788 14.8657 14.0541 15.2469 14.0541C16.2303 14.0541 17.0251 13.5741 17.0251 12.9817C17.0251 12.3908 16.2303 11.9109 15.2469 11.9109C14.8787 11.9109 14.5371 11.978 14.2538 12.0954C14.1365 11.9813 13.9803 11.9109 13.8063 11.9109H13.5489C13.2187 11.9109 12.9588 12.161 12.9216 12.479C12.1268 12.5624 11.5352 12.8505 11.5352 13.1937C11.5352 13.6041 12.3664 13.9367 13.3927 13.9367Z" fill="#FFB800"/>
</svg>
