<svg width="29" height="30" viewBox="0 0 29 30" fill="none" xmlns="http://www.w3.org/2000/svg">
<path d="M25.302 20.8174C23.719 21.3766 22.2524 19.6229 21.9159 16.8566L21.8674 16.8729C21.9547 19.717 20.8286 22.3747 19.2491 22.9325C17.6516 23.4968 16.1729 21.7064 15.854 18.8966L14.3186 19.4133L12.7829 18.8965C12.4641 21.7063 10.9855 23.4968 9.38778 22.9324C7.80839 22.3746 6.68224 19.7169 6.76959 16.8728L6.7209 16.8564C6.38441 19.6227 4.91783 21.3764 3.3348 20.8172C1.76977 20.2643 0.649328 17.6497 0.71405 14.835L0.0078125 14.5972V25.0207C0.0078125 25.1263 0.0751903 25.2201 0.175323 25.2538L14.2401 29.9872C14.2655 29.9958 14.292 30 14.3185 30C14.345 30 14.3715 29.9957 14.3969 29.9872L28.4615 25.2538C28.5615 25.2201 28.6289 25.1264 28.6289 25.0207V14.5974L27.9227 14.8351C27.9877 17.65 26.8671 20.2645 25.302 20.8174Z" fill="#FFB800"/>
<path d="M3.39918 18.0527C4.40463 18.408 5.36189 17.8132 6.00301 16.6147L1.17188 14.9888C1.60663 16.5216 2.41261 17.7043 3.39918 18.0527Z" fill="#FFB800"/>
<path d="M9.45502 20.168C10.4788 20.5297 11.4526 19.906 12.0935 18.6633L7.20312 17.0175C7.63198 18.5924 8.44996 19.813 9.45502 20.168Z" fill="#FFB800"/>
<path d="M25.2366 18.0527C26.2232 17.7043 27.0293 16.5216 27.464 14.9887L22.6328 16.6146C23.2737 17.8132 24.2311 18.408 25.2366 18.0527Z" fill="#FFB800"/>
<path d="M19.1854 20.168C20.1904 19.8131 21.0082 18.5924 21.4371 17.0175L16.5469 18.6633C17.1879 19.906 18.1617 20.5297 19.1854 20.168Z" fill="#FFB800"/>
<path d="M14.3188 15.8035L28.6293 10.9877V5.41796C28.6339 5.39957 28.637 5.38078 28.6373 5.3613C28.6386 5.25684 28.5737 5.16291 28.4754 5.1273L14.4027 0.0147543C14.3485 -0.00491809 14.289 -0.00491809 14.2348 0.0147543L0.162018 5.1273C0.0637542 5.16301 -0.00116451 5.25684 1.58315e-05 5.3613C0.000310917 5.38078 0.00345852 5.39966 0.00808152 5.41806V10.9878L14.3188 15.8035ZM14.3188 1.8854L23.7245 5.30239L14.3188 8.46589L4.91309 5.30239L14.3188 1.8854Z" fill="#FFB800"/>
</svg>
