<svg width="29" height="30" viewBox="0 0 29 30" fill="none" xmlns="http://www.w3.org/2000/svg">
<path d="M5.70977 12.6835C5.65527 12.2254 5.49275 11.8 5.24773 11.434L27.1971 4.1054L26.045 0.654347C25.8775 0.152843 25.335 -0.117804 24.8338 0.0494716L0.957702 8.02131C0.456522 8.18858 0.185334 8.73096 0.352826 9.23246L0.917802 10.9244C0.353799 11.448 0 12.1951 0 13.0237C0 14.0968 0.593197 15.0334 1.46861 15.5244V29.0427C1.46861 29.5716 1.89756 30 2.42599 30H27.5977C28.126 30 28.5549 29.5715 28.5549 29.0427V12.6835H5.70977ZM19.6996 2.8897L22.6056 1.91946L21.9064 4.74596L19.0004 5.71621L19.6996 2.8897ZM12.52 5.28682L15.4262 4.31658L14.7269 7.14297L11.8209 8.11333L12.52 5.28682ZM2.86521 14.4835C2.06051 14.4835 1.40568 13.8287 1.40568 13.0238C1.40568 12.2189 2.06051 11.5641 2.86521 11.5641C3.67013 11.5641 4.32496 12.2189 4.32496 13.0238C4.32496 13.8287 3.67013 14.4835 2.86521 14.4835ZM5.34062 7.68394L8.24681 6.7137L7.54754 9.5402L4.64134 10.5106L5.34062 7.68394ZM8.19545 15.9158H5.13171L6.69007 13.4563H9.75381L8.19545 15.9158ZM14.2591 13.4563H17.3229L15.7645 15.9158H12.7008L14.2591 13.4563ZM13.5071 25.3425V18.8548L18.6738 22.0987L13.5071 25.3425ZM23.3336 15.9158H20.2698L21.8282 13.4563H24.8919L23.3336 15.9158Z" fill="#FFB800"/>
</svg>
