<svg width="1300" height="278" viewBox="0 0 1300 278" fill="none" xmlns="http://www.w3.org/2000/svg">
<path d="M1317.41 57.7226C1299.91 30.3683 1225.9 -15.9252 1148.41 19.3962C1084.41 48.5693 1071.91 93.0625 1050.41 143.396C1082.91 182.896 1059.91 267.396 906.409 267.396C764.909 267.396 729.909 148.396 809.91 111.368C781.91 -14.6321 545.574 -56.6321 503.91 111.368C491.526 161.302 446.576 130.229 495.909 152.396C463.409 209.896 453.909 276.896 351.409 276.896C215.409 276.896 230.076 132.222 207.409 76.2224C157.909 4.22237 15.91 10.7228 -45.5909 42.7228C-92.271 67.0112 -39.2572 57.8683 -45.5905 61.3683" stroke="#C4C4C4" stroke-dasharray="10 7"/>
</svg>
