<svg width="40" height="41" viewBox="0 0 40 41" fill="none" xmlns="http://www.w3.org/2000/svg">
<path fill-rule="evenodd" clip-rule="evenodd" d="M16.7932 7.54948C16.7932 13.4932 9.64075 20.6128 9.64075 20.6128C9.64075 20.6128 2.48828 13.8299 2.48828 7.54948C2.48828 3.59797 5.6905 0.395752 9.64075 0.395752C13.591 0.395752 16.7932 3.59797 16.7932 7.54948ZM9.64075 3.82073C7.58272 3.82073 5.91326 5.48892 5.91326 7.54948C5.91326 9.60751 7.58272 11.2757 9.64075 11.2757C11.6988 11.2757 13.3682 9.60751 13.3682 7.54948C13.3682 5.48892 11.6988 3.82073 9.64075 3.82073ZM35.497 10.2542L36.078 10.0694C38.1588 13.1666 39.3738 16.8979 39.3713 20.9152C39.3713 30.1004 33.0099 37.7781 24.4626 39.8374L24.8196 38.5476L28.1648 36.3137L29.0419 33.9228L31.3531 32.8482L33.5415 28.6638L30.1557 26.6716L28.404 24.6806L27.3674 24.5604L25.2967 24.0022L23.5121 23.7212L21.9502 24.1604L20.9934 23.0846L20.0352 22.8061L20.1162 21.3734L18.9606 21.4075L18.3025 22.1695L17.9266 20.5735L19.4378 19.8571L20.9934 20.5735H21.83L22.1325 19.3381L24.4588 16.5473L27.6902 14.9158L29.5609 15.155L29.7305 14.2399L27.4104 11.887L26.5371 10.1352H25.2575L24.4614 9.66945L22.7489 9.41505L22.3894 11.4516L20.3162 11.0516L20.158 9.77704L21.7502 9.41505L22.2755 7.13172L23.8576 7.78229L23.8159 8.75562L25.0195 9.25683L25.8245 9.49479L26.8143 8.97838L25.9359 7.9443L24.1411 6.19258L24.1842 5.35342L26.0144 5.71161L27.5699 7.10641L28.0471 8.343L28.4078 9.50111L30.8797 11.7287L31.5138 11.9313L32.3897 10.5314L35.497 10.2542ZM22.1334 31.0929L20.7158 28.4628L22.0169 25.7466L20.7158 25.3529L19.2526 23.886L16.0124 23.1607L14.9366 20.9091V22.2469H14.4619L12.4052 19.4586C11.4015 20.6597 10.6395 21.4267 10.5446 21.5204L9.66242 22.3988L8.75997 21.5419L8.7567 21.5388C8.49204 21.2843 4.3742 17.325 2.33402 12.5175C1.11135 15.0603 0.410156 17.8992 0.410156 20.9091C0.410156 31.67 9.13209 40.3958 19.8931 40.3958C20.7208 40.3958 21.5334 40.3236 22.3371 40.2249L22.1334 37.8656C22.1334 37.8656 23.0282 34.3596 23.0282 34.2419C23.0282 34.1217 22.1334 31.0929 22.1334 31.0929ZM19.7872 5.40164L18.3532 5.16495L17.9077 5.86742C17.5976 4.34225 16.8685 2.9715 15.8547 1.86401C17.1596 1.58935 18.5063 1.42734 19.8935 1.42734C22.8629 1.42734 25.6677 2.11335 28.1877 3.29931L27.4903 3.40437L25.5765 3.11579L24.2248 4.0195L23.2679 5.07509L19.7872 5.40164ZM22.7072 2.2665L20.7162 3.36133L19.5733 4.07519L20.3694 4.59033L22.1338 4.41186L23.9843 3.00314L22.7072 2.2665Z" fill="#FFAF00"/>
</svg>
