<svg width="51" height="42" viewBox="0 0 51 42" fill="none" xmlns="http://www.w3.org/2000/svg">
<path fill-rule="evenodd" clip-rule="evenodd" d="M41.3983 1.00448L49.803 9.40916C50.6125 10.2197 50.6125 11.5356 49.803 12.3472L46.866 15.2842C46.0554 16.0948 44.7396 16.0948 43.9279 15.2842L35.5222 6.87744C34.7116 6.06686 34.7116 4.751 35.5222 3.94043L38.4603 1.00448C39.2719 0.192842 40.5878 0.192842 41.3983 1.00448ZM43.6875 11.9856C43.6875 12.927 44.4513 13.6897 45.3917 13.6897C46.3331 13.6897 47.0958 12.9259 47.0969 11.9856C47.0969 11.0431 46.3331 10.2804 45.3917 10.2804C44.4513 10.2804 43.6875 11.0441 43.6875 11.9856ZM33.7491 6.83279C33.9076 6.88279 34.0544 6.96895 34.1725 7.08809L43.7164 16.6374C44.1217 17.0427 44.1217 17.7011 43.7164 18.1053L37.1212 24.6995L38.7274 26.3068C39.9401 27.5206 39.8593 29.58 38.5445 30.8948C37.902 31.5394 37.0829 31.8819 36.2712 31.9287C36.2244 32.7404 35.8808 33.5584 35.2394 34.2009C34.5948 34.8434 33.7778 35.1859 32.9683 35.2338C32.9194 36.0444 32.5747 36.8635 31.9322 37.5049C31.2918 38.1474 30.4717 38.491 29.6611 38.5389C29.6132 39.3495 29.2707 40.1685 28.6293 40.81C27.3124 42.1248 25.2561 42.2099 24.0403 40.994L20.231 37.1858L18.2907 39.125C17.478 39.9366 16.0813 39.8526 15.1697 38.942C14.257 38.0283 14.1751 36.6316 14.9856 35.8221C14.1751 36.6326 12.7773 36.5497 11.8646 35.637C10.9519 34.7253 10.87 33.3286 11.6816 32.517C10.87 33.3286 9.47117 33.2425 8.5606 32.333C7.6479 31.4203 7.56493 30.0236 8.37657 29.2119C7.56493 30.0236 6.16716 29.9395 5.25659 29.029C4.34283 28.1152 4.26093 26.7174 5.0715 25.9079L6.9086 24.0708L0.713325 17.8766C0.3091 17.4703 0.3091 16.8118 0.713325 16.4076C1.11861 16.0012 1.77707 16.0012 2.18236 16.4076L8.39359 22.6188C9.22012 21.9689 10.4913 22.0848 11.3444 22.9379C12.2561 23.8517 12.3401 25.2495 11.5274 26.06C12.3401 25.2495 13.7379 25.3324 14.6484 26.2451C15.5622 27.1557 15.6441 28.5535 14.8335 29.364C15.6441 28.5535 17.0419 28.6375 17.9546 29.5481C18.8673 30.4597 18.947 31.8585 18.1365 32.6702C18.947 31.8575 20.348 31.9415 21.2586 32.851C22.0713 33.6669 22.2202 34.8615 21.6724 35.6848L25.5082 39.5239C25.905 39.9218 26.6613 39.8377 27.1613 39.3399C27.6581 38.842 27.7432 38.0857 27.3443 37.6868L24.1934 34.5349C23.7892 34.1318 23.7892 33.4733 24.1934 33.068C24.5987 32.6627 25.2572 32.6627 25.6614 33.068L28.8122 36.2178C29.2111 36.6167 29.9675 36.5316 30.4642 36.0348C30.961 35.537 31.0472 34.7807 30.6493 34.3828L27.4985 31.232C27.0922 30.8256 27.0922 30.1672 27.4985 29.764C27.9027 29.3577 28.5601 29.3577 28.9665 29.764L32.1184 32.9138C32.5141 33.3106 33.2725 33.2276 33.7704 32.7287C34.2682 32.2319 34.3512 31.4756 33.9533 31.0788L30.8025 27.9269C30.3962 27.5216 30.3962 26.8632 30.8025 26.46C31.2089 26.0526 31.8641 26.0526 32.2705 26.46L35.4213 29.6098C35.8191 30.0066 36.5765 29.9215 37.0744 29.4247C37.5733 28.9268 37.6562 28.1705 37.2573 27.7716C37.2573 27.7716 26.0422 16.5086 23.903 14.4439L23.9027 14.4435C23.6546 14.2051 23.0716 13.6446 21.8458 14.8715C21.4862 15.2311 21.1447 15.6864 20.9097 16.1257L19.48 18.7776C19.3396 19.0393 19.1013 19.3478 18.8215 19.6276C17.7514 20.6966 16.3845 21.1253 15.0665 20.8094C13.8889 20.5275 12.9039 19.7446 12.3571 18.6585C11.9752 17.8979 11.8923 17.1352 12.1359 16.5629L16.3887 6.55941C16.5419 6.20093 16.8408 5.78926 17.2312 5.39886C17.9003 4.72764 20.3842 2.63631 24.202 3.83515L33.7491 6.83279Z" fill="#FFAF00"/>
</svg>
