<svg width="32" height="51" viewBox="0 0 32 51" fill="none" xmlns="http://www.w3.org/2000/svg">
<path fill-rule="evenodd" clip-rule="evenodd" d="M30.5285 28.2178C30.354 28.0813 29.6676 27.359 28.757 26.4007C26.7381 24.2763 23.6171 20.992 22.5269 20.359V3.48822C22.5269 1.77358 21.1389 0.395752 19.4344 0.395752H3.50262C1.78799 0.395752 0.410156 1.78379 0.410156 3.48822V33.0249C0.410156 34.7395 1.79819 36.1173 3.50262 36.1173H8.61591H10.4428L10.157 33.6883C10.1111 33.6474 10.0728 33.6143 10.0346 33.5811C9.9963 33.5479 9.95802 33.5148 9.91209 33.4739H8.89148H6.85024C6.95231 33.0657 6.98293 32.6166 6.90128 32.1573C6.67674 30.8816 5.66633 29.8507 4.39056 29.616C3.92108 29.5241 3.4618 29.5548 3.04335 29.6568V6.66234C3.22706 6.69296 3.42097 6.71337 3.61489 6.71337C5.34994 6.71337 6.74818 5.30492 6.74818 3.58008C6.74818 3.39636 6.72777 3.21265 6.69715 3.02894H16.2093C16.1787 3.21265 16.1583 3.39636 16.1583 3.58008C16.1583 5.31512 17.5565 6.71337 19.2916 6.71337C19.4855 6.71337 19.6794 6.69296 19.8631 6.66234V29.1057V35.556C18.7813 34.7599 17.5769 32.2696 17.5769 32.2696C17.5769 32.2696 16.985 25.6458 13.6271 25.6458C13.5353 25.6458 13.4536 25.6458 13.3618 25.656C13.3618 25.656 10.8204 25.8703 12.9229 33.1371L13.8619 41.2102C13.8619 41.2102 14.9131 45.5886 17.8117 48.6199V49.518C17.8117 49.9977 18.1995 50.3958 18.6894 50.3958H28.1301C28.5792 50.3958 28.9466 50.0589 28.9976 49.6201C29.3344 46.4766 30.6408 34.7905 31.4063 33.0147C31.5288 32.7289 31.6308 32.4431 31.6716 32.1369C31.8451 31.1367 31.9064 29.2996 30.5285 28.2178ZM11.8096 10.47C12.8467 10.47 13.6875 9.6292 13.6875 8.59205C13.6875 7.55489 12.8467 6.71411 11.8096 6.71411C10.7724 6.71411 9.93164 7.55489 9.93164 8.59205C9.93164 9.6292 10.7724 10.47 11.8096 10.47ZM9.9845 25.0941C6.95327 24.4103 4.6875 21.7056 4.6875 18.4703C4.6875 14.7246 7.71873 11.6832 11.4644 11.6832C15.2101 11.6832 18.2515 14.7246 18.2515 18.4703C18.2515 20.4197 17.4248 22.1853 16.1082 23.4203C15.1896 22.9304 14.3017 22.8079 13.6485 22.8079C13.4648 22.8079 13.2811 22.8181 13.0974 22.8385C12.6381 22.8793 11.2807 23.1447 10.2805 24.6042C10.1682 24.7675 10.0764 24.9206 9.9845 25.0941ZM7.88203 17.4599C7.82079 17.8681 7.81059 17.8681 7.40234 17.8681C6.82059 17.8783 6.82059 17.8783 6.83079 18.4499V18.705C6.83079 18.9806 6.88182 19.0214 7.15739 19.0316H7.52481C7.89224 19.0418 7.89224 19.0418 8.01471 19.3888C8.3209 20.2257 8.90265 20.7565 9.8212 20.8075C10.6377 20.8585 11.1888 20.4401 11.5869 19.7665C11.752 19.4913 11.8707 19.1929 11.99 18.8932C12.0477 18.7483 12.1054 18.6031 12.1686 18.4601C12.2401 18.2866 12.3217 18.1233 12.4442 17.9804C12.7912 17.5517 13.3729 17.6334 13.5873 18.1335C13.7098 18.3988 13.7404 18.6846 13.6995 18.9704C13.6383 19.4195 13.526 19.8481 13.3117 20.2462C13.1892 20.4809 13.2199 20.5523 13.475 20.634C13.6893 20.7054 13.9139 20.7667 14.1384 20.8279C14.4344 20.9096 14.5058 20.8789 14.6487 20.5932C14.8222 20.2257 14.9141 19.8379 14.9753 19.4399C15.0263 19.1235 15.0366 19.1133 15.3631 19.1133H15.802C15.9857 19.1133 16.098 19.0316 16.098 18.8377C16.1082 18.6234 16.1082 18.409 16.098 18.1947C16.098 18.0212 16.0061 17.9294 15.8224 17.9294C15.754 17.9294 15.6867 17.9282 15.6198 17.9271C15.4872 17.9248 15.356 17.9226 15.2203 17.9294C15.0161 17.9396 14.9141 17.8477 14.863 17.6538C14.7406 17.2047 14.4956 16.8169 14.1384 16.5209C13.1382 15.6942 11.6787 16.0106 11.0357 17.1741C10.8728 17.4742 10.7388 17.7958 10.6032 18.121C10.5774 18.1829 10.5516 18.2449 10.5254 18.307C10.4336 18.5315 10.3315 18.7459 10.1784 18.9296C9.88244 19.297 9.40275 19.2357 9.20883 18.7969C9.14759 18.6846 9.13739 18.5519 9.12718 18.4193C9.09656 17.9089 9.18842 17.4395 9.41295 16.9802C9.51502 16.7557 9.4844 16.674 9.24966 16.6026C8.9945 16.5209 8.74955 16.4495 8.4944 16.378C8.3311 16.327 8.21883 16.3882 8.14739 16.5515C8.02492 16.8475 7.93306 17.1435 7.88203 17.4599Z" fill="#FFAF00"/>
</svg>
