<svg width="15" height="14" viewBox="0 0 15 14" fill="none" xmlns="http://www.w3.org/2000/svg">
<path d="M0.264945 6.26223L3.72125 7.55223L5.05905 11.8546C5.14465 12.1301 5.4816 12.232 5.70525 12.0491L7.63185 10.4785C7.8338 10.314 8.12145 10.3058 8.33251 10.459L11.8074 12.9818C12.0467 13.1557 12.3856 13.0246 12.4456 12.7355L14.9912 0.490974C15.0567 0.175173 14.7464 -0.0882769 14.4457 0.0280232L0.260895 5.50008C-0.0891559 5.63508 -0.0861059 6.13068 0.264945 6.26223ZM4.84345 6.86553L11.5984 2.70518C11.7198 2.63063 11.8447 2.79478 11.7404 2.89148L6.16565 8.07348C5.9697 8.25588 5.8433 8.49998 5.8075 8.76493L5.6176 10.1722C5.59245 10.3601 5.3285 10.3788 5.27665 10.1969L4.5463 7.63068C4.46265 7.33798 4.58455 7.02533 4.84345 6.86553Z" fill="#FFB800"/>
</svg>
