<svg width="1122" height="424" viewBox="0 0 1122 424" fill="none" xmlns="http://www.w3.org/2000/svg">
<path d="M0.5 59C121 120.5 156 272 313.5 136L383 116.5C441 50 468.2 137.5 493 125.5C524 110.5 476 130 574.5 59C673 -12 698 1.00003 726 3.00003C748.4 4.60003 802.333 41 826.5 59C831.5 63.1667 844.7 74.7 857.5 87.5C873.5 103.5 907 116.5 956 116.5C1005 116.5 1050 126.5 1056 147C1062 167.5 1205 235.5 1047 345.5C1027.03 359.402 1015 345 967 341C919 337 911.5 314 884.5 304C862.9 296 805.5 292.667 779.5 292C749.167 310.667 717.5 423 625.5 423C558 423 496 341 411 320C343 303.2 310 327 291.5 341C268.333 357.333 225.5 463.5 124 395.5C74.348 362.236 90.6667 309.333 91 304L73 320" stroke="#171717" stroke-dasharray="10 7"/>
</svg>
