<svg width="15" height="15" viewBox="0 0 15 15" fill="none" xmlns="http://www.w3.org/2000/svg">
<path d="M14.2429 8.24258L7.79316 14.6921C7.38287 15.1026 6.71767 15.1026 6.30759 14.6921C5.89747 14.282 5.89747 13.6169 6.30759 13.2068L12.0146 7.49989L6.30775 1.79321C5.89764 1.38293 5.89764 0.717829 6.30775 0.307712C6.71787 -0.102571 7.38304 -0.102571 7.79332 0.307712L14.2431 6.75737C14.4481 6.96253 14.5506 7.23113 14.5506 7.49986C14.5506 7.76872 14.4479 8.03752 14.2429 8.24258Z" fill="#FFAF00"/>
<path d="M8.24292 8.24258L1.79316 14.6921C1.38287 15.1026 0.717671 15.1026 0.307588 14.6921C-0.102529 14.282 -0.102529 13.6169 0.307588 13.2068L6.01463 7.49989L0.307753 1.79321C-0.102363 1.38293 -0.102363 0.717829 0.307753 0.307712C0.71787 -0.102571 1.38304 -0.102571 1.79332 0.307712L8.24308 6.75737C8.44814 6.96253 8.55056 7.23113 8.55056 7.49986C8.55056 7.76872 8.44794 8.03752 8.24292 8.24258Z" fill="#FFAF00"/>
</svg>
