<svg width="15" height="15" viewBox="0 0 15 15" fill="none" xmlns="http://www.w3.org/2000/svg">
<path d="M13.0464 1.96394L13.0349 1.95246C12.4494 1.39564 11.2801 2.38456 11.2801 2.38456L9.15715 4.05591L6.92224 3.65982C7.24465 3.19245 7.34177 2.72847 7.12682 2.51352C6.84841 2.23511 6.15231 2.47983 5.57209 3.06005C5.47061 3.16154 5.37967 3.26657 5.29972 3.37227L3.58368 3.06814L2.44063 4.04208L7.10013 6.18014L4.11293 9.7896L2.25243 9.44079L1.78125 9.91129L5.08761 13.2176L5.55806 12.7464L5.20925 10.8859L8.81874 7.89869L10.9568 12.5581L11.9307 11.4151L11.6266 9.69907C11.7323 9.61912 11.8373 9.52821 11.9389 9.4267C12.5191 8.84647 12.7638 8.15041 12.4854 7.87203C12.2704 7.65705 11.8064 7.7542 11.339 8.07658L10.9429 5.8417L12.6143 3.71873C12.6143 3.71876 13.6032 2.54944 13.0464 1.96394Z" fill="white"/>
</svg>
