<svg width="15" height="15" viewBox="0 0 15 15" fill="none" xmlns="http://www.w3.org/2000/svg">
<path d="M2.82127 9.07147C2.17532 9.07147 1.64919 9.59751 1.64919 10.2439C1.64919 10.8903 2.17515 11.416 2.82127 11.416C3.46788 11.416 3.99335 10.8903 3.99335 10.2439C3.99335 9.59783 3.46807 9.07147 2.82127 9.07147ZM2.82127 10.9805C2.41534 10.9805 2.08486 10.6499 2.08486 10.2439C2.08486 9.83789 2.41518 9.50724 2.82127 9.50724C3.22753 9.50724 3.55799 9.83753 3.55799 10.2439C3.55799 10.6499 3.22769 10.9805 2.82127 10.9805ZM12.2222 9.07147C11.5758 9.07147 11.05 9.59751 11.05 10.2439C11.05 10.8903 11.5756 11.416 12.2222 11.416C12.8687 11.416 13.3943 10.8903 13.3943 10.2439C13.3941 9.59783 12.8684 9.07147 12.2222 9.07147ZM12.2222 10.9805C11.816 10.9805 11.4854 10.6499 11.4854 10.2439C11.4854 9.83789 11.8157 9.50724 12.2222 9.50724C12.628 9.50724 12.9587 9.83753 12.9587 10.2439C12.9584 10.6499 12.6281 10.9805 12.2222 10.9805ZM14.5644 8.70876H14.9997V4.82867C14.9997 4.14112 14.4425 3.584 13.7552 3.584H1.24457C0.556772 3.58402 0 4.14112 0 4.82867V9.22703C0 9.91491 0.556772 10.472 1.24457 10.472H1.56924C1.56131 10.414 1.55602 10.3555 1.55602 10.2955C1.55602 9.5737 2.14124 8.98831 2.86308 8.98831C3.58492 8.98831 4.17015 9.5737 4.17015 10.2955C4.17015 10.3555 4.16453 10.414 4.15692 10.472H10.9674C10.9595 10.414 10.9543 10.3555 10.9543 10.2955C10.9543 9.5737 11.5394 8.98831 12.2617 8.98831C12.9835 8.98831 13.5684 9.5737 13.5684 10.2955C13.5684 10.3555 13.5631 10.414 13.5552 10.472H15V9.95327H14.5646C14.4958 9.95327 14.4399 9.89753 14.4399 9.82895V8.83307C14.4396 8.76414 14.4955 8.70876 14.5644 8.70876ZM8.29848 4.22727V7.21458H6.01663V4.22727H8.29848ZM2.42715 7.21458H1.97064C0.923121 7.21458 0.944107 6.59249 0.944107 6.52388V4.35166C0.944107 4.28298 0.999654 4.22727 1.06834 4.22727H2.42715H3.48515V7.21458H2.42715ZM3.60965 7.21458V4.22727H5.89188V7.21458H3.60965ZM10.9336 7.21458H8.4228V4.22727H10.9336V7.21458ZM12.0432 7.09C12.0432 7.15901 11.9873 7.21458 11.919 7.21458H11.05V4.22727H11.919C11.9873 4.22727 12.0432 4.28298 12.0432 4.35166V7.09ZM14.2751 7.89939C14.2751 7.89939 13.7158 7.95013 13.1081 7.81061C12.5008 7.67126 12.4168 7.12149 12.4168 7.12149V4.85767V4.2169H13.6342C13.988 4.2169 14.275 4.50381 14.275 4.85767V7.89936H14.2751V7.89939Z" fill="white"/>
</svg>
