<svg width="13" height="13" viewBox="0 0 13 13" fill="none" xmlns="http://www.w3.org/2000/svg">
<g clip-path="url(#clip0_308_688)">
<path d="M7.81294 11.8407C7.70574 11.8674 7.59645 11.8911 7.48797 11.9111C7.20438 11.9638 7.01689 12.2366 7.06934 12.5204C7.09525 12.6601 7.17456 12.7764 7.28223 12.8523C7.3932 12.9304 7.53444 12.9657 7.67836 12.9389C7.80755 12.9149 7.93774 12.8867 8.06551 12.8548C8.34555 12.7851 8.51616 12.5014 8.44629 12.2215C8.3766 11.9414 8.09315 11.7709 7.81294 11.8407Z" fill="white"/>
<path d="M11.679 4.8358C11.7156 4.94612 11.7855 5.03619 11.8738 5.09842C12.0047 5.19061 12.176 5.22163 12.3394 5.16758C12.6134 5.0766 12.7619 4.78111 12.6713 4.50722C12.63 4.38236 12.5841 4.25711 12.5353 4.13516C12.4281 3.86717 12.1241 3.7367 11.856 3.84389C11.5881 3.95103 11.4576 4.2551 11.5649 4.52318C11.6059 4.62568 11.6443 4.73089 11.679 4.8358Z" fill="white"/>
<path d="M9.50959 11.0945C9.41739 11.1554 9.32224 11.2143 9.22639 11.2695C8.97631 11.4137 8.89066 11.7334 9.03486 11.9834C9.07401 12.0514 9.12615 12.1069 9.18621 12.1494C9.34742 12.2629 9.56637 12.2798 9.74865 12.1748C9.86261 12.1091 9.97593 12.0392 10.0857 11.9666C10.3264 11.8075 10.3927 11.4833 10.2336 11.2425C10.0745 11.0016 9.75039 10.9354 9.50959 11.0945Z" fill="white"/>
<path d="M12.994 6.29542C12.9827 6.00697 12.7397 5.78246 12.4512 5.79373C12.163 5.8051 11.9383 6.04814 11.9496 6.33647C11.954 6.44672 11.9551 6.55861 11.9525 6.66874C11.9485 6.84963 12.037 7.01087 12.1744 7.10778C12.2564 7.16546 12.3558 7.20036 12.4635 7.20282C12.752 7.20922 12.991 6.98044 12.9974 6.69185C13.0003 6.56026 12.9992 6.42693 12.994 6.29542Z" fill="white"/>
<path d="M11.5915 9.71971C11.3602 9.54618 11.0329 9.59329 10.8597 9.82417C10.7934 9.91259 10.7235 9.99992 10.652 10.084C10.465 10.3037 10.4914 10.6336 10.7111 10.8207C10.7236 10.8313 10.7362 10.841 10.7494 10.8502C10.9677 11.0041 11.2712 10.9688 11.4478 10.7616C11.5332 10.6613 11.6165 10.5569 11.6958 10.4513C11.869 10.2205 11.8221 9.893 11.5915 9.71971Z" fill="white"/>
<path d="M12.361 7.83055C12.0856 7.7442 11.7923 7.89751 11.706 8.1729C11.673 8.27811 11.6364 8.38383 11.5969 8.48736C11.5101 8.71528 11.5932 8.96605 11.7838 9.10044C11.8188 9.125 11.8573 9.14582 11.8991 9.16164C12.1687 9.26453 12.4707 9.12925 12.5735 8.8595C12.6204 8.7364 12.6639 8.61063 12.7033 8.48555C12.7895 8.21009 12.6363 7.9169 12.361 7.83055Z" fill="white"/>
<path d="M5.53306 11.9158C5.06582 11.8319 4.61762 11.6891 4.1926 11.4898C4.18757 11.4872 4.18307 11.4842 4.17779 11.4818C4.07764 11.4346 3.97765 11.3841 3.88074 11.3314C3.8804 11.331 3.87978 11.3307 3.87925 11.3305C3.70144 11.2326 3.5279 11.1243 3.35931 11.0056C0.900935 9.27382 0.309843 5.86487 2.0417 3.40653C2.41829 2.87216 2.87402 2.42636 3.38209 2.07302C3.38834 2.06866 3.3946 2.06433 3.40081 2.05994C5.19116 0.82634 7.62218 0.743204 9.52324 2.01084L9.11494 2.60079C9.00143 2.76499 9.07126 2.88465 9.26998 2.86677L11.0436 2.70799C11.2425 2.6901 11.3615 2.51799 11.308 2.32584L10.8317 0.60985C10.7784 0.417477 10.6419 0.39445 10.5283 0.558627L10.119 1.14997C8.72391 0.213451 7.05059 -0.143658 5.38974 0.144343C5.22246 0.173294 5.05753 0.208728 4.89486 0.249975C4.8936 0.250198 4.89259 0.250338 4.89159 0.250562C4.8853 0.252099 4.87893 0.254139 4.87281 0.255843C3.44063 0.623627 2.19107 1.45893 1.29943 2.65073C1.29191 2.65964 1.28417 2.66836 1.27707 2.67806C1.24742 2.71799 1.218 2.75885 1.18919 2.7997C1.14207 2.86666 1.09563 2.93529 1.0512 3.00392C1.04563 3.0122 1.04139 3.02061 1.03652 3.02896C0.300733 4.16915 -0.0541679 5.48731 0.0066962 6.82928C0.00683592 6.8337 0.00658442 6.83814 0.0066962 6.84267C0.0125926 6.97376 0.0229881 7.10666 0.0371003 7.2375C0.0378548 7.24594 0.0397272 7.25393 0.0411523 7.26237C0.0557396 7.39394 0.0740436 7.52581 0.0969864 7.65766C0.330159 9.00287 0.964734 10.2134 1.91562 11.1552C1.91782 11.1575 1.92012 11.1599 1.92235 11.1622C1.92313 11.163 1.924 11.1635 1.92475 11.1643C2.18023 11.4163 2.45811 11.6493 2.75732 11.86C3.54034 12.4118 4.41225 12.7765 5.34863 12.9445C5.63274 12.9956 5.90415 12.8065 5.95512 12.5225C6.00606 12.2383 5.8171 11.9667 5.53306 11.9158Z" fill="white"/>
<path d="M6.17886 2.32497C5.94516 2.32497 5.75586 2.51443 5.75586 2.7478V6.96042L9.60864 8.95209C9.67065 8.9842 9.73705 8.99932 9.80239 8.99932C9.95541 8.99932 10.1032 8.91598 10.1784 8.77059C10.2855 8.56307 10.2044 8.30812 9.99691 8.20096L6.60139 6.44551V2.7478C6.60137 2.51443 6.41229 2.32497 6.17886 2.32497Z" fill="white"/>
</g>
<defs>
<clipPath id="clip0_308_688">
<rect width="13" height="13" fill="white"/>
</clipPath>
</defs>
</svg>
