<svg width="100" height="15" viewBox="0 0 100 15" fill="none" xmlns="http://www.w3.org/2000/svg">
<path d="M98.8208 6.79775C99.129 6.49741 99.2378 6.05662 99.1048 5.64687C98.9716 5.23711 98.6245 4.94461 98.1982 4.88254L94.4073 4.33171C94.2458 4.3082 94.1063 4.20693 94.0342 4.06053L92.3394 0.625758C92.1491 0.239832 91.7628 0 91.3324 0C90.9023 0 90.516 0.239832 90.3257 0.625758L88.6306 4.06084C88.5585 4.20725 88.4187 4.30851 88.2572 4.33202L84.4663 4.88285C84.0402 4.94461 83.6929 5.23743 83.5596 5.64718C83.4267 6.05693 83.5355 6.49772 83.8437 6.79806L86.5865 9.47164C86.7035 9.58575 86.7571 9.75003 86.7295 9.91055L86.0824 13.6858C86.0251 14.0181 86.1122 14.3413 86.3273 14.5962C86.6615 14.9934 87.2449 15.1144 87.7114 14.8693L91.1017 13.0867C91.2434 13.0124 91.4217 13.013 91.5631 13.0867L94.9537 14.8693C95.1186 14.9561 95.2945 15 95.476 15C95.8074 15 96.1215 14.8527 96.3375 14.5962C96.5529 14.3413 96.6397 14.0175 96.5824 13.6858L95.935 9.91055C95.9074 9.74972 95.961 9.58575 96.0779 9.47164L98.8208 6.79775Z" fill="#FFB800"/>
<path d="M77.9438 6.79775C78.252 6.49741 78.3608 6.05662 78.2279 5.64687C78.0946 5.23711 77.7476 4.94461 77.3212 4.88254L73.5303 4.33171C73.3689 4.3082 73.2293 4.20693 73.1572 4.06053L71.4624 0.625758C71.2721 0.239832 70.8859 0 70.4554 0C70.0253 0 69.6391 0.239832 69.4488 0.625758L67.7536 4.06084C67.6815 4.20725 67.5417 4.30851 67.3803 4.33202L63.5894 4.88285C63.1633 4.94461 62.8159 5.23743 62.6827 5.64718C62.5498 6.05693 62.6586 6.49772 62.9667 6.79806L65.7096 9.47164C65.8265 9.58575 65.8801 9.75003 65.8525 9.91055L65.2055 13.6858C65.1481 14.0181 65.2353 14.3413 65.4503 14.5962C65.7845 14.9934 66.368 15.1144 66.8344 14.8693L70.2247 13.0867C70.3664 13.0124 70.5448 13.013 70.6862 13.0867L74.0767 14.8693C74.2417 14.9561 74.4175 15 74.599 15C74.9304 15 75.2446 14.8527 75.4606 14.5962C75.6759 14.3413 75.7628 14.0175 75.7054 13.6858L75.058 9.91055C75.0304 9.74972 75.084 9.58575 75.201 9.47164L77.9438 6.79775Z" fill="#FFB800"/>
<path d="M57.0688 6.79775C57.377 6.49741 57.4858 6.05662 57.3529 5.64687C57.2196 5.23711 56.8726 4.94461 56.4462 4.88254L52.6553 4.33171C52.4939 4.3082 52.3543 4.20693 52.2822 4.06053L50.5874 0.625758C50.3971 0.239832 50.0109 0 49.5804 0C49.1503 0 48.7641 0.239832 48.5738 0.625758L46.8786 4.06084C46.8065 4.20725 46.6667 4.30851 46.5053 4.33202L42.7144 4.88285C42.2883 4.94461 41.9409 5.23743 41.8077 5.64718C41.6748 6.05693 41.7836 6.49772 42.0917 6.79806L44.8346 9.47164C44.9515 9.58575 45.0051 9.75003 44.9775 9.91055L44.3305 13.6858C44.2731 14.0181 44.3603 14.3413 44.5753 14.5962C44.9095 14.9934 45.493 15.1144 45.9594 14.8693L49.3497 13.0867C49.4914 13.0124 49.6698 13.013 49.8112 13.0867L53.2017 14.8693C53.3667 14.9561 53.5425 15 53.724 15C54.0554 15 54.3696 14.8527 54.5856 14.5962C54.8009 14.3413 54.8878 14.0175 54.8304 13.6858L54.183 9.91055C54.1554 9.74972 54.209 9.58575 54.326 9.47164L57.0688 6.79775Z" fill="#FFB800"/>
<path d="M36.1919 6.79775C36.5001 6.49741 36.6089 6.05662 36.4759 5.64687C36.3427 5.23711 35.9956 4.94461 35.5693 4.88254L31.7784 4.33171C31.6169 4.3082 31.4774 4.20693 31.4053 4.06053L29.7105 0.625758C29.5202 0.239832 29.1339 0 28.7035 0C28.2734 0 27.8871 0.239832 27.6968 0.625758L26.0017 4.06084C25.9296 4.20725 25.7898 4.30851 25.6283 4.33202L21.8374 4.88285C21.4113 4.94461 21.064 5.23743 20.9307 5.64718C20.7978 6.05693 20.9066 6.49772 21.2148 6.79806L23.9576 9.47164C24.0746 9.58575 24.1282 9.75003 24.1006 9.91055L23.4535 13.6858C23.3961 14.0181 23.4833 14.3413 23.6984 14.5962C24.0326 14.9934 24.616 15.1144 25.0825 14.8693L28.4727 13.0867C28.6145 13.0124 28.7928 13.013 28.9342 13.0867L32.3248 14.8693C32.4897 14.9561 32.6656 15 32.8471 15C33.1785 15 33.4926 14.8527 33.7086 14.5962C33.924 14.3413 34.0108 14.0175 33.9535 13.6858L33.3061 9.91055C33.2785 9.74972 33.3321 9.58575 33.449 9.47164L36.1919 6.79775Z" fill="#FFB800"/>
<path d="M15.3169 6.79775C15.6251 6.49741 15.7339 6.05662 15.6009 5.64687C15.4677 5.23711 15.1206 4.94461 14.6943 4.88254L10.9034 4.33171C10.7419 4.3082 10.6024 4.20693 10.5303 4.06053L8.83547 0.625758C8.64517 0.239832 8.25893 0 7.82849 0C7.39836 0 7.01212 0.239832 6.82182 0.625758L5.1267 4.06084C5.05459 4.20725 4.91477 4.30851 4.75331 4.33202L0.962398 4.88285C0.536343 4.94461 0.188979 5.23743 0.055739 5.64718C-0.0771875 6.05693 0.031599 6.49772 0.339775 6.79806L3.08264 9.47164C3.19958 9.58575 3.25319 9.75003 3.2256 9.91055L2.57852 13.6858C2.52115 14.0181 2.6083 14.3413 2.82337 14.5962C3.15757 14.9934 3.741 15.1144 4.2075 14.8693L7.59775 13.0867C7.73945 13.0124 7.91784 13.013 8.05923 13.0867L11.4498 14.8693C11.6147 14.9561 11.7906 15 11.9721 15C12.3035 15 12.6176 14.8527 12.8336 14.5962C13.049 14.3413 13.1358 14.0175 13.0785 13.6858L12.4311 9.91055C12.4035 9.74972 12.4571 9.58575 12.574 9.47164L15.3169 6.79775Z" fill="#FFB800"/>
</svg>
