<svg width="15" height="15" viewBox="0 0 15 15" fill="none" xmlns="http://www.w3.org/2000/svg">
<path d="M12.651 10.4087C11.8595 10.6883 11.1262 9.81146 10.9579 8.4283L10.9337 8.43646C10.9773 9.85847 10.4143 11.1873 9.62456 11.4662C8.82581 11.7484 8.08643 10.8532 7.92698 9.44831L7.15927 9.70665L6.39146 9.44826C6.23207 10.8532 5.49273 11.7484 4.69389 11.4662C3.90419 11.1873 3.34112 9.85843 3.38479 8.43641L3.36045 8.4282C3.1922 9.81136 2.45891 10.6882 1.6674 10.4086C0.884882 10.1322 0.324663 8.82484 0.357024 7.41748L0.00390625 7.29861V12.5104C0.00390625 12.5631 0.0375951 12.61 0.0876612 12.6269L7.12003 14.9936C7.13276 14.9979 7.14599 15 7.15922 15C7.1725 15 7.18573 14.9978 7.19842 14.9936L14.2307 12.6269C14.2808 12.61 14.3144 12.5632 14.3144 12.5104V7.29871L13.9613 7.41753C13.9938 8.82499 13.4335 10.1323 12.651 10.4087Z" fill="white"/>
<path d="M1.69959 9.02635C2.20231 9.20399 2.68094 8.90659 3.0015 8.30733L0.585938 7.49442C0.803317 8.2608 1.2063 8.85215 1.69959 9.02635Z" fill="white"/>
<path d="M4.72555 10.084C5.23743 10.2648 5.72437 9.953 6.04478 9.33165L3.59961 8.50876C3.81404 9.29619 4.22303 9.90648 4.72555 10.084Z" fill="white"/>
<path d="M12.6203 9.02634C13.1136 8.85214 13.5166 8.26079 13.734 7.49435L11.3184 8.30731C11.6388 8.90658 12.1175 9.20398 12.6203 9.02634Z" fill="white"/>
<path d="M9.59271 10.084C10.0952 9.90653 10.5041 9.29619 10.7186 8.50876L8.27344 9.33165C8.59395 9.953 9.08084 10.2648 9.59271 10.084Z" fill="white"/>
<path d="M7.15941 7.90173L14.3146 5.49384V2.70898C14.3169 2.69978 14.3185 2.69039 14.3187 2.68065C14.3193 2.62842 14.2868 2.58145 14.2377 2.56365L7.20136 0.00737712C7.17426 -0.00245904 7.1445 -0.00245904 7.11741 0.00737712L0.0810087 2.56365C0.0318771 2.5815 -0.000582254 2.62842 7.91576e-06 2.68065C0.000155458 2.69039 0.00172926 2.69983 0.00404075 2.70903V5.49389L7.15941 7.90173ZM7.15941 0.942698L11.8622 2.65119L7.15941 4.23294L2.45654 2.65119L7.15941 0.942698Z" fill="white"/>
</svg>
