<svg width="124" height="26" viewBox="0 0 124 26" fill="none" xmlns="http://www.w3.org/2000/svg">
<path d="M48.9962 14.2376L48.9774 3.02433L43.4925 12.4966H43.0245L37.5395 3.06177V14.2376H36.6035V1.13361H37.4085L43.2678 11.2611L49.1272 1.13361H49.9134L49.9322 14.2376H48.9962Z" fill="white"/>
<path d="M62.6066 10.5498H55.0063L53.3402 14.2376H52.3106L58.3385 1.13361H59.2932L65.321 14.2376H64.2914L62.6066 10.5498ZM62.2509 9.74481L58.8065 2.18193L55.3807 9.74481H62.2509Z" fill="white"/>
<path d="M78.3703 1.13361V14.2376H77.5841L68.6546 2.85585V14.2376H67.6999V1.13361H68.5049L77.4156 12.5154V1.13361H78.3703Z" fill="white"/>
<path d="M91.0522 10.5498H83.4519L81.7859 14.2376H80.7562L86.7841 1.13361H87.7388L93.7667 14.2376H92.737L91.0522 10.5498ZM90.6966 9.74481L87.2521 2.18193L83.8263 9.74481H90.6966Z" fill="white"/>
<path d="M99.59 14.3312C98.6291 14.3312 97.7118 14.169 96.8382 13.8445C95.9771 13.5075 95.3032 13.077 94.8164 12.5528L95.247 11.8414C95.7088 12.3282 96.3265 12.7275 97.1003 13.0395C97.8865 13.339 98.7102 13.4888 99.5713 13.4888C100.819 13.4888 101.762 13.2517 102.398 12.7774C103.035 12.3032 103.353 11.6854 103.353 10.9242C103.353 10.3376 103.184 9.86961 102.847 9.52017C102.51 9.17073 102.092 8.90241 101.593 8.71521C101.094 8.52801 100.42 8.33457 99.5713 8.13489C98.6104 7.89777 97.8366 7.66689 97.25 7.44225C96.676 7.21761 96.183 6.87441 95.7712 6.41265C95.3718 5.93841 95.1721 5.30817 95.1721 4.52193C95.1721 3.88545 95.3406 3.30513 95.6776 2.78097C96.0145 2.24433 96.5262 1.82001 97.2126 1.50801C97.9115 1.19601 98.7788 1.04001 99.8147 1.04001C100.539 1.04001 101.25 1.14609 101.949 1.35825C102.648 1.57041 103.253 1.85745 103.765 2.21937L103.409 2.98689C102.885 2.62497 102.304 2.35041 101.668 2.16321C101.044 1.97601 100.426 1.88241 99.8147 1.88241C98.6041 1.88241 97.6868 2.12577 97.0628 2.61249C96.4388 3.09921 96.1268 3.72945 96.1268 4.50321C96.1268 5.08977 96.2953 5.55777 96.6323 5.90721C96.9692 6.25665 97.3873 6.52497 97.8865 6.71217C98.3857 6.89937 99.0659 7.09905 99.927 7.31121C100.888 7.54833 101.655 7.77921 102.23 8.00385C102.804 8.22849 103.29 8.57169 103.69 9.03345C104.102 9.48273 104.307 10.0942 104.307 10.868C104.307 11.5045 104.133 12.0848 103.783 12.609C103.446 13.1331 102.922 13.5512 102.211 13.8632C101.499 14.1752 100.626 14.3312 99.59 14.3312Z" fill="white"/>
<path d="M107.553 1.13361H108.508V14.2376H107.553V1.13361Z" fill="white"/>
<path d="M116.968 7.77921L114.029 10.7931V14.2376H113.074V1.13361H114.029V9.55761L122.209 1.13361H123.37L117.604 7.08657L123.763 14.2376H122.602L116.968 7.77921Z" fill="white"/>
<path d="M38.094 23.972C37.7369 23.972 37.4145 23.8923 37.1268 23.7328C36.839 23.5699 36.612 23.348 36.4456 23.0672C36.2826 22.7864 36.2012 22.4727 36.2012 22.126C36.2012 21.7793 36.2826 21.4656 36.4456 21.1848C36.612 20.904 36.839 20.6839 37.1268 20.5244C37.4145 20.3615 37.7369 20.28 38.094 20.28C38.451 20.28 38.7734 20.3597 39.0612 20.5192C39.3489 20.6787 39.5742 20.8988 39.7372 21.1796C39.9036 21.4604 39.9868 21.7759 39.9868 22.126C39.9868 22.4761 39.9036 22.7916 39.7372 23.0724C39.5742 23.3532 39.3489 23.5733 39.0612 23.7328C38.7734 23.8923 38.451 23.972 38.094 23.972ZM38.094 23.7276C38.399 23.7276 38.6746 23.6583 38.9208 23.5196C39.1669 23.3809 39.361 23.1903 39.5032 22.9476C39.6453 22.7015 39.7164 22.4276 39.7164 22.126C39.7164 21.8244 39.6453 21.5523 39.5032 21.3096C39.361 21.0635 39.1669 20.8711 38.9208 20.7324C38.6746 20.5937 38.399 20.5244 38.094 20.5244C37.7889 20.5244 37.5116 20.5937 37.262 20.7324C37.0158 20.8711 36.8217 21.0635 36.6796 21.3096C36.5374 21.5523 36.4664 21.8244 36.4664 22.126C36.4664 22.4276 36.5374 22.7015 36.6796 22.9476C36.8217 23.1903 37.0158 23.3809 37.262 23.5196C37.5116 23.6583 37.7889 23.7276 38.094 23.7276Z" fill="white"/>
<path d="M42.0072 20.306H44.602V20.54H42.2724V21.8504H43.5048C43.9312 21.8504 44.2553 21.9371 44.4772 22.1104C44.699 22.2837 44.81 22.5385 44.81 22.8748C44.81 23.2215 44.6921 23.4867 44.4564 23.6704C44.2206 23.8541 43.8792 23.946 43.432 23.946H42.0072V20.306ZM43.4372 23.7224C43.8012 23.7224 44.0768 23.6531 44.264 23.5144C44.4512 23.3723 44.5448 23.1625 44.5448 22.8852C44.5448 22.3409 44.1756 22.0688 43.4372 22.0688H42.2724V23.7224H43.4372Z" fill="white"/>
<path d="M48.1102 20.306C48.5678 20.306 48.9266 20.4152 49.1866 20.6336C49.4466 20.8485 49.5766 21.1484 49.5766 21.5332C49.5766 21.9145 49.4466 22.2144 49.1866 22.4328C48.9266 22.6477 48.5678 22.7552 48.1102 22.7552H47.0702V23.946H46.805V20.306H48.1102ZM48.1102 22.516C48.4985 22.516 48.7949 22.4311 48.9994 22.2612C49.2039 22.0913 49.3062 21.8487 49.3062 21.5332C49.3062 21.2177 49.2039 20.9751 48.9994 20.8052C48.7949 20.6319 48.4985 20.5452 48.1102 20.5452H47.0702V22.516H48.1102Z" fill="white"/>
<path d="M53.8804 20.306V23.946H53.6152V22.802H52.4556C52.3655 22.802 52.2806 22.7968 52.2008 22.7864L51.3948 23.946H51.1088L51.9512 22.7396C51.6808 22.6633 51.4728 22.5264 51.3272 22.3288C51.1816 22.1277 51.1088 21.8764 51.1088 21.5748C51.1088 21.1727 51.2336 20.8607 51.4832 20.6388C51.7363 20.4169 52.0778 20.306 52.5076 20.306H53.8804ZM51.3792 21.5696C51.3792 21.892 51.4728 22.1399 51.66 22.3132C51.8472 22.4865 52.1211 22.5732 52.4816 22.5732H53.6152V20.5452H52.5284C52.161 20.5452 51.8767 20.6336 51.6756 20.8104C51.478 20.9837 51.3792 21.2368 51.3792 21.5696Z" fill="white"/>
<path d="M59.4066 23.7068V24.778H59.1518V23.946H55.8238L55.8186 24.778H55.5638L55.569 23.7068H55.7666C56.0058 23.686 56.1722 23.4849 56.2658 23.1036C56.3629 22.7223 56.4218 22.1884 56.4426 21.502L56.479 20.306H58.845V23.7068H59.4066ZM56.687 21.5228C56.6662 22.1121 56.6194 22.594 56.5466 22.9684C56.4773 23.3428 56.3577 23.5889 56.1878 23.7068H58.5798V20.5452H56.7182L56.687 21.5228Z" fill="white"/>
<path d="M62.7561 21.6372C63.186 21.6372 63.5118 21.7325 63.7337 21.9232C63.959 22.1139 64.0717 22.3964 64.0717 22.7708C64.0717 23.1556 63.9521 23.4485 63.7129 23.6496C63.4772 23.8472 63.1357 23.946 62.6885 23.946H61.2949V20.306H61.5601V21.6372H62.7561ZM62.6937 23.7224C63.0577 23.7224 63.3333 23.6427 63.5205 23.4832C63.7077 23.3237 63.8013 23.088 63.8013 22.776C63.8013 22.1659 63.4321 21.8608 62.6937 21.8608H61.5601V23.7224H62.6937ZM64.7425 20.306H65.0077V23.946H64.7425V20.306Z" fill="white"/>
<path d="M69.6235 20.306L70.7207 21.84L71.8231 20.306H72.1403L70.8871 22.0584L72.2391 23.946H71.9219L70.7207 22.282L69.5299 23.946H69.2179L70.5595 22.0636L69.3115 20.306H69.6235Z" fill="white"/>
<path d="M76.2146 22.9216H74.1034L73.6406 23.946H73.3546L75.029 20.306H75.2942L76.9686 23.946H76.6826L76.2146 22.9216ZM76.1158 22.698L75.159 20.5972L74.2074 22.698H76.1158Z" fill="white"/>
<path d="M82.0093 23.7068V24.778H81.7546V23.946H78.4265L78.4213 24.778H78.1665L78.1717 23.7068H78.3694C78.6085 23.686 78.7749 23.4849 78.8685 23.1036C78.9656 22.7223 79.0246 22.1884 79.0453 21.502L79.0817 20.306H81.4478V23.7068H82.0093ZM79.2898 21.5228C79.269 22.1121 79.2221 22.594 79.1493 22.9684C79.08 23.3428 78.9604 23.5889 78.7906 23.7068H81.1826V20.5452H79.3209L79.2898 21.5228Z" fill="white"/>
<path d="M86.7628 22.2196H85.962V23.946H85.702V22.2196H84.9012L83.7 23.946H83.3828L84.6828 22.074L83.4816 20.306H83.7832L84.896 21.9804H85.702V20.306H85.962V21.9804H86.7628L87.8808 20.306H88.1772L86.9812 22.074L88.2812 23.946H87.964L86.7628 22.2196Z" fill="white"/>
<path d="M92.2584 22.9216H90.1472L89.6844 23.946H89.3984L91.0728 20.306H91.338L93.0124 23.946H92.7264L92.2584 22.9216ZM92.1596 22.698L91.2028 20.5972L90.2512 22.698H92.1596Z" fill="white"/>
<path d="M97.184 20.306H97.4492V23.4988L99.9296 20.306H100.164V23.946H99.8984V20.7584L97.418 23.946H97.184V20.306Z" fill="white"/>
<path d="M107.647 20.306L105.967 23.4156C105.86 23.6167 105.731 23.7657 105.582 23.8628C105.437 23.9599 105.281 24.0084 105.114 24.0084C104.986 24.0084 104.847 23.9772 104.698 23.9148L104.781 23.6964C104.899 23.7449 105.01 23.7692 105.114 23.7692C105.36 23.7692 105.565 23.6323 105.728 23.3584L105.853 23.1452L104.36 20.306H104.651L105.998 22.8956L107.371 20.306H107.647Z" fill="white"/>
<path d="M112.786 23.946L112.78 20.8312L111.257 23.4624H111.127L109.603 20.8416V23.946H109.343V20.306H109.567L111.194 23.1192L112.822 20.306H113.04L113.046 23.946H112.786Z" fill="white"/>
<path d="M116.7 20.306C117.158 20.306 117.517 20.4152 117.777 20.6336C118.037 20.8485 118.167 21.1484 118.167 21.5332C118.167 21.9145 118.037 22.2144 117.777 22.4328C117.517 22.6477 117.158 22.7552 116.7 22.7552H115.66V23.946H115.395V20.306H116.7ZM116.7 22.516C117.089 22.516 117.385 22.4311 117.59 22.2612C117.794 22.0913 117.896 21.8487 117.896 21.5332C117.896 21.2177 117.794 20.9751 117.59 20.8052C117.385 20.6319 117.089 20.5452 116.7 20.5452H115.66V22.516H116.7Z" fill="white"/>
<path d="M121.517 21.6372C121.947 21.6372 122.273 21.7325 122.495 21.9232C122.72 22.1139 122.833 22.3964 122.833 22.7708C122.833 23.1556 122.713 23.4485 122.474 23.6496C122.238 23.8472 121.897 23.946 121.45 23.946H120.056V20.306H120.321V21.6372H121.517ZM121.455 23.7224C121.819 23.7224 122.094 23.6427 122.282 23.4832C122.469 23.3237 122.562 23.088 122.562 22.776C122.562 22.1659 122.193 21.8608 121.455 21.8608H120.321V23.7224H121.455ZM123.504 20.306H123.769V23.946H123.504V20.306Z" fill="white"/>
<path fill-rule="evenodd" clip-rule="evenodd" d="M14.1818 0V5.28193L26 12.6129V9.45455C26 4.23294 21.7671 0 16.5455 0H14.1818ZM14.1818 7.50709L26 14.838V17.1605L25.9993 17.16L14.1818 9.92481V7.50709ZM12.2909 9.94131V7.52081L0 14.972V16.5455C0 16.7999 0.0100481 17.0519 0.0297691 17.3013L12.2909 9.94131ZM0.449943 19.4357L12.2909 12.2848V26H9.45455C5.241 26 1.67123 23.2437 0.449943 19.4357ZM14.1818 12.2648L25.9993 19.5L26 19.5005V26H14.1818V12.2648ZM0 0V12.7608L12.2909 5.30956V0H0Z" fill="white"/>
</svg>
