<svg width="20" height="20" viewBox="0 0 20 20" fill="none" xmlns="http://www.w3.org/2000/svg">
<path d="M18.6853 4.03768C19.5062 2.93879 19.9976 1.79788 20 0.982778C19.999 0.718824 19.946 0.512549 19.8453 0.358889C19.8347 0.340098 19.8057 0.290915 19.7545 0.242451C19.7036 0.191928 19.6578 0.164935 19.6479 0.159477C19.4868 0.0518954 19.2795 0 19.0155 0C18.2024 0.00137255 17.0612 0.492418 15.962 1.31471C15.0735 1.97958 14.1849 2.91592 12.9549 4.21252C12.7462 4.43242 12.5266 4.66363 12.2944 4.90608L9.91191 4.19203L9.91907 4.1852C10.0181 4.08513 10.0745 3.94752 10.0731 3.81229C10.0745 3.66954 10.0167 3.53193 9.91737 3.43291L9.48711 3.00196C9.38773 2.9019 9.25044 2.84454 9.10841 2.84454C8.96498 2.84454 8.83113 2.89987 8.73106 3.00095L8.08737 3.645L7.74655 3.54324C7.81998 3.45 7.8606 3.33356 7.85923 3.21882C7.8606 3.07402 7.80459 2.93915 7.70387 2.83909L7.27155 2.40676C7.17286 2.30775 7.03626 2.25105 6.89286 2.25105C6.75012 2.25105 6.61659 2.30673 6.51757 2.40745L5.92682 2.99788L3.50434 2.27222C3.45006 2.25618 3.39267 2.24765 3.3312 2.24765C3.15911 2.24971 2.99963 2.31356 2.88319 2.42899L2.03153 3.28098C1.93486 3.37761 1.88058 3.5084 1.88163 3.63235C1.87855 3.81503 1.97963 3.98373 2.14149 4.07046L7.23574 6.91637C7.26067 6.93036 7.33273 6.98366 7.35936 7.01029L8.81168 8.46229C7.45325 9.89343 6.24303 11.2795 5.29989 12.4853C5.21179 12.5973 5.12845 12.7066 5.04649 12.8148L1.10545 12.457C1.08633 12.4546 1.0648 12.4528 1.03748 12.4528C0.856823 12.4566 0.680288 12.528 0.549177 12.6547L0.15202 13.0515C0.0540139 13.1475 -0.00131285 13.2772 5.96941e-05 13.4025C-0.0030122 13.5938 0.112739 13.7706 0.286563 13.8481L3.05904 15.1649C3.08293 15.1769 3.14509 15.2209 3.16525 15.241L3.39541 15.4695C3.32336 15.6724 3.28682 15.8482 3.28476 16.0026C3.28408 16.2092 3.35068 16.386 3.47806 16.5134L3.48796 16.522L3.49068 16.524C3.62146 16.6507 3.79084 16.7153 4.00051 16.7153C4.15146 16.7129 4.32561 16.677 4.52914 16.6053L4.7627 16.8386C4.78081 16.8577 4.82417 16.9185 4.83545 16.9427L6.14946 19.7091C6.22972 19.8856 6.40283 20 6.59133 20H6.59404C6.7245 20 6.84914 19.9477 6.9444 19.8522L7.3511 19.4441C7.47162 19.3171 7.54266 19.1419 7.54538 18.9572C7.54538 18.9346 7.54436 18.9172 7.54368 18.9076L7.18479 14.9522C7.2927 14.8709 7.40198 14.7873 7.5143 14.6999C8.72178 13.7553 10.1082 12.5441 11.5366 11.1877L12.99 12.6424C13.0135 12.6649 13.0685 12.737 13.0846 12.7671L15.925 17.8521C16.0118 18.0163 16.1788 18.1178 16.3639 18.1178C16.496 18.1178 16.6217 18.0655 16.718 17.9686L17.5758 17.1114C17.6871 16.995 17.7496 16.8369 17.7513 16.6641C17.7513 16.606 17.7431 16.5497 17.7281 16.4968L17.0024 14.0736L17.5928 13.4822C17.6922 13.3834 17.7486 13.2462 17.7486 13.1052C17.7486 12.9634 17.6936 12.8303 17.5935 12.7288L17.1605 12.2962C17.0615 12.1968 16.9245 12.1401 16.7835 12.1401C16.664 12.1401 16.5473 12.1801 16.4561 12.2522L16.3546 11.9127L16.999 11.2683C17.098 11.169 17.1544 11.0317 17.1544 10.8903C17.1544 10.7479 17.0994 10.6144 16.999 10.5143L16.568 10.0834C16.4686 9.98261 16.3307 9.92559 16.189 9.92559C16.0466 9.92559 15.9086 9.9833 15.8113 10.0827L15.8068 10.0868L15.0931 7.70458C15.3397 7.46964 15.5736 7.24595 15.7973 7.03526C17.0893 5.80928 18.0222 4.92415 18.6853 4.03768Z" fill="#46C8FF"/>
</svg>
