<svg width="20" height="18" viewBox="0 0 20 18" fill="none" xmlns="http://www.w3.org/2000/svg">
<path fill-rule="evenodd" clip-rule="evenodd" d="M19.7715 1.78695C19.6192 1.63294 19.439 1.55591 19.2307 1.55591H4.79569C4.78756 1.49923 4.76955 1.39598 4.74151 1.24606C4.71347 1.09605 4.6915 0.976568 4.67546 0.88732C4.65933 0.798456 4.62944 0.690985 4.58528 0.565374C4.54121 0.439679 4.48913 0.340298 4.42906 0.267529C4.36907 0.194377 4.28896 0.131742 4.18877 0.0789004C4.08866 0.0263995 3.9744 0 3.84626 0H0.769378C0.56091 0 0.380648 0.0771546 0.228422 0.230953C0.0761548 0.384921 0 0.567376 0 0.778061C0 0.988746 0.0761548 1.17111 0.228422 1.32508C0.380774 1.47909 0.561078 1.55604 0.769378 1.55604H3.22102L5.3483 11.5613C5.33239 11.5936 5.25026 11.7475 5.10195 12.0232C4.95372 12.2989 4.83556 12.5399 4.74749 12.7465C4.65938 12.9534 4.6153 13.1134 4.6153 13.2268C4.6153 13.4375 4.69145 13.6199 4.84364 13.7741C4.99607 13.9276 5.17629 14.0049 5.38463 14.0049H6.1463C5.72392 14.0062 5.36313 14.1583 5.06398 14.4607C4.76361 14.7647 4.61328 15.1313 4.61328 15.561C4.61328 15.9907 4.76344 16.3573 5.06398 16.661C5.3646 16.965 5.72702 17.117 6.15182 17.117C6.57638 17.117 6.93901 16.965 7.23942 16.661C7.53995 16.3573 7.69028 15.9907 7.69028 15.561C7.69028 15.1313 7.54008 14.7647 7.23942 14.4607C6.94027 14.1583 6.57952 14.0062 6.15735 14.0049H16.9201C16.4975 14.0062 16.1366 14.1583 15.8376 14.4607C15.5374 14.7647 15.3867 15.1313 15.3867 15.561C15.3867 15.9907 15.5374 16.3573 15.8376 16.661C16.1379 16.965 16.5006 17.117 16.9256 17.117C17.35 17.117 17.7128 16.965 18.013 16.661C18.3136 16.3573 18.4639 15.9907 18.4639 15.561C18.4639 15.1313 18.3137 14.7647 18.013 14.4607C17.7141 14.1583 17.3532 14.0062 16.9312 14.0049H17.6918C17.9001 14.0049 18.0805 13.9277 18.2326 13.7741C18.385 13.6199 18.4611 13.4375 18.4611 13.2268C18.4611 13.016 18.385 12.8336 18.2326 12.6798C18.0805 12.5259 17.9002 12.4486 17.6918 12.4486H6.63443C6.82682 12.0595 6.92297 11.8005 6.92297 11.6708C6.92297 11.5895 6.91295 11.5003 6.89287 11.4033C6.87279 11.3062 6.84879 11.1987 6.82076 11.081C6.79268 10.9638 6.77474 10.8766 6.76675 10.8198L19.3151 9.33673C19.5152 9.31224 19.6796 9.22542 19.8078 9.07529C19.936 8.92549 20 8.7533 20 8.55867V2.33422C19.9999 2.12354 19.9239 1.94117 19.7715 1.78695Z" fill="#FB9721"/>
</svg>
