<svg width="17" height="21" viewBox="0 0 17 21" fill="none" xmlns="http://www.w3.org/2000/svg">
<path fill-rule="evenodd" clip-rule="evenodd" d="M2.73908 7.98585H13.2666C13.5085 7.98585 13.7053 7.78718 13.7053 7.54215C13.7053 7.29827 13.5085 7.09883 13.2666 7.09883H13.2441C13.0457 4.6638 11.2268 2.69677 8.88019 2.29828V1.66388H8.1125V0.110925C8.1125 0.0505241 8.0633 0 8.00283 0C7.94237 0 7.89316 0.0505241 7.89316 0.110925V1.6635H7.12586V2.2979C4.77923 2.69639 2.96068 4.66342 2.76124 7.09845H2.73908C2.49721 7.09845 2.30078 7.29789 2.30078 7.54177C2.30078 7.78718 2.49721 7.98585 2.73908 7.98585ZM15.4622 19.1201H14.9139V14.0176H15.4622C15.7657 14.0176 16.0106 13.7706 16.0106 13.4629C16.0106 13.1579 15.7657 12.9083 15.4622 12.9083H0.548346C0.245629 12.9083 0 13.1579 0 13.4629C0 13.7706 0.245629 14.0176 0.548346 14.0176H1.09669V19.1201H0.548346C0.245629 19.1201 0 19.3693 0 19.6743C0 19.9824 0.245629 20.229 0.548346 20.229H15.4622C15.7657 20.229 16.0106 19.9824 16.0106 19.6743C16.0106 19.3701 15.7657 19.1201 15.4622 19.1201ZM13.3785 19.1201H12.4576V14.0176H13.3785V19.1201ZM7.54465 14.0176H8.46557V19.1201H7.54465V14.0176ZM6.00965 19.1201H5.08835V14.0176H6.00965V19.1201ZM10.0013 14.0176H10.9222V19.1201H10.0013V14.0176ZM2.63169 14.0176H3.55261V19.1201H2.63169V14.0176ZM2.6326 9.8715H2.08012C1.77703 9.8715 1.53516 9.62268 1.53516 9.31688C1.53516 9.01032 1.78116 8.76226 2.0835 8.76226H13.9263C14.2298 8.76226 14.4746 9.01032 14.4746 9.31688C14.4746 9.6242 14.2298 9.8715 13.9263 9.8715H13.3738C13.3738 9.87434 13.3748 9.87758 13.3758 9.88105C13.377 9.88502 13.3783 9.88928 13.3783 9.89354V12.2875H12.2816V9.89354C12.2816 9.89074 12.2825 9.88762 12.2834 9.88425C12.2846 9.88031 12.2858 9.87602 12.2858 9.8715H11.7648C11.7648 9.87434 11.7658 9.87758 11.7669 9.88105C11.7681 9.88502 11.7693 9.88928 11.7693 9.89354V12.2875H10.6726V9.89354C10.6726 9.89074 10.6736 9.88762 10.6746 9.88425C10.6758 9.88031 10.6771 9.87602 10.6771 9.8715H10.1562C10.1562 9.87434 10.1571 9.87758 10.1581 9.88105C10.1592 9.88502 10.1604 9.88928 10.1604 9.89354V12.2875H9.06366V9.89354C9.06366 9.89074 9.06461 9.88762 9.06564 9.88425C9.06685 9.88031 9.06816 9.87602 9.06816 9.8715H8.54723C8.54723 9.87434 8.54821 9.87758 8.54926 9.88105C8.55046 9.88502 8.55174 9.88928 8.55174 9.89354V12.2875H7.45505V9.89354C7.45505 9.89074 7.456 9.88762 7.45703 9.88425C7.45824 9.88031 7.45956 9.87602 7.45956 9.8715H6.93863C6.93863 9.87434 6.93961 9.87758 6.94065 9.88105C6.94185 9.88502 6.94313 9.88928 6.94313 9.89354V12.2875H5.84644V9.89354C5.84644 9.89074 5.84731 9.88762 5.84826 9.88425C5.84937 9.88031 5.85057 9.87602 5.85057 9.8715H5.32964C5.32964 9.87434 5.33054 9.87758 5.3315 9.88105C5.33259 9.88502 5.33377 9.88928 5.33377 9.89354V12.2875H4.23745V9.89354C4.23745 9.89074 4.23833 9.88762 4.23927 9.88425C4.24038 9.88031 4.24159 9.87602 4.24159 9.8715H3.72066C3.72066 9.87434 3.72155 9.87758 3.72251 9.88105C3.72361 9.88502 3.72479 9.88928 3.72479 9.89354V12.2875H2.62809V9.89354C2.62809 9.89074 2.62905 9.88762 2.63008 9.88425C2.63129 9.88031 2.6326 9.87602 2.6326 9.8715Z" fill="#D9B24F"/>
</svg>
