<svg width="13" height="20" viewBox="0 0 13 20" fill="none" xmlns="http://www.w3.org/2000/svg">
<path d="M12.5543 15.6008L10.9988 12.796C10.192 11.3427 8.70821 10.3817 7.08222 10.1939V9.00528C7.45745 8.78687 7.66708 8.40029 7.66708 7.95866C7.66708 7.51748 7.45701 7.13046 7.08222 6.91248V5.12764C8.01809 4.57376 8.64567 3.56034 8.64567 2.40059C8.64567 1.48895 8.25723 0.667727 7.63626 0.0893791C7.52747 -0.0119628 7.36364 -0.0289987 7.23636 0.0478813C7.10909 0.124325 7.04875 0.276337 7.08839 0.41874C7.1659 0.690878 7.2073 0.977868 7.2073 1.27403C7.2073 3.02655 5.77509 4.44708 4.00772 4.44708C3.96633 4.44708 3.92493 4.44621 3.88309 4.44446C3.73467 4.43922 3.59946 4.5327 3.55454 4.67335C3.50874 4.81401 3.56291 4.96777 3.68755 5.04902C4.19181 5.38056 4.79694 5.57363 5.44698 5.57363C5.60641 5.57363 5.76364 5.5614 5.91646 5.53956V6.91248C5.54123 7.13046 5.33115 7.51748 5.33115 7.95866C5.33115 8.40029 5.54167 8.78687 5.91646 9.00528V10.1939C4.29135 10.3817 2.81598 11.3427 2.00915 12.796L0.455824 15.6008C0.11847 16.2023 0 16.8794 0 17.5669V19.2382C0 19.6588 0.229453 20 0.653127 20H12.3733C12.7979 20 13 19.6588 13 19.2382V17.5669C12.9996 16.8794 12.8921 16.2023 12.5543 15.6008Z" fill="#057F3D"/>
</svg>
