<svg width="20" height="21" viewBox="0 0 20 21" fill="none" xmlns="http://www.w3.org/2000/svg">
<path fill-rule="evenodd" clip-rule="evenodd" d="M4.72656 15.4878C7.31125 15.4878 9.41406 13.0557 9.41406 10.1145C9.41406 8.05353 8.38041 6.76173 8.10412 6.41645L8.1041 6.41642C8.06964 6.37335 8.04696 6.34502 8.03955 6.33175C8.04567 6.29748 8.0563 6.25042 8.06958 6.19159C8.12915 5.92777 8.24219 5.42718 8.24219 4.78068C8.24219 2.1664 6.66519 0 4.72656 0C2.78793 0 1.17188 2.1664 1.17188 4.78068C1.17188 5.42861 1.28629 5.93473 1.34542 6.19626C1.35836 6.2535 1.36865 6.29902 1.37451 6.33175C1.3671 6.34502 1.34413 6.37312 1.30919 6.41589C1.03185 6.7553 0 8.01812 0 10.1145C0 13.0557 2.14188 15.4878 4.72656 15.4878ZM0.585938 20.229H19.4141C19.7379 20.229 20 19.9639 20 19.6364C20 19.3089 19.7379 19.0437 19.4141 19.0437H18.8281V17.8584H19.4141C19.7379 17.8584 20 17.5933 20 17.2658C20 16.9383 19.7379 16.6731 19.4141 16.6731H18.8281V14.8952C18.8281 14.5677 18.566 14.3025 18.2422 14.3025H14.6875C14.3637 14.3025 14.1016 14.5677 14.1016 14.8952V16.6731H13.5156C13.1918 16.6731 12.9297 16.9383 12.9297 17.2658C12.9297 17.5933 13.1918 17.8584 13.5156 17.8584H14.1016V19.0437H11.7578V16.5418C11.3791 16.6276 10.9872 16.6731 10.5859 16.6731C10.1907 16.6731 9.7998 16.6228 9.41406 16.5324V19.0437H5.89844V16.5418C5.51971 16.6276 5.12787 16.6731 4.72656 16.6731C4.32526 16.6731 3.93341 16.6276 3.55469 16.5418V19.0437H0.585938C0.262146 19.0437 0 19.3089 0 19.6364C0 19.9639 0.262146 20.229 0.585938 20.229ZM15.2734 17.8584H17.6562V19.0437H15.2734V17.8584ZM10.5827 10.1145C10.5827 9.07737 10.3538 7.57199 9.29352 6.04994C9.35257 5.72815 9.41086 5.2923 9.41086 4.78068C9.41086 3.3912 9.01474 2.08908 8.37891 1.07741C8.98376 0.414235 9.74426 0 10.5827 0C12.5214 0 14.0984 2.1664 14.0984 4.78068C14.0984 5.42861 13.9839 5.93473 13.9248 6.19626C13.9119 6.2535 13.9016 6.29902 13.8957 6.33175C13.9031 6.34502 13.9261 6.37312 13.961 6.41589C14.2384 6.7553 15.2702 8.01812 15.2702 10.1145C15.2702 13.0557 13.1674 15.4878 10.5827 15.4878C9.88663 15.4878 9.23126 15.3029 8.63678 14.992C9.82818 13.7979 10.5827 12.0347 10.5827 10.1145Z" fill="#34C175"/>
</svg>
