<svg width="15" height="12" viewBox="0 0 15 12" fill="none" xmlns="http://www.w3.org/2000/svg">
<path fill-rule="evenodd" clip-rule="evenodd" d="M10.9989 6.46063C10.4744 7.12163 9.75867 7.64386 8.85197 8.02752C7.94519 8.41124 6.95878 8.60295 5.89285 8.60257C5.41297 8.60257 4.92189 8.55778 4.4197 8.46815C3.72776 8.96098 2.95203 9.3196 2.09265 9.54353C1.89179 9.594 1.65179 9.63878 1.37283 9.67798H1.3477C1.28625 9.67798 1.22911 9.65564 1.17613 9.61092C1.12312 9.56589 1.09105 9.50719 1.07988 9.43448C1.07419 9.41759 1.07144 9.39946 1.07144 9.37992C1.07144 9.36038 1.07284 9.34205 1.07566 9.32536C1.07841 9.30844 1.0841 9.29191 1.09237 9.27499L1.11333 9.23311L1.14265 9.18688C1.16218 9.15608 1.17335 9.14207 1.17616 9.1451C1.17892 9.14772 1.19146 9.1338 1.21383 9.10299C1.23617 9.07218 1.24735 9.0595 1.24735 9.06512C1.2752 9.0316 1.3394 8.9616 1.43988 8.85516C1.54038 8.74893 1.61291 8.66613 1.65757 8.60733C1.70225 8.54872 1.76496 8.46756 1.84588 8.36383C1.92685 8.26013 1.99654 8.1524 2.05518 8.04041C2.11379 7.92823 2.17099 7.80517 2.22675 7.67064C1.53484 7.26744 0.990722 6.77166 0.594574 6.1837C0.198397 5.59561 0 4.96804 0 4.30159C0 3.523 0.26231 2.80338 0.786843 2.14238C1.31132 1.48147 2.02701 0.959179 2.93379 0.57546C3.84066 0.191889 4.82696 0 5.89279 0C6.95872 0 7.94501 0.191771 8.85183 0.57546C9.75864 0.959208 10.4743 1.4815 10.9987 2.14238C11.5234 2.80327 11.7856 3.523 11.7856 4.30156C11.7856 5.08009 11.5234 5.79977 10.9989 6.46063ZM15 6.45275C15 7.12497 14.802 7.7535 14.4057 8.33879C14.0095 8.92429 13.4656 9.41859 12.7736 9.82223C12.8294 9.95656 12.8866 10.0798 12.9452 10.1918C13.0038 10.3039 13.0736 10.4118 13.1545 10.5153C13.2354 10.619 13.2982 10.7002 13.3428 10.759C13.3875 10.8178 13.4599 10.9004 13.5604 11.0067C13.6608 11.1132 13.725 11.1832 13.7529 11.2168C13.7585 11.2224 13.7697 11.2352 13.7864 11.2546C13.8032 11.274 13.8157 11.2881 13.8239 11.2965C13.8323 11.3048 13.8434 11.3191 13.8574 11.3385C13.8714 11.358 13.8809 11.3735 13.8867 11.3846L13.9076 11.4265L13.9242 11.477C13.9353 11.5105 13.9367 11.5288 13.9284 11.5315C13.92 11.5341 13.9174 11.5526 13.92 11.5862C13.9034 11.6646 13.8671 11.726 13.8113 11.7708C13.7555 11.8156 13.694 11.8352 13.6271 11.8296C13.348 11.7905 13.1081 11.7458 12.9072 11.6952C12.0478 11.471 11.2721 11.1127 10.5802 10.6196C10.0779 10.7092 9.58686 10.7542 9.10689 10.7542C7.59468 10.7542 6.27767 10.3844 5.15607 9.64516C5.47968 9.66752 5.72525 9.67862 5.8926 9.67862C6.79106 9.67862 7.65329 9.55249 8.47901 9.30053C9.30497 9.04839 10.0416 8.68722 10.6889 8.21672C11.3865 7.70132 11.9222 7.10764 12.2961 6.43562C12.6702 5.7634 12.8569 5.05203 12.8569 4.30153C12.8569 3.87015 12.7927 3.44447 12.6645 3.02441C13.3843 3.4221 13.9535 3.9207 14.3721 4.51992C14.7905 5.11919 15 5.76372 15 6.45275Z" fill="#414141"/>
</svg>
