<svg width="15" height="15" viewBox="0 0 15 15" fill="none" xmlns="http://www.w3.org/2000/svg">
<path d="M3.32536 8.92819C2.55557 8.92819 1.93164 9.55186 1.93164 10.3218C1.93164 11.0917 2.55552 11.7154 3.32536 11.7154C4.09546 11.7154 4.71917 11.0917 4.71917 10.3218C4.71917 9.55181 4.09546 8.92819 3.32536 8.92819ZM3.32536 10.9276C2.99073 10.9276 2.71958 10.6565 2.71958 10.3218C2.71958 9.98698 2.99073 9.71596 3.32536 9.71596C3.66003 9.71596 3.93139 9.98698 3.93139 10.3218C3.93139 10.6565 3.66003 10.9276 3.32536 10.9276Z" fill="#FFB800"/>
<path d="M11.5069 8.92819C10.7371 8.92819 10.1133 9.55186 10.1133 10.3218C10.1133 11.0917 10.7371 11.7154 11.5069 11.7154C12.277 11.7154 12.9007 11.0917 12.9007 10.3218C12.9007 9.55181 12.277 8.92819 11.5069 8.92819ZM11.5069 10.9276C11.1723 10.9276 10.9011 10.6565 10.9011 10.3218C10.9011 9.98698 11.1723 9.71596 11.5069 9.71596C11.8417 9.71596 12.113 9.98698 12.113 10.3218C12.113 10.6565 11.8417 10.9276 11.5069 10.9276Z" fill="#FFB800"/>
<path d="M14.1674 3.28467H1.66564C1.20762 3.28467 0.757938 3.65187 0.666299 4.10065L0.166585 5.92478C0.0749463 6.37356 0 7.11549 0 7.57356V9.48899C0 9.94697 0.374774 10.3217 0.832798 10.3217H1.68195C1.68195 9.41563 2.41925 8.67836 3.32546 8.67836C4.23175 8.67836 4.9691 9.41554 4.9691 10.3217H9.86385C9.86385 9.41563 10.6012 8.67836 11.5074 8.67836C12.4137 8.67836 13.151 9.41554 13.151 10.3217H14.1672C14.6253 10.3217 15 9.94706 15 9.48899V4.11742C15.0002 3.6594 14.6254 3.28467 14.1674 3.28467ZM3.4608 6.7985H1.51998L1.82756 6.07005C1.88123 5.94293 1.8217 5.79638 1.69462 5.7427C1.56741 5.68903 1.4209 5.74861 1.36731 5.87569L0.985944 6.77894C0.72849 6.71127 0.571792 6.47016 0.624823 6.18442L1.07253 4.39786C1.13524 4.06011 1.46759 3.78374 1.81112 3.78374H3.46084L3.4608 6.7985ZM7.16672 6.7985H3.96047V3.78374H7.16672V6.7985ZM10.8726 6.7985H7.66639V3.78374H10.8726V6.7985ZM14.4895 6.17393C14.4895 6.51746 14.2084 6.79854 13.8648 6.79854H11.3723V3.78378H13.8648C14.2084 3.78378 14.4895 4.06486 14.4895 4.40839V6.17393Z" fill="#FFB800"/>
</svg>
