<svg width="82" height="13" viewBox="0 0 82 13" fill="none" xmlns="http://www.w3.org/2000/svg">
<path d="M81.1504 5.24825L81.1504 5.24819C81.2682 5.13346 81.3091 4.96861 81.2581 4.8114L81.7337 4.65711M81.1504 5.24825L77.5518 3.34882M81.1504 5.24825L78.8883 7.45347L78.8881 7.45365C78.6747 7.66194 78.5759 7.96227 78.6266 8.25798M81.1504 5.24825L78.6266 8.25798M81.7337 4.65711L81.2582 4.81173C81.2071 4.65482 81.0774 4.5454 80.914 4.52156C80.914 4.52155 80.9139 4.52154 80.9139 4.52154L77.7876 4.06727L77.7874 4.06725C77.4917 4.02419 77.2356 3.83855 77.1032 3.56973M81.7337 4.65711C81.8433 4.99505 81.7536 5.35858 81.4994 5.60627M81.7337 4.65711C81.6238 4.31918 81.3376 4.07795 80.9859 4.02675L81.4994 5.60627M77.1032 3.56973L77.5518 3.34882M77.1032 3.56973L77.1034 3.57007L77.5518 3.34882M77.1032 3.56973L75.7056 0.737324L75.7056 0.737204C75.633 0.58997 75.4885 0.5 75.3235 0.5C75.1589 0.5 75.0144 0.589899 74.9418 0.737204L74.9417 0.737341L73.5439 3.56999M77.5518 3.34882L76.154 0.516078C75.9971 0.197795 75.6785 0 75.3235 0C74.9688 0 74.6503 0.197795 74.4933 0.516078L73.0953 3.34908M73.5439 3.56999L73.0953 3.34908M73.5439 3.56999L73.5437 3.57034L73.0953 3.34908M73.5439 3.56999C73.4113 3.8392 73.1547 4.02451 72.8594 4.06751L72.8593 4.06753L69.7328 4.52182L69.7326 4.52184C69.5698 4.54544 69.4397 4.65489 69.3886 4.81199L68.9132 4.65737M73.0953 3.34908C73.0358 3.46982 72.9205 3.55334 72.7874 3.57273L69.6609 4.02701M81.4994 5.60627L79.2373 7.8115C79.1409 7.90561 79.0966 8.04084 79.1194 8.17348M81.4994 5.60627L78.6266 8.25798M69.6609 4.02701L71.5274 8.17348M69.6609 4.02701C69.3095 4.07795 69.023 4.31944 68.9132 4.65737M69.6609 4.02701L71.4095 7.8115L69.1474 5.60653C68.8932 5.35883 68.8035 4.9953 68.9132 4.65737M68.9132 4.65737L69.3888 4.81166C69.3378 4.96887 69.3787 5.13372 69.4964 5.24845L69.4964 5.24848L71.7585 7.45345L71.7587 7.45365C71.9722 7.66197 72.071 7.96265 72.0202 8.25817M72.0202 8.25817L71.5274 8.17348M72.0202 8.25817L72.0202 8.25794L71.5274 8.17348M72.0202 8.25817L71.4866 11.3715L71.4865 11.3721C71.464 11.5021 71.4967 11.6192 71.5778 11.7154L71.5783 11.716C71.7048 11.8663 71.9307 11.9118 72.1045 11.8205L72.3372 12.2631C71.9525 12.4653 71.4713 12.3654 71.1957 12.0379C71.0183 11.8277 70.9464 11.5611 70.9938 11.287L71.5274 8.17348M79.1194 8.17348L78.6266 8.25801L79.1605 11.3715L79.1606 11.3722C79.1831 11.502 79.1504 11.6193 79.0695 11.7151L79.069 11.7157C78.9844 11.8161 78.8645 11.8709 78.7409 11.8709C78.6742 11.8709 78.6089 11.8553 78.5431 11.8207L78.5428 11.8205L75.7465 10.3503L75.7449 10.3495C75.4846 10.2139 75.1644 10.212 74.9011 10.3501L74.9005 10.3504L72.1046 11.8205L79.4514 12.0379C79.629 11.8277 79.7006 11.5606 79.6533 11.287L79.1194 8.17348ZM79.1194 8.17348L78.6266 8.25798" stroke="#FFB800"/>
<path d="M64.2826 5.60627C64.5368 5.35858 64.6265 4.99505 64.5169 4.65711C64.407 4.31918 64.1208 4.07795 63.7691 4.02675L60.6427 3.57247C60.5095 3.55308 60.3944 3.46956 60.335 3.34882L58.9372 0.516078C58.7803 0.197795 58.4617 0 58.1067 0C57.752 0 57.4335 0.197795 57.2765 0.516078L55.8785 3.34908C55.819 3.46982 55.7037 3.55334 55.5706 3.57273L52.4441 4.02701C52.0927 4.07795 51.8062 4.31944 51.6964 4.65737C51.5867 4.9953 51.6765 5.35883 51.9306 5.60653L54.1927 7.8115C54.2892 7.90561 54.3334 8.0411 54.3106 8.17348L53.777 11.287C53.7296 11.5611 53.8015 11.8277 53.9789 12.0379C54.2545 12.3654 54.7357 12.4653 55.1204 12.2631L57.9164 10.7929C58.0333 10.7316 58.1804 10.7321 58.297 10.7929L61.0933 12.2631C61.2293 12.3347 61.3744 12.3709 61.5241 12.3709C61.7974 12.3709 62.0564 12.2494 62.2346 12.0379C62.4122 11.8277 62.4838 11.5606 62.4365 11.287L61.9026 8.17348C61.8799 8.04084 61.9241 7.90561 62.0205 7.8115L64.2826 5.60627Z" fill="#FFB800"/>
<path d="M47.0658 5.60627C47.32 5.35858 47.4097 4.99505 47.3001 4.65711C47.1902 4.31918 46.904 4.07795 46.5523 4.02675L43.4259 3.57247C43.2927 3.55308 43.1777 3.46956 43.1182 3.34882L41.7204 0.516078C41.5635 0.197795 41.2449 0 40.8899 0C40.5352 0 40.2167 0.197795 40.0597 0.516078L38.6617 3.34908C38.6022 3.46982 38.4869 3.55334 38.3538 3.57273L35.2273 4.02701C34.8759 4.07795 34.5894 4.31944 34.4796 4.65737C34.3699 4.9953 34.4597 5.35883 34.7138 5.60653L36.9759 7.8115C37.0724 7.90561 37.1166 8.0411 37.0938 8.17348L36.5602 11.287C36.5128 11.5611 36.5847 11.8277 36.7621 12.0379C37.0377 12.3654 37.5189 12.4653 37.9036 12.2631L40.6996 10.7929C40.8165 10.7316 40.9636 10.7321 41.0802 10.7929L43.8765 12.2631C44.0125 12.3347 44.1576 12.3709 44.3073 12.3709C44.5806 12.3709 44.8396 12.2494 45.0178 12.0379C45.1954 11.8277 45.267 11.5606 45.2197 11.287L44.6858 8.17348C44.6631 8.04084 44.7073 7.90561 44.8037 7.8115L47.0658 5.60627Z" fill="#FFB800"/>
<path d="M29.849 5.60627C30.1032 5.35858 30.1929 4.99505 30.0833 4.65711C29.9734 4.31918 29.6872 4.07795 29.3355 4.02675L26.2091 3.57247C26.0759 3.55308 25.9609 3.46956 25.9014 3.34882L24.5036 0.516078C24.3467 0.197795 24.0281 0 23.6731 0C23.3184 0 22.9999 0.197795 22.8429 0.516078L21.4449 3.34908C21.3854 3.46982 21.2701 3.55334 21.137 3.57273L18.0105 4.02701C17.6591 4.07795 17.3727 4.31944 17.2628 4.65737C17.1531 4.9953 17.2429 5.35883 17.497 5.60653L19.7591 7.8115C19.8556 7.90561 19.8998 8.0411 19.877 8.17348L19.3434 11.287C19.2961 11.5611 19.3679 11.8277 19.5453 12.0379C19.8209 12.3654 20.3021 12.4653 20.6868 12.2631L23.4829 10.7929C23.5997 10.7316 23.7468 10.7321 23.8634 10.7929L26.6597 12.2631C26.7957 12.3347 26.9408 12.3709 27.0905 12.3709C27.3638 12.3709 27.6229 12.2494 27.801 12.0379C27.9786 11.8277 28.0502 11.5606 28.0029 11.287L27.469 8.17348C27.4463 8.04084 27.4905 7.90561 27.5869 7.8115L29.849 5.60627Z" fill="#FFB800"/>
<path d="M12.6322 5.60627C12.8864 5.35858 12.9761 4.99505 12.8665 4.65711C12.7566 4.31918 12.4704 4.07795 12.1187 4.02675L8.99227 3.57247C8.85911 3.55308 8.74406 3.46956 8.68459 3.34882L7.28683 0.516078C7.12989 0.197795 6.81135 0 6.45635 0C6.10161 0 5.78307 0.197795 5.62613 0.516078L4.22811 3.34908C4.16865 3.46982 4.05333 3.55334 3.92017 3.57273L0.793714 4.02701C0.442336 4.07795 0.155856 4.31944 0.0459693 4.65737C-0.0636585 4.9953 0.0260605 5.35883 0.280221 5.60653L2.54233 7.8115C2.63877 7.90561 2.68298 8.0411 2.66023 8.17348L2.12657 11.287C2.07925 11.5611 2.15113 11.8277 2.3285 12.0379C2.60412 12.3654 3.0853 12.4653 3.47003 12.2631L6.26605 10.7929C6.38292 10.7316 6.53004 10.7321 6.64665 10.7929L9.44293 12.2631C9.57893 12.3347 9.72398 12.3709 9.87369 12.3709C10.147 12.3709 10.4061 12.2494 10.5842 12.0379C10.7618 11.8277 10.8334 11.5606 10.7861 11.287L10.2522 8.17348C10.2295 8.04084 10.2737 7.90561 10.3701 7.8115L12.6322 5.60627Z" fill="#FFB800"/>
</svg>
