<svg width="26" height="30" viewBox="0 0 26 30" fill="none" xmlns="http://www.w3.org/2000/svg">
<path fill-rule="evenodd" clip-rule="evenodd" d="M21.7732 18.741L25.7002 25.4901C25.9726 25.9583 25.7526 26.3608 25.2115 26.3846L22.5621 26.5C22.0208 26.5236 21.3425 26.9185 21.0543 27.3771L19.6444 29.6234C19.3563 30.0823 18.8978 30.0743 18.6254 29.6061C18.6254 29.6061 14.6737 22.8134 14.6726 22.8113C14.6071 22.6779 14.5175 22.7422 14.4807 22.7735C14.0284 23.1595 13.571 23.5056 13.0771 23.5056C12.5735 23.5056 11.9701 23.138 11.5372 22.7694C11.4991 22.737 11.4193 22.7179 11.3399 22.8107C11.3383 22.8126 7.3822 29.6426 7.3822 29.6426C7.11053 30.1115 6.65207 30.1201 6.36313 29.6618L4.94922 27.4182C4.66028 26.9599 3.98122 26.5665 3.4399 26.5437L0.790214 26.4332C0.248894 26.4104 0.0282155 26.0085 0.29997 25.5396L4.14037 18.9115C4.23311 18.7763 4.09618 18.6954 4.02378 18.6737C3.40342 18.488 2.78224 18.2948 2.50846 17.8242C2.22913 17.3439 2.37942 16.692 2.5278 16.0484C2.64656 15.5333 2.76409 15.0234 2.65917 14.6112C2.54869 14.177 2.19277 13.77 1.83764 13.3638C1.41227 12.8773 0.988031 12.392 0.988031 11.8631C0.988031 11.2572 1.45568 10.6935 1.90618 10.1504C2.25559 9.72922 2.59469 9.32047 2.69728 8.91406C2.8014 8.50149 2.68289 7.99183 2.56315 7.47693C2.41356 6.83363 2.26206 6.18214 2.54048 5.70157C2.81897 5.22089 3.45961 5.02817 4.09214 4.8379C4.59833 4.68563 5.09933 4.53492 5.40534 4.23943C5.72537 3.93035 5.8997 3.41974 6.07356 2.91049C6.28442 2.29288 6.49458 1.67729 6.96314 1.42566C7.43276 1.17331 8.06398 1.33621 8.69556 1.49921C9.21832 1.63412 9.74132 1.76909 10.1731 1.66871C10.247 1.65154 10.4384 1.49817 10.6973 1.29078C11.3126 0.797927 12.3087 0 13.0123 0C13.5489 0 14.0432 0.421352 14.5345 0.840142C14.9452 1.19016 15.3537 1.53838 15.7831 1.63734C16.2152 1.73692 16.738 1.60099 17.2606 1.46513C17.8918 1.30103 18.5226 1.13702 18.9927 1.38828C19.4617 1.63907 19.6729 2.25423 19.8849 2.87143C20.0597 3.38035 20.235 3.89065 20.5556 4.19922C20.8622 4.49418 21.3635 4.64398 21.87 4.79533C22.5028 4.98444 23.1438 5.17597 23.4231 5.65609C23.7024 6.13618 23.5521 6.78806 23.4037 7.4317C23.285 7.94681 23.1674 8.45664 23.2723 8.86891C23.3813 9.29736 23.7414 9.75748 24.1035 10.2204C24.5436 10.7827 24.9868 11.3492 24.9868 11.8678C24.9868 12.3964 24.5639 12.8823 24.1399 13.3694C23.7856 13.7764 23.4306 14.1843 23.3207 14.6188C23.2165 15.0311 23.335 15.5407 23.4547 16.0556C23.6043 16.699 23.7558 17.3506 23.4774 17.8313C23.1992 18.3117 22.5589 18.5044 21.9266 18.6946C21.8754 18.71 21.8241 18.7255 21.7732 18.741ZM8.25916 19.1739C10.9451 20.8681 14.4616 21.0508 17.3912 19.3464C21.5855 16.9063 23.0125 11.5086 20.5723 7.31426C19.7739 5.94195 18.659 4.86604 17.3732 4.12472C17.3424 4.1072 17.3116 4.08986 17.2807 4.07275C17.2747 4.06937 17.2687 4.06598 17.2626 4.06259C17.247 4.05377 17.2313 4.04495 17.2155 4.03635C13.0476 1.7664 7.7874 3.22392 5.39447 7.35456C3.02854 11.4381 4.32351 16.653 8.25916 19.1739ZM16.6846 5.33886C16.6968 5.34583 16.7091 5.3524 16.7213 5.35945C20.2543 7.40628 21.4631 11.9454 19.4164 15.4784C17.3697 19.0113 12.8305 20.2204 9.29749 18.1736C9.21041 18.1231 9.12521 18.0707 9.04097 18.0173C8.05043 17.4004 7.19188 16.5407 6.56535 15.4637C4.51212 11.9346 5.71304 7.39298 9.24228 5.33975C11.6205 3.95609 14.4582 4.05029 16.6846 5.33886ZM16.368 12.3409L17.6051 11.1351C17.9883 10.7617 17.8685 10.3931 17.3391 10.3161L15.6296 10.0677C15.1001 9.99078 14.4731 9.53524 14.2363 9.05545L13.4717 7.5064C13.235 7.02662 12.8475 7.02662 12.6107 7.5064L11.8462 9.05545C11.6093 9.53524 10.9823 9.99078 10.4528 10.0677L8.74336 10.3161C8.21387 10.3931 8.09405 10.7617 8.47728 11.1351L9.71428 12.3409C10.0974 12.7143 10.3369 13.4514 10.2464 13.9788L9.95442 15.6814C9.86394 16.2088 10.1774 16.4365 10.6511 16.1875L12.1801 15.3836C12.6537 15.1347 13.4287 15.1347 13.9023 15.3836L15.4314 16.1875C15.905 16.4365 16.2185 16.2088 16.128 15.6814L15.836 13.9788C15.7454 13.4514 15.9849 12.7143 16.368 12.3409Z" fill="url(#paint0_linear_257_170)"/>
<defs>
<linearGradient id="paint0_linear_257_170" x1="22.849" y1="30" x2="4.20467" y2="29.1193" gradientUnits="userSpaceOnUse">
<stop stop-color="#FF8A00"/>
<stop offset="1" stop-color="#FFC700"/>
</linearGradient>
</defs>
</svg>
