<svg width="30" height="30" viewBox="0 0 30 30" fill="none" xmlns="http://www.w3.org/2000/svg">
<path fill-rule="evenodd" clip-rule="evenodd" d="M28.5626 16.0358L29.0175 16.6567C29.7121 17.6095 29.4171 18.9496 28.3905 19.5151L27.7204 19.8901C26.9889 20.2958 26.5955 21.1257 26.7492 21.9494L26.8906 22.7055C27.1057 23.8612 26.2574 24.9431 25.0833 25.0107L24.3149 25.0538C23.4789 25.0968 22.7658 25.6746 22.5445 26.486L22.3416 27.2299C22.0281 28.3609 20.7987 28.9695 19.7106 28.5208L18.9975 28.2257C18.223 27.9061 17.3316 28.1151 16.7784 28.7482L16.2743 29.3261C15.5059 30.2174 14.1351 30.2236 13.3483 29.3506L12.838 28.779C12.2786 28.1519 11.3812 27.9552 10.6128 28.2872L9.90582 28.5884C8.82392 29.0556 7.58218 28.4716 7.25638 27.3405L7.04123 26.6028C6.80763 25.7976 6.08226 25.232 5.24624 25.1951L4.47784 25.1644C3.30373 25.1152 2.43697 24.0456 2.63368 22.8899L2.76277 22.1338C2.90416 21.304 2.49844 20.4802 1.76078 20.0868L1.08459 19.7241C0.0457076 19.1647 -0.2678 17.8308 0.408393 16.8718L0.850991 16.2448C1.33662 15.5563 1.32433 14.6404 0.83255 13.9642L0.377657 13.3433C-0.316977 12.3967 -0.0219117 11.0566 1.00467 10.4849L1.67472 10.1099C2.40623 9.70418 2.79966 8.87431 2.64598 8.05058L2.50459 7.29448C2.28944 6.1388 3.13775 5.05689 4.31187 4.98927L5.08027 4.94624C5.91629 4.90321 6.62936 4.32538 6.85066 3.51395L7.05352 2.77013C7.36703 1.63905 8.59647 1.03048 9.68452 1.47922L10.3976 1.77429C11.1721 2.09394 12.0635 1.88494 12.6167 1.25177L13.1208 0.673937C13.8954 -0.217407 15.2662 -0.223554 16.0469 0.649349L16.5571 1.22104C17.1165 1.84805 18.014 2.04476 18.7824 1.71282L19.4893 1.4116C20.5712 0.944414 21.813 1.5284 22.1388 2.65948L22.3539 3.39715C22.5875 4.20243 23.3129 4.76798 24.1489 4.80486L24.9173 4.83559C26.0914 4.88477 26.9582 5.95439 26.7615 7.11006L26.6324 7.86617C26.491 8.69604 26.8967 9.51977 27.6344 9.91319L28.3106 10.2759C29.3494 10.8353 29.6629 12.1692 28.9868 13.1282L28.5442 13.7552C28.0585 14.4437 28.0708 15.3596 28.5626 16.0358ZM10.705 9.42756C9.03292 9.42756 7.68054 10.7799 7.68054 12.452C7.68054 14.1179 9.03292 15.4764 10.705 15.4764C12.377 15.4764 13.7294 14.124 13.7294 12.452C13.7294 10.7799 12.377 9.42756 10.705 9.42756ZM10.2501 20.3511C10.5636 20.6093 11.0308 20.5663 11.2889 20.2528L19.225 10.6939C19.4832 10.3804 19.4401 9.91319 19.1266 9.655C18.8131 9.39682 18.3459 9.43985 18.0878 9.75336L10.1517 19.3123C9.89353 19.6258 9.93656 20.093 10.2501 20.3511ZM15.6535 17.5419C15.6535 19.2139 17.0058 20.5663 18.6779 20.5663C20.3499 20.5663 21.7023 19.2139 21.7023 17.5419C21.7023 15.8698 20.3499 14.5174 18.6779 14.5174C17.0058 14.5174 15.6535 15.8698 15.6535 17.5419ZM10.7111 13.7061C11.4036 13.7061 11.9651 13.1446 11.9651 12.452C11.9651 11.7594 11.4036 11.198 10.7111 11.198C10.0185 11.198 9.45704 11.7594 9.45704 12.452C9.45704 13.1446 10.0185 13.7061 10.7111 13.7061ZM18.6784 18.796C19.3709 18.796 19.9324 18.2346 19.9324 17.542C19.9324 16.8494 19.3709 16.288 18.6784 16.288C17.9858 16.288 17.4243 16.8494 17.4243 17.542C17.4243 18.2346 17.9858 18.796 18.6784 18.796Z" fill="#171717"/>
</svg>
