<svg width="15" height="15" viewBox="0 0 15 15" fill="none" xmlns="http://www.w3.org/2000/svg">
<g clip-path="url(#clip0_256_1281)">
<path d="M7.70477 2.10193C4.72314 2.10193 2.30664 4.5189 2.30664 7.50003C2.30664 10.4811 4.72314 12.8981 7.70477 12.8981C10.6854 12.8981 13.1029 10.4816 13.1029 7.50003C13.1024 4.51886 10.6854 2.10193 7.70477 2.10193ZM7.64524 10.9586C5.77346 10.9586 4.2567 9.44201 4.2567 7.57027C4.2567 5.69849 5.77346 4.18173 7.64524 4.18173C9.51631 4.18173 11.0338 5.69849 11.0338 7.57027C11.0338 9.44201 9.51631 10.9586 7.64524 10.9586Z" fill="#FFB800"/>
<path d="M1.73006 3.06088H1.50372L1.57125 5.43275H1.29932V3.06088H1.1002V5.4474H0.875236V3.06088L0.655274 3.06136V5.44787H0.388153L0.464586 3.06088H0.257232L0.00661893 5.07981C0.00661893 5.07981 0 5.15581 0 5.18489C0 5.4957 0.144868 5.77405 0.370306 5.95485C1.11371 6.79439 0.606066 7.65131 0.606539 7.855C0.606972 8.07977 0.606972 11.5473 0.606972 11.5473C0.607445 11.55 0.606066 11.5518 0.606539 11.5551C0.606972 11.7675 0.778631 11.9391 0.990831 11.9391C1.20323 11.9391 1.37579 11.7665 1.37579 11.5551C1.37532 11.5518 1.37489 11.55 1.37441 11.5473H1.37532C1.37532 11.5473 1.37532 8.12326 1.37579 7.86276C1.37579 7.62566 0.946862 6.64125 1.66348 5.9086C1.66395 5.90769 1.66553 5.90541 1.66691 5.90427C1.84176 5.73836 1.95735 5.50969 1.97429 5.25289C1.97567 5.23504 1.9752 5.18903 1.9752 5.18903L1.73006 3.06088Z" fill="#FFB800"/>
<path d="M15.0007 8.78611C15.0011 8.55721 14.9938 3.06136 14.9938 3.06136L14.8683 3.06088C14.8683 3.06088 13.8457 3.63791 13.8457 7.92001C14.6312 8.1356 14.3007 8.99437 14.2412 9.10374C14.2412 9.32166 14.2582 11.561 14.2582 11.561L14.2609 11.5596C14.26 11.5628 14.2591 11.5647 14.2591 11.5674C14.2582 11.773 14.4252 11.94 14.6298 11.9382C14.8344 11.9391 15.0015 11.772 15.0006 11.5674C15.0015 11.5647 15.0015 11.5628 15.0006 11.561L15.0011 11.5591C15.0011 11.5592 15.0011 9.03743 15.0007 8.78611Z" fill="#FFB800"/>
</g>
<defs>
<clipPath id="clip0_256_1281">
<rect width="15" height="15" fill="white"/>
</clipPath>
</defs>
</svg>
