<svg width="30" height="22" viewBox="0 0 30 22" fill="none" xmlns="http://www.w3.org/2000/svg">
<path fill-rule="evenodd" clip-rule="evenodd" d="M15.4076 0.204102C9.44434 0.204102 4.61133 5.03809 4.61133 11.0002C4.61133 16.9625 9.44434 21.7965 15.4076 21.7965C21.3689 21.7965 26.2039 16.9635 26.2039 11.0002C26.2029 5.03796 21.3689 0.204102 15.4076 0.204102ZM15.2885 17.9174C11.545 17.9174 8.51144 14.8843 8.51144 11.1407C8.51144 7.39722 11.545 4.36377 15.2885 4.36377C19.0307 4.36377 22.0656 7.39722 22.0656 11.1407C22.0656 14.8843 19.0307 17.9174 15.2885 17.9174ZM3.46011 2.12207H3.00745L3.14249 6.86584H2.59863V2.12207H2.20041V6.89514H1.75046V2.12207L1.31055 2.12305V6.896H0.776306L0.929169 2.12207H0.514465L0.0132446 6.15991C0.0132446 6.15991 0 6.31189 0 6.37012C0 6.9917 0.289734 7.54846 0.740601 7.91003C1.93063 9.25391 1.51776 10.6201 1.306 11.3208C1.2532 11.4956 1.21289 11.629 1.21307 11.7103C1.2135 11.9266 1.21371 13.6448 1.21384 15.3693L1.21396 19.0948C1.21487 19.1003 1.21213 19.104 1.21307 19.1105C1.21396 19.5353 1.55725 19.8785 1.98166 19.8785C2.40646 19.8785 2.75159 19.5333 2.75159 19.1105L2.74969 19.0995L2.74884 19.0948H2.75064L2.75079 15.0437C2.75092 13.4579 2.75116 11.9589 2.75159 11.7258C2.75159 11.6331 2.71872 11.483 2.67661 11.2908C2.50357 10.5004 2.17422 8.99609 3.32697 7.8175C3.32791 7.81567 3.33105 7.81116 3.3338 7.80884C3.6835 7.47705 3.9147 7.01965 3.94858 6.5061C3.95135 6.47034 3.95041 6.37842 3.95041 6.37842L3.46011 2.12207ZM29.9934 8.13196C29.9967 10.7836 29.9998 13.3561 29.9994 13.5725C30.0002 14.0752 30.0002 19.1187 30.0002 19.1185L29.9993 19.1223C30.001 19.126 30.001 19.1296 29.9993 19.1351C30.0011 19.5443 29.6669 19.8785 29.2577 19.8767C28.8485 19.8804 28.5144 19.5463 28.5162 19.1351C28.5162 19.1296 28.518 19.126 28.5198 19.1195L28.5144 19.1223C28.5144 19.1223 28.4805 14.6437 28.4805 14.2078C28.5995 13.989 29.2605 12.2715 27.6895 11.8403C27.6895 3.27612 29.7347 2.12207 29.7347 2.12207L29.9856 2.12305L29.9934 8.13196Z" fill="url(#paint0_linear_258_57)"/>
<defs>
<linearGradient id="paint0_linear_258_57" x1="2.61369" y1="1.45948" x2="25.4538" y2="-1.7187" gradientUnits="userSpaceOnUse">
<stop stop-color="#C446FF"/>
<stop offset="1" stop-color="#9920F9"/>
</linearGradient>
</defs>
</svg>
