<svg width="30" height="30" viewBox="0 0 30 30" fill="none" xmlns="http://www.w3.org/2000/svg">
<path fill-rule="evenodd" clip-rule="evenodd" d="M17.675 9.96094C17.8547 9.96094 18.0334 9.90509 18.1838 9.79568C18.4388 9.61052 18.5729 9.30107 18.5338 8.98819L18.2177 6.46019L19.9595 4.60075C20.1751 4.3705 20.2483 4.0416 20.1508 3.74153C20.0533 3.4417 19.8006 3.21877 19.4909 3.15926L16.989 2.6786L15.7588 0.447464C15.6066 0.171432 15.3161 0 15.001 0C14.6856 0 14.3953 0.171432 14.2431 0.447464L13.0129 2.6786L10.5108 3.15926C10.2013 3.21854 9.94839 3.4417 9.85089 3.74153C9.75362 4.0416 9.82686 4.3705 10.0425 4.60075L11.7843 6.46019L11.4682 8.98819C11.4288 9.30107 11.5629 9.61052 11.8181 9.79568C12.0731 9.98108 12.4086 10.0131 12.6943 9.879L15.001 8.7973L17.3076 9.879C17.4248 9.93393 17.5502 9.96094 17.675 9.96094ZM29.9595 12.5308C29.862 12.231 29.6093 12.0078 29.2996 11.9483L26.7975 11.4677L25.5673 9.23653C25.4151 8.96049 25.1248 8.78906 24.8094 8.78906C24.4943 8.78906 24.2038 8.96049 24.0516 9.23653L22.8214 11.4677L20.3195 11.9483C20.0098 12.0078 19.7571 12.231 19.6596 12.5308C19.5621 12.8307 19.6356 13.1596 19.8509 13.3898L21.5927 15.2493L21.2766 17.7775C21.2375 18.0904 21.3716 18.3996 21.6266 18.5847C21.8816 18.7701 22.2171 18.8022 22.5028 18.6683L24.8094 17.5864L27.1163 18.6683C27.2333 18.7232 27.3587 18.7502 27.4835 18.7502C27.6634 18.7502 27.8419 18.6942 27.9923 18.585C28.2472 18.3996 28.3814 18.0904 28.3422 17.7775L28.0261 15.2495L29.7679 13.3898C29.9835 13.1598 30.057 12.8307 29.9595 12.5308ZM10.9304 22.7179L13.4323 23.1983C13.742 23.2578 13.9949 23.481 14.0922 23.7808C14.1895 24.0807 14.1162 24.4098 13.9006 24.6398L12.1588 26.4993L12.4752 29.0275C12.5143 29.3404 12.3802 29.6496 12.125 29.835C11.9746 29.9442 11.7961 30.0002 11.6164 30.0002C11.4914 30.0002 11.366 29.9732 11.249 29.9183L8.94237 28.8364L6.63547 29.9183C6.35005 30.0524 6.01451 30.0201 5.75954 29.835C5.50433 29.6496 5.37021 29.3404 5.40935 29.0275L5.72543 26.4993L3.98387 24.6398C3.76826 24.4098 3.69502 24.0807 3.7923 23.7808C3.8898 23.481 4.14249 23.2578 4.45216 23.1983L6.9543 22.7179L8.18454 20.4868C8.33675 20.2107 8.62697 20.0391 8.94237 20.0391C9.25754 20.0391 9.54799 20.2107 9.70019 20.4868L10.9304 22.7179ZM25.5496 23.1983L23.0475 22.7179L21.8173 20.4868C21.6651 20.2107 21.3748 20.0391 21.0594 20.0391C20.7443 20.0391 20.454 20.2107 20.3016 20.4868L19.0714 22.7179L16.5695 23.1983C16.2598 23.2578 16.0071 23.481 15.9096 23.7808C15.8121 24.0807 15.8856 24.4098 16.1009 24.6398L17.8427 26.4993L17.5266 29.0275C17.4875 29.3404 17.6216 29.6496 17.8766 29.835C18.1316 30.0201 18.4671 30.0524 18.7528 29.9183L21.0594 28.8364L23.3663 29.9183C23.4833 29.9732 23.6087 30.0002 23.7335 30.0002C23.9134 30.0002 24.0919 29.9442 24.2423 29.835C24.4972 29.6496 24.6314 29.3404 24.5922 29.0275L24.2761 26.4993L26.0179 24.6398C26.2335 24.4098 26.3068 24.0807 26.2093 23.7808C26.112 23.481 25.8593 23.2578 25.5496 23.1983ZM7.8664 18.7502C7.74143 18.7502 7.616 18.7232 7.49904 18.6683L5.19237 17.5864L2.88547 18.6683C2.60006 18.8022 2.26429 18.7701 2.00931 18.5847C1.75434 18.3996 1.62021 18.0904 1.65935 17.7775L1.97544 15.2493L0.233648 13.3898C0.0182697 13.1596 -0.0549724 12.8307 0.0423023 12.5308C0.139806 12.231 0.392492 12.0078 0.702169 11.9483L3.2043 11.4677L4.43432 9.23676C4.58652 8.96072 4.87697 8.78906 5.19214 8.78906C5.50754 8.78906 5.79777 8.96072 5.94997 9.23676L7.18021 11.4679L9.68235 11.9483C9.99203 12.0078 10.2447 12.231 10.3422 12.5308C10.4397 12.8307 10.3662 13.1598 10.1506 13.3898L8.40908 15.2495L8.72516 17.7775C8.7643 18.0904 8.63018 18.3996 8.3752 18.585C8.2246 18.6942 8.04607 18.7502 7.8664 18.7502Z" fill="url(#paint0_linear_257_169)"/>
<defs>
<linearGradient id="paint0_linear_257_169" x1="26.528" y1="30.0003" x2="4.72428" y2="28.7949" gradientUnits="userSpaceOnUse">
<stop stop-color="#FF8A00"/>
<stop offset="1" stop-color="#FFC700"/>
</linearGradient>
</defs>
</svg>
