<svg width="69" height="11" viewBox="0 0 69 11" fill="none" xmlns="http://www.w3.org/2000/svg">
<path d="M68.5207 3.9042L68.0451 4.05849C68.0784 4.16106 68.052 4.26714 67.9754 4.34183L67.9753 4.34188L66.0789 6.19059L66.0787 6.19077C65.8809 6.38383 65.7893 6.66231 65.8363 6.93658C65.8363 6.93659 65.8363 6.9366 65.8363 6.93661L66.2839 9.54675L66.284 9.54746C66.2988 9.63303 66.2778 9.70715 66.2255 9.76898L66.225 9.76958C66.1692 9.83578 66.0912 9.87088 66.0118 9.87088C65.9693 9.87088 65.9275 9.86118 65.8836 9.83809L65.8833 9.83793L63.5391 8.60545L63.5375 8.6046C63.2961 8.4788 62.9997 8.47701 62.7552 8.6052L62.7547 8.60547L60.4108 9.83789C60.2992 9.89654 60.151 9.86724 60.069 9.76979L60.0686 9.76925C60.0161 9.70704 59.995 9.63306 60.0099 9.5473L60.01 9.54671L60.4573 6.93677C60.4573 6.93669 60.4573 6.93661 60.4573 6.93654C60.5044 6.6625 60.4127 6.38382 60.2149 6.19077L60.2147 6.19057L58.3183 4.34208L58.3183 4.34205C58.2416 4.26736 58.2152 4.16127 58.2485 4.0587L57.7729 3.90441M68.5207 3.9042L68.0452 4.05881C68.012 3.95649 67.9285 3.88605 67.8218 3.87053L65.201 3.48971L65.2008 3.48969C64.9268 3.44978 64.6894 3.27777 64.5665 3.02866C64.5665 3.02855 64.5664 3.02844 64.5664 3.02833L63.3948 0.65389L63.3947 0.65377C63.3475 0.557993 63.2545 0.5 63.1469 0.5C63.0397 0.5 62.9466 0.557921 62.8994 0.65377L62.8993 0.653907L61.7275 3.02855C61.7275 3.02859 61.7274 3.02863 61.7274 3.02867C61.7274 3.02874 61.7273 3.02882 61.7273 3.0289C61.6043 3.27839 61.3664 3.45006 61.0928 3.48991L61.0927 3.48993L58.4717 3.87077L58.4715 3.87079C58.3655 3.88616 58.2817 3.95657 58.2484 4.05903L57.7729 3.90441M68.5207 3.9042C68.6126 4.1875 68.5374 4.49225 68.3243 4.69991L67.8939 3.37575C68.1887 3.41867 68.4286 3.6209 68.5207 3.9042ZM57.7729 3.90441C57.681 4.18771 57.7562 4.49247 57.9693 4.70012M57.7729 3.90441C57.865 3.62111 58.1052 3.41867 58.3998 3.37596L61.0208 2.99513C61.1324 2.97887 61.2291 2.90886 61.2789 2.80763L57.9693 4.70012M57.9693 4.70012L59.8657 6.54861C59.9465 6.62751 59.9836 6.74109 59.9645 6.85207L59.5171 9.46224C59.4775 9.692 59.5377 9.91547 59.6864 10.0917L57.9693 4.70012Z" stroke="#FFB800"/>
<path d="M54.0832 3.9042L53.6076 4.05849C53.6409 4.16106 53.6145 4.26714 53.5379 4.34183L53.5378 4.34188L51.6414 6.19059L51.6412 6.19077C51.4434 6.38383 51.3518 6.66231 51.3988 6.93658C51.3988 6.93659 51.3988 6.9366 51.3988 6.93661L51.8464 9.54675L51.8465 9.54746C51.8613 9.63303 51.8403 9.70715 51.788 9.76898L51.7875 9.76958C51.7317 9.83578 51.6537 9.87088 51.5743 9.87088C51.5318 9.87088 51.49 9.86118 51.4461 9.83809L51.4458 9.83793L49.1016 8.60545L49.1 8.6046C48.8586 8.4788 48.5622 8.47701 48.3177 8.6052L48.3172 8.60547L45.9733 9.83789C45.8617 9.89654 45.7135 9.86724 45.6315 9.76979L45.6311 9.76925C45.5786 9.70704 45.5575 9.63306 45.5724 9.5473L45.5725 9.54671L46.0198 6.93677C46.0198 6.93669 46.0198 6.93661 46.0198 6.93654C46.0669 6.6625 45.9752 6.38382 45.7774 6.19077L45.7772 6.19057L43.8808 4.34208L43.8808 4.34205C43.8041 4.26736 43.7777 4.16127 43.811 4.0587L43.3354 3.90441M54.0832 3.9042L53.6077 4.05881C53.5745 3.95649 53.491 3.88605 53.3843 3.87053L50.7635 3.48971L50.7633 3.48969C50.4893 3.44978 50.2519 3.27777 50.129 3.02866C50.129 3.02855 50.1289 3.02844 50.1289 3.02833L48.9573 0.65389L48.9572 0.65377C48.91 0.557993 48.817 0.5 48.7094 0.5C48.6022 0.5 48.5091 0.557921 48.4619 0.65377L48.4618 0.653907L47.29 3.02855C47.29 3.02859 47.2899 3.02863 47.2899 3.02867C47.2899 3.02874 47.2898 3.02882 47.2898 3.0289C47.1668 3.27839 46.9289 3.45006 46.6553 3.48991L46.6552 3.48993L44.0342 3.87077L44.034 3.87079C43.928 3.88616 43.8442 3.95657 43.8109 4.05903L43.3354 3.90441M54.0832 3.9042C54.1751 4.1875 54.0999 4.49225 53.8868 4.69991L53.4564 3.37575C53.7512 3.41867 53.9911 3.6209 54.0832 3.9042ZM43.3354 3.90441C43.2435 4.18771 43.3187 4.49247 43.5318 4.70012M43.3354 3.90441C43.4275 3.62111 43.6677 3.41867 43.9623 3.37596L46.5833 2.99513C46.6949 2.97887 46.7916 2.90886 46.8414 2.80763L43.5318 4.70012M43.5318 4.70012L45.4282 6.54861C45.509 6.62751 45.5461 6.74109 45.527 6.85207L45.0796 9.46224C45.04 9.692 45.1002 9.91547 45.2489 10.0917L43.5318 4.70012Z" stroke="#FFB800"/>
<path d="M39.4572 4.69991C39.6702 4.49225 39.7454 4.1875 39.6535 3.9042C39.5614 3.6209 39.3215 3.41867 39.0267 3.37575L36.4057 2.99491C36.294 2.97865 36.1976 2.90864 36.1477 2.80742L34.976 0.432644C34.8444 0.165818 34.5773 0 34.2797 0C33.9824 0 33.7153 0.165818 33.5837 0.432644L32.4117 2.80763C32.3619 2.90886 32.2652 2.97887 32.1536 2.99513L29.5326 3.37596C29.238 3.41867 28.9978 3.62111 28.9057 3.90441C28.8138 4.18771 28.889 4.49247 29.1021 4.70012L30.9985 6.54861C31.0793 6.62751 31.1164 6.74109 31.0973 6.85207L30.65 9.46224C30.6103 9.692 30.6705 9.91547 30.8192 10.0917C31.0503 10.3663 31.4537 10.45 31.7762 10.2805L34.1202 9.04802C34.2182 8.99665 34.3415 8.99708 34.4393 9.04802L36.7835 10.2805C36.8975 10.3405 37.0191 10.3709 37.1446 10.3709C37.3737 10.3709 37.5909 10.269 37.7402 10.0917C37.8892 9.91547 37.9492 9.69157 37.9095 9.46224L37.4619 6.85207C37.4429 6.74087 37.4799 6.62751 37.5608 6.54861L39.4572 4.69991Z" fill="#FFB800"/>
<path d="M25.0236 4.69991C25.2366 4.49225 25.3119 4.1875 25.2199 3.9042C25.1278 3.6209 24.8879 3.41867 24.5931 3.37575L21.9721 2.99491C21.8605 2.97865 21.764 2.90864 21.7141 2.80742L20.5424 0.432644C20.4108 0.165818 20.1438 0 19.8461 0C19.5488 0 19.2817 0.165818 19.1501 0.432644L17.9781 2.80763C17.9283 2.90886 17.8316 2.97887 17.72 2.99513L15.099 3.37596C14.8044 3.41867 14.5643 3.62111 14.4721 3.90441C14.3802 4.18771 14.4554 4.49247 14.6685 4.70012L16.5649 6.54861C16.6458 6.62751 16.6828 6.74109 16.6637 6.85207L16.2164 9.46224C16.1767 9.692 16.237 9.91547 16.3856 10.0917C16.6167 10.3663 17.0201 10.45 17.3426 10.2805L19.6866 9.04802C19.7846 8.99665 19.9079 8.99708 20.0057 9.04802L22.3499 10.2805C22.4639 10.3405 22.5855 10.3709 22.711 10.3709C22.9401 10.3709 23.1573 10.269 23.3066 10.0917C23.4556 9.91547 23.5156 9.69157 23.4759 9.46224L23.0283 6.85207C23.0093 6.74087 23.0463 6.62751 23.1272 6.54861L25.0236 4.69991Z" fill="#FFB800"/>
<path d="M10.59 4.69991C10.803 4.49225 10.8783 4.1875 10.7864 3.9042C10.6942 3.6209 10.4543 3.41867 10.1595 3.37575L7.53849 2.99491C7.42686 2.97865 7.33041 2.90864 7.28055 2.80742L6.10877 0.432644C5.9772 0.165818 5.71016 0 5.41255 0C5.11516 0 4.84812 0.165818 4.71655 0.432644L3.54456 2.80763C3.4947 2.90886 3.39803 2.97887 3.2864 2.99513L0.665394 3.37596C0.370823 3.41867 0.130659 3.62111 0.0385375 3.90441C-0.0533668 4.18771 0.0218473 4.49247 0.234918 4.70012L2.13131 6.54861C2.21216 6.62751 2.24923 6.74109 2.23015 6.85207L1.78277 9.46224C1.7431 9.692 1.80336 9.91547 1.95205 10.0917C2.18312 10.3663 2.5865 10.45 2.90903 10.2805L5.25302 9.04802C5.35099 8.99665 5.47433 8.99708 5.57208 9.04802L7.9163 10.2805C8.03031 10.3405 8.15191 10.3709 8.27741 10.3709C8.50652 10.3709 8.72371 10.269 8.87305 10.0917C9.02196 9.91547 9.08201 9.69157 9.04234 9.46224L8.59474 6.85207C8.57567 6.74087 8.61273 6.62751 8.69358 6.54861L10.59 4.69991Z" fill="#FFB800"/>
</svg>
