<svg width="15" height="12" viewBox="0 0 15 12" fill="none" xmlns="http://www.w3.org/2000/svg">
<path d="M10.9542 11.3938C10.5045 11.8435 9.77445 11.8435 9.32474 11.3938L3.74651 5.81558C3.58634 5.65541 3.46313 5.46444 3.38304 5.26114C2.82245 5.41823 2.27725 5.5014 1.79674 5.49832C0.607787 5.49216 0.213522 4.9716 0.0841541 4.6605C-0.0452147 4.35248 -0.13762 3.70564 0.697113 2.85551C0.706353 2.84627 0.715593 2.83703 0.724834 2.82778C1.24231 2.31031 1.99388 1.83288 2.84709 1.47866C3.00418 1.41397 3.16127 1.35545 3.31528 1.3V1.29076C3.32452 0.606959 3.87587 0.0556031 4.55968 0.0463625L7.90169 0.000159511C8.34524 -0.00600089 8.77031 0.16649 9.0814 0.480671L14.6627 6.05892C15.1124 6.50863 15.1124 7.23863 14.6627 7.68834L10.9542 11.3938ZM6.65421 1.99613C6.28151 1.62343 5.67779 1.62343 5.30509 1.99613C5.08331 2.2179 4.99399 2.52284 5.03711 2.8093C4.67056 3.06804 4.23318 3.3083 3.76499 3.50235C3.59866 3.57011 3.43849 3.63172 3.28448 3.68408L3.30296 2.34111C3.27524 2.35343 3.25059 2.36267 3.22287 2.375C2.49287 2.67993 1.83679 3.09268 1.4148 3.51467C1.40864 3.52083 1.40248 3.52699 1.39632 3.53315C0.995892 3.94282 0.952768 4.20463 0.98665 4.28472C1.09138 4.53422 2.21565 4.75599 3.92208 4.04446C4.42107 3.83501 4.88926 3.57627 5.26812 3.29598C5.28044 3.31138 5.29585 3.32678 5.30817 3.34218C5.68087 3.71488 6.28459 3.71488 6.65729 3.34218C7.02691 2.97255 7.02691 2.36883 6.65421 1.99613Z" fill="white"/>
</svg>
