<svg width="15" height="15" viewBox="0 0 15 15" fill="none" xmlns="http://www.w3.org/2000/svg">
<path d="M14.3741 2.46099C14.1623 2.24894 13.9109 2.14289 13.6208 2.14289H12.5495V1.33929C12.5495 0.971063 12.4182 0.655751 12.156 0.393474C11.8936 0.131197 11.5785 0 11.21 0H10.6745C10.3061 0 9.99083 0.131197 9.72856 0.393503C9.46619 0.655751 9.33505 0.971093 9.33505 1.33932V2.14292H6.12094V1.33932C6.12094 0.971093 5.98975 0.65578 5.72744 0.393503C5.46519 0.131197 5.14991 0 4.78153 0H4.24586C3.87757 0 3.56226 0.131197 3.29995 0.393503C3.03771 0.655751 2.90648 0.971093 2.90648 1.33932V2.14292H1.83515C1.5449 2.14292 1.29383 2.24897 1.08177 2.46102C0.869714 2.67305 0.763672 2.92424 0.763672 3.2144V13.9287C0.763672 14.2186 0.869714 14.4698 1.08177 14.6819C1.2938 14.8939 1.54487 15 1.83515 15H13.6206C13.9107 15 14.1621 14.894 14.3739 14.6819C14.586 14.4698 14.692 14.2186 14.692 13.9287V3.21437C14.692 2.92413 14.586 2.67305 14.3741 2.46099ZM4.24578 13.9285H1.83515V11.5177H4.24578V13.9285ZM4.24578 10.9821H1.83515V8.30373H4.24578V10.9821ZM4.24578 7.76777H1.83515V5.35718H4.24578V7.76777ZM4.05756 3.93834C4.00452 3.88531 3.97805 3.82266 3.97805 3.75004V1.33941C3.97805 1.26688 4.00452 1.20405 4.05756 1.1511C4.11059 1.09807 4.17324 1.07159 4.24586 1.07159H4.78153C4.85406 1.07159 4.91689 1.09807 4.96984 1.1511C5.02287 1.20408 5.04941 1.26688 5.04941 1.33941V3.75004C5.04941 3.82269 5.02276 3.88534 4.96984 3.93834C4.91686 3.99138 4.85415 4.01785 4.78153 4.01785H4.24586C4.17333 4.01788 4.11059 3.99138 4.05756 3.93834ZM7.46006 13.9285H4.78144V11.5177H7.46006V13.9285ZM7.46006 10.9821H4.78144V8.30373H7.46006V10.9821ZM7.46006 7.76777H4.78144V5.35718H7.46006V7.76777ZM10.6745 13.9285H7.99587V11.5177H10.6745V13.9285ZM10.6745 10.9821H7.99587V8.30373H10.6745V10.9821ZM10.6745 7.76777H7.99587V5.35718H10.6745V7.76777ZM10.486 3.93834C10.4331 3.88531 10.4067 3.82266 10.4067 3.75004V1.33941C10.4067 1.26688 10.4331 1.20405 10.486 1.1511C10.539 1.09807 10.6018 1.07159 10.6745 1.07159H11.21C11.2827 1.07159 11.3454 1.09807 11.3985 1.1511C11.4515 1.20408 11.4778 1.26688 11.4778 1.33941V3.75004C11.4778 3.82269 11.4514 3.88534 11.3985 3.93834C11.3455 3.99138 11.2827 4.01785 11.21 4.01785H10.6745C10.6018 4.01788 10.5388 3.99138 10.486 3.93834ZM13.6206 13.9285H11.2098V11.5177H13.6206V13.9285ZM13.6206 10.9821H11.2098V8.30373H13.6206V10.9821ZM13.6206 7.76777H11.2098V5.35718H13.6206V7.76777Z" fill="#FFB800"/>
</svg>
