<svg width="7" height="13" viewBox="0 0 7 13" fill="none" xmlns="http://www.w3.org/2000/svg">
<path d="M5.17596 5.90536C4.66582 5.62344 4.12346 5.40864 3.58648 5.18579C3.27502 5.05692 2.977 4.90656 2.71387 4.69714C2.19568 4.28366 2.29503 3.61242 2.90182 3.34662C3.07366 3.27144 3.25355 3.24727 3.43612 3.23653C4.13957 3.19895 4.80812 3.32782 5.44445 3.6339C5.76127 3.78695 5.86598 3.73862 5.97338 3.40837C6.08615 3.05933 6.18012 2.70492 6.28483 2.35319C6.35464 2.11692 6.26872 1.96119 6.04587 1.86185C5.63776 1.68196 5.21891 1.55308 4.77859 1.48327C4.20401 1.39467 4.20401 1.39199 4.20133 0.814727C4.19864 0.00119332 4.19864 0.0011933 3.38242 0.0011933C3.26429 0.0011933 3.14615 -0.00149163 3.02801 0.0011933C2.64675 0.011933 2.58231 0.0790563 2.57157 0.463001C2.5662 0.634837 2.57157 0.806672 2.56889 0.981193C2.5662 1.49133 2.56352 1.48328 2.07486 1.66048C0.893491 2.09007 0.163191 2.89555 0.0853275 4.18431C0.0155193 5.32541 0.611574 6.09599 1.54861 6.65714C2.12587 7.00349 2.76489 7.20755 3.37705 7.47873C3.61601 7.58344 3.84423 7.70426 4.04292 7.87073C4.63092 8.3567 4.52352 9.16486 3.82544 9.47094C3.45223 9.63472 3.05755 9.675 2.65212 9.62398C2.02653 9.54612 1.42779 9.38234 0.863957 9.08968C0.533711 8.91785 0.437053 8.96349 0.324286 9.32059C0.227629 9.62935 0.141711 9.94081 0.0557933 10.2523C-0.0596587 10.6711 -0.0167001 10.7704 0.383355 10.9664C0.893491 11.2135 1.43853 11.3397 1.99431 11.4283C2.42927 11.4981 2.4427 11.5169 2.44807 11.9679C2.45075 12.172 2.45075 12.3787 2.45344 12.5828C2.45612 12.8405 2.57963 12.9909 2.84544 12.9963C3.14615 13.0016 3.44955 13.0016 3.75026 12.9936C3.99727 12.9882 4.12346 12.854 4.12346 12.6043C4.12346 12.325 4.13689 12.0431 4.12615 11.7639C4.11272 11.4793 4.23623 11.3343 4.51009 11.2591C5.14105 11.0873 5.67804 10.749 6.09152 10.2442C7.24067 8.84804 6.80302 6.80481 5.17596 5.90536Z" fill="#FFB800" fill-opacity="0.6"/>
</svg>
