<svg width="11" height="21" viewBox="0 0 11 21" fill="none" xmlns="http://www.w3.org/2000/svg">
<path d="M8.2474 9.55245C7.43455 9.10324 6.57035 8.76099 5.71472 8.4059C5.21845 8.20055 4.74357 7.96097 4.32431 7.62727C3.49862 6.96843 3.65691 5.89888 4.62378 5.47534C4.89758 5.35555 5.18422 5.31705 5.47514 5.29994C6.59602 5.24004 7.66129 5.4454 8.67522 5.93311C9.18005 6.17697 9.3469 6.09996 9.51802 5.57374C9.69771 5.01758 9.84744 4.45286 10.0143 3.89241C10.1255 3.51593 9.98862 3.2678 9.63353 3.10951C8.98325 2.82287 8.31585 2.61752 7.61423 2.50628C6.6987 2.3651 6.6987 2.36082 6.69442 1.44101C6.69014 0.144724 6.69014 0.144724 5.38957 0.144724C5.20133 0.144724 5.01309 0.140445 4.82485 0.144724C4.21735 0.161836 4.11467 0.268791 4.09756 0.880572C4.089 1.15438 4.09756 1.42818 4.09328 1.70626C4.08901 2.51912 4.08473 2.50628 3.3061 2.78864C1.4237 3.47315 0.260029 4.75661 0.135961 6.81014C0.0247286 8.62837 0.974486 9.85621 2.46757 10.7503C3.38738 11.3022 4.40559 11.6274 5.38102 12.0595C5.76178 12.2263 6.12542 12.4188 6.44201 12.6841C7.37893 13.4584 7.2078 14.7462 6.09547 15.2339C5.50081 15.4949 4.87191 15.559 4.22591 15.4777C3.22909 15.3537 2.27505 15.0927 1.37664 14.6264C0.850419 14.3526 0.696404 14.4253 0.51672 14.9943C0.362705 15.4863 0.225803 15.9826 0.0889014 16.4788C-0.0950606 17.1462 -0.02661 17.3045 0.61084 17.6168C1.42369 18.0104 2.29217 18.2115 3.17775 18.3527C3.87082 18.4639 3.89221 18.4939 3.90077 19.2126C3.90504 19.5377 3.90504 19.8672 3.90932 20.1923C3.9136 20.603 4.1104 20.8426 4.53394 20.8511C5.01309 20.8597 5.49653 20.8597 5.97568 20.8469C6.36928 20.8383 6.57035 20.6244 6.57035 20.2265C6.57035 19.7816 6.59174 19.3324 6.57463 18.8875C6.55324 18.434 6.75004 18.2029 7.18641 18.0832C8.19179 17.8094 9.04742 17.2703 9.70626 16.466C11.5373 14.2413 10.84 10.9856 8.2474 9.55245Z" fill="#DFDFDF"/>
</svg>
