<svg width="15" height="15" viewBox="0 0 15 15" fill="none" xmlns="http://www.w3.org/2000/svg">
<path d="M13.0543 5.33162L13.1848 5.4252H13.3064V5.19108L13.6898 5.15391L14.0541 5.4252H14.6527L14.6948 5.38672C14.6348 5.18488 14.5673 4.98663 14.4917 4.79229L14.101 4.79881L13.905 4.58361L13.8672 4.23764L13.6664 4.3472L13.5588 4.77012L13.2689 4.46165L13.2571 4.17014L12.9774 3.92918L12.8743 3.82646H12.5499L12.652 4.11569L13.0426 4.33351L13.1104 4.40557L13.0256 4.44796L13.0295 4.67719L12.8391 4.75675L12.6767 4.72121L12.575 4.57741L12.8394 4.59143L12.9109 4.49524L12.3256 4.10037L12.2806 3.93211L12.0428 4.14732L11.8019 4.09776L11.435 4.5748L11.3627 4.76164L11.1279 4.78284L10.7806 4.78512L10.5729 4.68795L10.5116 4.27547L10.5863 4.07884L10.9397 4.00157L11.3252 4.07884L11.3724 3.86559L11.2088 3.82679L11.2645 3.49452L11.6525 3.43387L11.9238 3.05074L12.2039 3.00378L12.4566 3.04128H12.5499L12.4984 2.6813L12.1912 2.8052L12.083 2.53619L11.9046 2.51141L11.871 2.32718L12.0164 2.16871L12.3624 2.03306L12.4514 1.87394C11.1292 0.709208 9.39611 0 7.49967 0C5.85399 0 4.33155 0.534107 3.09345 1.43635L3.4717 1.43342L3.64028 1.52667L3.95787 1.59515L3.98265 1.72003L4.48774 1.73862L4.41926 1.57656L3.97059 1.56385L4.07624 1.46439L4.03939 1.3457H3.63376L4.07624 1.01539H4.50013L4.69936 1.28994L5.03 1.30853L5.22923 1.11517L5.3789 1.18984L5.10434 1.45787C5.10434 1.45787 4.72447 1.46472 4.74305 1.46472C4.76164 1.46472 4.77436 1.72623 4.77436 1.72623L5.2351 1.71351L5.28499 1.58928L5.60258 1.57037L5.64008 1.38353L5.45324 1.3519L5.51552 1.18364L5.65867 1.14028L6.15723 1.16506L5.88235 1.4145L5.9267 1.60754L6.21332 1.65123L6.19473 1.30233L6.46896 1.15886L6.95513 1.10278L7.65912 1.4145V1.68254L7.88346 1.73862L7.77097 1.95057H7.45305L7.35881 2.19349L6.6333 2.0223L7.20425 1.71808L6.98676 1.53319L6.49439 1.59547L6.45135 1.64015L6.44972 1.63949L6.44222 1.64993L6.30038 1.79731L6.06593 1.81655L6.08452 1.93329L6.16636 1.9672L6.1631 2.00567L5.97235 2.03274L5.95833 2.14328L5.77605 2.15273L5.74312 1.93296L5.41607 2.03241L4.74762 2.4237L4.82262 2.69923L5.00946 2.82118L5.38314 2.8727V3.29757L5.55595 3.26986L5.71508 2.93792L6.11256 2.81205V2.3024L6.33364 2.13545L6.86807 2.26164L6.83057 2.59847H6.97405L7.36696 2.40544L7.38587 2.84759L7.67184 3.02204L7.65978 3.2842L7.38587 3.37746L7.40446 3.4642L7.73477 3.61452L7.72793 3.79516L7.63239 3.80331C7.63206 3.80038 7.63141 3.79842 7.63141 3.79842L7.21469 3.66995L7.19708 3.53626H7.19675L7.3187 3.45246V3.33051L7.18762 3.29757L7.15502 3.41007L6.92513 3.44561L6.90231 3.43811V3.44952L6.82275 3.46159L6.75786 3.33051L6.68286 3.29757H6.51917L6.44483 3.35888V3.49452L6.58471 3.54115L6.72297 3.56071L6.69199 3.57441L6.5658 3.71429L6.51037 3.64452L6.38842 3.61223L6.05615 3.92461L6.09952 3.96015L5.6091 4.23177L5.14771 4.71175L5.11608 4.92533L4.65371 5.22923L4.42448 5.45976L4.44992 5.92083L4.13199 5.77279L4.13428 5.50313L3.24964 5.50346L2.79151 5.73529L2.5926 6.10213L2.5137 6.39298L2.64249 6.67504L3.00346 6.71906L3.57702 6.33559L3.62723 6.52569L3.45213 6.85633L3.88874 6.931L3.93244 7.60532L4.53078 7.70706L4.91098 7.26751L5.37238 7.36142L5.53443 7.58674L5.97691 7.56065L5.98931 7.42989L6.23256 7.54793L6.50678 7.9777L6.98024 7.98422L7.15502 8.29007L7.1798 8.66375L7.70347 8.86298L8.36409 8.86983L8.55746 9.1871L8.85027 9.28101L8.79418 9.5435L8.47333 9.95109L8.37974 10.854L8.08987 11.0829L7.6601 11.0702L7.51696 11.3193L7.62326 11.7875L7.15534 12.3855L7.006 12.6601L6.56026 12.874L6.26712 12.9187L6.25505 13.0429L6.46081 13.1019L6.43602 13.2359L6.25179 13.4133L6.36364 13.5545L6.58537 13.5607L6.57298 13.7316L6.51396 13.9002L6.49504 14.0371L6.82307 14.3133L6.77938 14.4568L6.33299 14.4483L5.88888 14.0609L5.54291 13.4528L5.59117 12.8659L5.32933 12.5166L5.43531 11.9248L5.27977 11.8814V10.5974C5.27977 10.5974 4.84349 10.2667 4.81838 10.2667C4.79327 10.2667 4.58752 10.2106 4.58752 10.2106L4.54382 9.96805L3.97678 9.25721L4.03287 9.00189L4.05145 8.58419L4.44405 8.30964L4.38796 7.84205L3.81473 7.79901L3.36605 7.28773L3.04813 7.19969L2.8427 7.16186L2.86748 6.97502L2.60565 6.93785V7.04382L1.95089 6.88046L1.68743 6.47744L1.7947 6.28212L1.38027 5.67725L1.30918 5.23477H1.14093L1.19669 5.66454L1.48331 6.10702L1.452 6.28179L1.20908 6.24429L0.910069 5.73464V5.14152L0.598344 4.99185V4.56502C0.213578 5.46694 0 6.45885 0 7.5C0 11.6356 3.36442 15 7.5 15C9.84446 15 11.9405 13.9181 13.3168 12.2277H13.0693V11.7292L12.783 11.3437V10.7441L12.5646 10.5263L12.5453 10.2768L12.8231 9.74697L12.2972 8.81799L12.3588 8.18769L11.8854 8.13878L11.7109 7.96433H11.3927L11.2309 8.11367H10.6698L10.6508 8.16356H10.3388L9.62274 7.3474L9.6286 6.71156L9.74697 6.66819L9.79099 6.42494H9.62274L9.55393 6.16962L10.3825 5.57161V5.14771L10.7881 4.92239L10.9525 4.9387H11.286L11.5472 4.79849L12.3888 4.73295V5.16304L13.0543 5.33162ZM10.9505 2.65749L11.019 2.55185L11.2655 2.50196L11.3271 2.80129L11.4582 3.01291L11.5453 3.11302L11.7041 3.17497L11.5544 3.35301L11.2645 3.38072H11.0467L11.0712 3.12215L11.2524 3.08465L11.2371 2.96302L11.0682 2.85705L10.9502 2.77618L10.9505 2.65749ZM10.5458 3.12508L10.6955 2.88509L10.8974 2.83814L11.0408 2.90042L11.0278 3.06248L10.7193 3.28062H10.5452V3.12508H10.5458ZM6.47091 4.04754L6.31473 4.06058L6.3232 3.952L6.39298 3.86494L6.48689 3.93863L6.47091 4.04754ZM7.01839 3.85581L6.91177 3.86494L6.89024 3.96798L6.80807 4.01917L6.67634 4.03026C6.67178 3.99928 6.66917 3.97581 6.66917 3.97581H6.61797V3.86494H6.83286L6.8772 3.75049L6.96263 3.74886L7.06013 3.76908L7.01839 3.85581Z" fill="#FFB800"/>
</svg>
