<svg width="13" height="15" viewBox="0 0 13 15" fill="none" xmlns="http://www.w3.org/2000/svg">
<path d="M2.57454 6.34176C2.54997 6.11269 2.47669 5.9 2.36621 5.71699L12.2632 2.0527L11.7437 0.327174C11.6682 0.0764216 11.4236 -0.0589022 11.1976 0.0247358L0.431829 4.01065C0.205846 4.09429 0.0835671 4.36548 0.15909 4.61623L0.413838 5.46218C0.159528 5.72402 0 6.09755 0 6.51185C0 7.04839 0.267473 7.51669 0.662199 7.7622V14.5214C0.662199 14.7858 0.855612 15 1.09388 15H12.4438C12.682 15 12.8754 14.7857 12.8754 14.5214V6.34176H2.57454ZM8.88259 1.44485L10.1929 0.95973L9.8776 2.37298L8.56729 2.8581L8.88259 1.44485ZM5.64527 2.64341L6.95567 2.15829L6.64037 3.57149L5.33006 4.05666L5.64527 2.64341ZM1.29193 7.24177C0.929087 7.24177 0.633823 6.91436 0.633823 6.5119C0.633823 6.10944 0.929087 5.78203 1.29193 5.78203C1.65486 5.78203 1.95013 6.10944 1.95013 6.5119C1.95013 6.91436 1.65486 7.24177 1.29193 7.24177ZM2.40809 3.84197L3.71849 3.35685L3.40319 4.7701L2.09279 5.25528L2.40809 3.84197ZM3.69533 7.95791H2.31389L3.01656 6.72816H4.398L3.69533 7.95791ZM6.42945 6.72816H7.81089L7.10823 7.95791H5.72679L6.42945 6.72816ZM6.09036 12.6713V9.42739L8.42005 11.0493L6.09036 12.6713ZM10.5211 7.95791H9.13968L9.84235 6.72816H11.2238L10.5211 7.95791Z" fill="#15CD80"/>
</svg>
