<svg width="15" height="15" viewBox="0 0 15 15" fill="none" xmlns="http://www.w3.org/2000/svg">
<path d="M10.6546 12.6403H10.4812C10.2101 11.0673 10.1665 9.45339 9.22707 8.53213C8.30685 7.62982 7.10333 7.3506 6.30486 6.62028V6.27845C6.37802 6.24343 6.42902 6.16929 6.42902 6.08293C6.42902 5.99653 6.37802 5.92239 6.30486 5.88733V5.74205C6.32393 5.72019 6.33589 5.69195 6.33589 5.6607C6.33589 5.59213 6.21173 5.23843 6.21173 5.23843C6.21173 5.23843 6.08753 5.59213 6.08753 5.6607C6.08753 5.69199 6.09949 5.72028 6.1186 5.74209V5.88733C6.0454 5.92235 5.9944 5.99653 5.9944 6.08293C5.9944 6.16933 6.04545 6.24343 6.1186 6.27849V6.62028C5.32013 7.3506 4.11657 7.62982 3.19639 8.53217C2.25696 9.45347 2.21329 11.0673 1.94222 12.6404H1.76877L1.4707 13.4104H10.9527L10.6546 12.6403ZM3.1903 12.6093H2.85362V12.1249H3.1903V12.6093ZM4.2535 12.6093H3.91686V12.1249H4.2535V12.6093ZM5.31675 12.6093H4.9801V12.1249H5.31675V12.6093ZM6.38007 12.6093H6.04335V12.1249H6.38007V12.6093ZM7.44327 12.6093H7.10655V12.1249H7.44327V12.6093ZM8.50643 12.6093H8.16979V12.1249H8.50643V12.6093ZM9.56972 12.6093H9.23299V12.1249H9.56972V12.6093Z" fill="#15CD80"/>
<path d="M13.2066 9.67474V9.30775L12.8057 8.95795L12.2934 9.40512L11.7811 8.95799L11.381 9.30728V9.67474H10.7289V10.8918H11.2001V13.8078H1.14062V15H11.2002H11.2841H13.3873V10.8918H13.8587V9.67478H13.2066V9.67474ZM12.7337 13.6132H11.8539V12.4207H11.9756V11.9513L12.2938 11.6386L12.612 11.9513V12.4207H12.7337V13.6132H12.7337Z" fill="#15CD80"/>
<path d="M11.781 7.95201L11.3809 8.30125V9.05998L11.781 8.7107L12.2934 9.15786L12.8055 8.7107L13.2065 9.06054V8.30172L12.8056 7.95197L12.2934 8.39909L11.781 7.95201Z" fill="#15CD80"/>
<path d="M11.1035 6.85551L11.38 7.71557V8.05397L11.7801 7.70473L12.2925 8.15181L12.8046 7.70477L13.2056 8.05453V7.71536L13.4821 6.85551H13.2056V3.39339L13.4821 2.53354H12.7476V1.78367C12.7476 1.56446 12.5924 1.3815 12.3859 1.33851V1.04001C12.4591 1.005 12.5101 0.930857 12.5101 0.844543C12.5101 0.758143 12.4591 0.684 12.3859 0.648943V0.503614C12.405 0.4818 12.417 0.453514 12.417 0.422229C12.417 0.353657 12.2928 0 12.2928 0C12.2928 0 12.1686 0.3537 12.1686 0.422229C12.1686 0.453557 12.1806 0.4818 12.1997 0.503614V0.648986C12.1265 0.684 12.0755 0.758143 12.0755 0.844543C12.0755 0.9309 12.1265 1.005 12.1997 1.04001V1.33851C11.9932 1.3815 11.838 1.56441 11.838 1.78367V2.53354H11.1035L11.38 3.3936V6.85547H11.1035V6.85551ZM12.0438 3.87043H12.1127V3.6048L12.2928 3.42776L12.4728 3.6048V3.87043H12.5417V4.54551H12.0438V3.87043H12.0438ZM12.0438 5.47247H12.1127V5.20697L12.2928 5.02984L12.4728 5.20697V5.47247H12.5417V6.14756H12.0438V5.47247H12.0438Z" fill="#15CD80"/>
</svg>
