<svg width="14" height="15" viewBox="0 0 14 15" fill="none" xmlns="http://www.w3.org/2000/svg">
<path d="M13.8164 0.0677111C13.7575 0.0161657 13.6797 -0.00728889 13.6012 0.00198384L5.14664 1.09589C5.01082 1.11362 4.90909 1.22898 4.90909 1.36617V3.00717V4.15589V11.0788C4.41109 10.4802 3.61991 10.0907 2.72727 10.0907C1.22345 10.0907 0 11.1917 0 12.5453C0 13.8988 1.22345 14.9998 2.72727 14.9998C4.23109 14.9998 5.45455 13.8988 5.45455 12.5453C5.45455 12.482 5.44936 12.4198 5.44391 12.3579C5.44745 12.3402 5.45455 12.3241 5.45455 12.3055V4.39562L13.3636 3.37208V8.35126C12.8656 7.75289 12.0745 7.36344 11.1818 7.36344C9.678 7.36344 8.45455 8.46444 8.45455 9.81799C8.45455 11.1715 9.678 12.2725 11.1818 12.2725C12.672 12.2725 13.8854 11.1909 13.9072 9.85426C13.9072 9.85071 13.9091 9.84771 13.9091 9.84417V3.06171V1.91326V0.272529C13.9091 0.193984 13.8753 0.119257 13.8164 0.0677111Z" fill="#A15FD4"/>
</svg>
