<svg width="15" height="15" viewBox="0 0 15 15" fill="none" xmlns="http://www.w3.org/2000/svg">
<path fill-rule="evenodd" clip-rule="evenodd" d="M10.8632 3.93644C10.8632 6.11048 9.35738 7.87291 7.50004 7.87291C5.64258 7.87291 4.13689 6.11048 4.13685 3.93644C4.13685 0.921632 5.64255 0 7.50004 0C9.35745 0 10.8632 0.921632 10.8632 3.93644ZM13.2299 9.8446L14.9266 13.6669C15.0436 13.9303 15.0196 14.2319 14.8625 14.4735C14.7054 14.7152 14.4395 14.8595 14.1512 14.8595H0.848737C0.560479 14.8595 0.294621 14.7152 0.137533 14.4736C-0.019628 14.2319 -0.0436036 13.9304 0.0733784 13.6669L1.77015 9.8446C1.84783 9.66962 1.98402 9.52463 2.1538 9.43628L4.7869 8.06549C4.84497 8.03532 4.91528 8.04118 4.96763 8.0807C5.71242 8.64402 6.58804 8.94177 7.50003 8.94177C8.41187 8.94177 9.28757 8.64402 10.0324 8.0807C10.0846 8.04118 10.1549 8.03532 10.2129 8.06549L12.8462 9.43628C13.0159 9.52463 13.1523 9.66969 13.2299 9.8446Z" fill="#FFB800"/>
</svg>
