<svg width="15" height="15" viewBox="0 0 15 15" fill="none" xmlns="http://www.w3.org/2000/svg">
<path d="M7.62507 0C3.55832 0 0.250074 3.30825 0.250074 7.375C0.250074 8.6615 0.586574 9.9255 1.22407 11.0375L0.0128238 14.671C-0.0161762 14.7582 0.0048238 14.854 0.0675738 14.921C0.115574 14.9722 0.182074 15 0.250074 15C0.271324 15 0.292574 14.9972 0.313574 14.9917L4.28032 13.948C5.31082 14.473 6.46507 14.75 7.62507 14.75C11.6918 14.75 15.0001 11.4417 15.0001 7.375C15.0001 3.30825 11.6918 0 7.62507 0ZM12.2271 10.7238L11.7876 11.1635C11.2326 11.7185 10.6133 12 9.94757 12C9.05007 12 8.08232 11.4875 7.07182 10.4768L4.52332 7.9285C3.72632 7.1315 3.23657 6.35725 3.06757 5.627C2.86257 4.74025 3.12132 3.928 3.83682 3.21275L4.27657 2.773C4.55932 2.49025 5.01657 2.42075 5.37082 2.60825C6.03632 2.9605 6.72582 4.1145 6.80232 4.245C6.94032 4.48675 6.98257 4.73675 6.92307 4.951C6.87757 5.11475 6.77507 5.24825 6.62607 5.339C6.42407 5.508 6.18732 5.7185 6.14557 5.772C5.89157 6.14675 5.92057 6.4345 6.24782 6.762L8.23832 8.7525C8.56832 9.08275 8.85107 9.11 9.23182 8.852C9.28207 8.81275 9.49232 8.576 9.66132 8.374C9.78757 8.16525 9.99432 8.051 10.2458 8.051C10.4106 8.051 10.5858 8.101 10.7526 8.196C10.8856 8.27425 12.0398 8.96375 12.3918 9.629C12.5843 9.993 12.5183 10.4325 12.2271 10.7238Z" fill="#15BB61"/>
</svg>
